<svg width="54" height="19" viewBox="0 0 54 19" fill="none" xmlns="http://www.w3.org/2000/svg">
<path d="M10.3936 15H8.39062L3.47559 7.03613H3.4209L3.45508 7.48047C3.51888 8.32812 3.55078 9.10286 3.55078 9.80469V15H2.06738V5.00586H4.0498L8.95117 12.9287H8.99219C8.98307 12.8239 8.96484 12.4434 8.9375 11.7871C8.91016 11.1263 8.89648 10.6113 8.89648 10.2422V5.00586H10.3936V15ZM16.1631 15.1367C14.9873 15.1367 14.0667 14.7949 13.4014 14.1113C12.7406 13.4232 12.4102 12.4775 12.4102 11.2744C12.4102 10.0394 12.7178 9.06868 13.333 8.3623C13.9482 7.65592 14.7936 7.30273 15.8691 7.30273C16.8672 7.30273 17.6556 7.60579 18.2344 8.21191C18.8132 8.81803 19.1025 9.65202 19.1025 10.7139V11.582H14.0645C14.0872 12.3158 14.2855 12.8809 14.6592 13.2773C15.0329 13.6693 15.5592 13.8652 16.2383 13.8652C16.6849 13.8652 17.0996 13.8242 17.4824 13.7422C17.8698 13.6556 18.2845 13.5143 18.7266 13.3184V14.624C18.3346 14.8109 17.9382 14.943 17.5371 15.0205C17.1361 15.098 16.6781 15.1367 16.1631 15.1367ZM15.8691 8.51953C15.3587 8.51953 14.9486 8.68132 14.6387 9.00488C14.3333 9.32845 14.151 9.80013 14.0918 10.4199H17.5234C17.5143 9.79557 17.3639 9.32389 17.0723 9.00488C16.7806 8.68132 16.3796 8.51953 15.8691 8.51953ZM22.6094 11.1377L20.0732 7.43945H21.9053L23.6279 10.085L25.3643 7.43945H27.1826L24.6396 11.1377L27.3125 15H25.4941L23.6279 12.1699L21.7686 15H19.9502L22.6094 11.1377ZM31.4551 13.8379C31.847 13.8379 32.2389 13.7764 32.6309 13.6533V14.8633C32.4531 14.9408 32.223 15.0046 31.9404 15.0547C31.6624 15.1094 31.373 15.1367 31.0723 15.1367C29.5501 15.1367 28.7891 14.3346 28.7891 12.7305V8.65625H27.7568V7.94531L28.8643 7.35742L29.4111 5.75781H30.4023V7.43945H32.5557V8.65625H30.4023V12.7031C30.4023 13.0905 30.498 13.3776 30.6895 13.5645C30.8854 13.7467 31.1406 13.8379 31.4551 13.8379Z" fill="#0084B4"/>
<path fill-rule="evenodd" clip-rule="evenodd" d="M47.0346 18C47.0951 17.9958 47.1105 17.9964 47.1704 17.986C47.3051 17.9628 47.4347 17.9117 47.549 17.8367C47.6068 17.7988 47.6572 17.7547 47.7076 17.7077L53.7079 11.7074C53.7493 11.6631 53.7608 11.653 53.7976 11.6045C53.8388 11.5501 53.8745 11.4915 53.9038 11.4298C54.0321 11.1602 54.0321 10.8403 53.9038 10.5708C53.8745 10.5091 53.8388 10.4504 53.7976 10.396C53.7608 10.3476 53.7493 10.3375 53.7079 10.2932L47.7076 4.29291C47.6633 4.25151 47.6531 4.23991 47.6047 4.20321C47.4776 4.10675 47.3276 4.04165 47.1704 4.0145C47.0582 3.9952 46.9428 3.9952 46.8305 4.0145C46.7408 4.03 46.6532 4.0578 46.571 4.0969C46.2586 4.24546 46.0411 4.55362 46.0057 4.89774C45.9917 5.03374 46.006 5.17225 46.0473 5.30256C46.0818 5.41111 46.1348 5.51356 46.2036 5.60427C46.2404 5.65272 46.2519 5.66282 46.2933 5.70717L51.5864 11.0003L46.2933 16.2934L46.2467 16.3433C46.2085 16.3903 46.1976 16.4013 46.1643 16.4521C46.1018 16.5473 46.0558 16.6531 46.0289 16.7637C46.0073 16.8523 45.9979 16.9437 46.001 17.0347C46.0128 17.3804 46.2088 17.7027 46.5103 17.8722C46.6096 17.928 46.7183 17.9667 46.8305 17.986C46.8904 17.9964 46.9058 17.9958 46.9663 18C46.9891 18 47.0119 18 47.0346 18Z" fill="#0084B4"/>
</svg>
