<svg width="370" height="40" viewBox="0 0 370 40" fill="none" xmlns="http://www.w3.org/2000/svg">
<path d="M1 4C1 2.34315 2.34315 1 4 1H366C367.657 1 369 2.34315 369 4V36C369 37.6569 367.657 39 366 39H3.99999C2.34314 39 1 37.6569 1 36V4Z" stroke="#00A7B4" stroke-width="2"/>
<path d="M169.731 16.0059H172.698C174.074 16.0059 175.067 16.2064 175.678 16.6074C176.293 17.0085 176.601 17.6419 176.601 18.5078C176.601 19.0911 176.451 19.5765 176.15 19.9639C175.849 20.3512 175.416 20.5951 174.851 20.6953V20.7637C175.553 20.8958 176.068 21.1579 176.396 21.5498C176.729 21.9372 176.895 22.4635 176.895 23.1289C176.895 24.0267 176.58 24.7308 175.951 25.2412C175.327 25.7471 174.457 26 173.34 26H169.731V16.0059ZM171.365 20.1348H172.937C173.62 20.1348 174.119 20.0277 174.434 19.8135C174.748 19.5947 174.906 19.2256 174.906 18.7061C174.906 18.2367 174.735 17.8971 174.393 17.6875C174.056 17.4779 173.518 17.373 172.78 17.373H171.365V20.1348ZM171.365 21.4609V24.626H173.101C173.785 24.626 174.299 24.4961 174.646 24.2363C174.997 23.972 175.172 23.5573 175.172 22.9922C175.172 22.4727 174.994 22.0876 174.639 21.8369C174.284 21.5863 173.743 21.4609 173.019 21.4609H171.365ZM184.251 26L184.025 25.0088H183.943C183.72 25.3597 183.401 25.6354 182.986 25.8359C182.576 26.0365 182.107 26.1367 181.578 26.1367C180.662 26.1367 179.978 25.9089 179.527 25.4531C179.076 24.9974 178.85 24.307 178.85 23.3818V18.4395H180.471V23.1016C180.471 23.6803 180.589 24.1156 180.826 24.4072C181.063 24.6943 181.434 24.8379 181.94 24.8379C182.615 24.8379 183.109 24.6374 183.424 24.2363C183.743 23.8307 183.902 23.154 183.902 22.2061V18.4395H185.515V26H184.251ZM190.739 24.8379C191.13 24.8379 191.522 24.7764 191.914 24.6533V25.8633C191.737 25.9408 191.506 26.0046 191.224 26.0547C190.946 26.1094 190.657 26.1367 190.356 26.1367C188.834 26.1367 188.073 25.3346 188.073 23.7305V19.6562H187.04V18.9453L188.148 18.3574L188.695 16.7578H189.686V18.4395H191.839V19.6562H189.686V23.7031C189.686 24.0905 189.782 24.3776 189.973 24.5645C190.169 24.7467 190.424 24.8379 190.739 24.8379ZM196.365 24.8379C196.757 24.8379 197.149 24.7764 197.541 24.6533V25.8633C197.363 25.9408 197.133 26.0046 196.85 26.0547C196.572 26.1094 196.283 26.1367 195.982 26.1367C194.46 26.1367 193.699 25.3346 193.699 23.7305V19.6562H192.667V18.9453L193.774 18.3574L194.321 16.7578H195.312V18.4395H197.466V19.6562H195.312V23.7031C195.312 24.0905 195.408 24.3776 195.599 24.5645C195.795 24.7467 196.051 24.8379 196.365 24.8379ZM205.881 22.2061C205.881 23.4411 205.564 24.4049 204.931 25.0977C204.297 25.7904 203.416 26.1367 202.285 26.1367C201.579 26.1367 200.955 25.9772 200.412 25.6582C199.87 25.3392 199.453 24.8812 199.161 24.2842C198.87 23.6872 198.724 22.9945 198.724 22.2061C198.724 20.9801 199.038 20.0231 199.667 19.335C200.296 18.6468 201.182 18.3027 202.326 18.3027C203.42 18.3027 204.286 18.6559 204.924 19.3623C205.562 20.0641 205.881 21.012 205.881 22.2061ZM200.378 22.2061C200.378 23.9515 201.023 24.8242 202.313 24.8242C203.589 24.8242 204.227 23.9515 204.227 22.2061C204.227 20.4788 203.584 19.6152 202.299 19.6152C201.625 19.6152 201.135 19.8385 200.829 20.2852C200.529 20.7318 200.378 21.3721 200.378 22.2061ZM214.502 26H212.888V21.3516C212.888 20.7682 212.77 20.333 212.533 20.0459C212.3 19.7588 211.929 19.6152 211.419 19.6152C210.74 19.6152 210.243 19.8158 209.928 20.2168C209.614 20.6178 209.457 21.29 209.457 22.2334V26H207.85V18.4395H209.108L209.334 19.4307H209.416C209.644 19.0706 209.967 18.7926 210.386 18.5967C210.806 18.4007 211.271 18.3027 211.781 18.3027C213.595 18.3027 214.502 19.2256 214.502 21.0713V26Z" fill="#00A7B4"/>
</svg>
