<svg width="582" height="120" viewBox="0 0 582 120" fill="none" xmlns="http://www.w3.org/2000/svg">
<g filter="url(#filter0_d)">
<path fill-rule="evenodd" clip-rule="evenodd" d="M10 14C10 11.7909 11.7909 10 14 10H568C570.209 10 572 11.7909 572 14V106C572 108.209 570.209 110 568 110H14C11.7909 110 10 108.209 10 106V14Z" fill="white"/>
<path d="M10.5 14C10.5 12.067 12.067 10.5 14 10.5H568C569.933 10.5 571.5 12.067 571.5 14V106C571.5 107.933 569.933 109.5 568 109.5H14C12.067 109.5 10.5 107.933 10.5 106V14Z" stroke="#C5C5C5"/>
</g>
<path d="M115.653 68.9014C114.555 68.9014 113.687 69.2682 113.049 70.002C112.415 70.7311 112.099 71.7314 112.099 73.0029C112.099 74.3109 112.404 75.3226 113.015 76.0381C113.63 76.749 114.505 77.1045 115.64 77.1045C116.337 77.1045 117.132 76.9792 118.025 76.7285V77.7471C117.333 78.0068 116.478 78.1367 115.462 78.1367C113.99 78.1367 112.853 77.6901 112.051 76.7969C111.253 75.9036 110.854 74.6344 110.854 72.9893C110.854 71.9593 111.046 71.057 111.429 70.2822C111.816 69.5075 112.372 68.9105 113.097 68.4912C113.826 68.0719 114.683 67.8623 115.667 67.8623C116.715 67.8623 117.631 68.0537 118.415 68.4365L117.923 69.4346C117.166 69.0791 116.41 68.9014 115.653 68.9014ZM126.502 74.2471C126.502 75.4684 126.194 76.4232 125.579 77.1113C124.964 77.7949 124.114 78.1367 123.029 78.1367C122.359 78.1367 121.765 77.9795 121.245 77.665C120.726 77.3506 120.325 76.8994 120.042 76.3115C119.759 75.7236 119.618 75.0355 119.618 74.2471C119.618 73.0257 119.924 72.0755 120.534 71.3965C121.145 70.7129 121.993 70.3711 123.077 70.3711C124.125 70.3711 124.957 70.7197 125.572 71.417C126.192 72.1143 126.502 73.0576 126.502 74.2471ZM120.794 74.2471C120.794 75.2041 120.985 75.9333 121.368 76.4346C121.751 76.9359 122.314 77.1865 123.057 77.1865C123.799 77.1865 124.362 76.9382 124.745 76.4414C125.132 75.9401 125.326 75.2087 125.326 74.2471C125.326 73.2946 125.132 72.5723 124.745 72.0801C124.362 71.5833 123.795 71.335 123.043 71.335C122.3 71.335 121.74 71.5788 121.361 72.0664C120.983 72.554 120.794 73.2809 120.794 74.2471ZM138.048 78V73.126C138.048 72.529 137.92 72.0824 137.665 71.7861C137.41 71.4854 137.013 71.335 136.476 71.335C135.769 71.335 135.247 71.5378 134.91 71.9434C134.573 72.349 134.404 72.9733 134.404 73.8164V78H133.27V73.126C133.27 72.529 133.142 72.0824 132.887 71.7861C132.632 71.4854 132.233 71.335 131.69 71.335C130.979 71.335 130.458 71.5492 130.125 71.9775C129.797 72.4014 129.633 73.0986 129.633 74.0693V78H128.498V70.5078H129.421L129.605 71.5332H129.66C129.874 71.1686 130.175 70.8838 130.562 70.6787C130.954 70.4736 131.392 70.3711 131.875 70.3711C133.046 70.3711 133.812 70.7949 134.172 71.6426H134.227C134.45 71.2507 134.773 70.9408 135.197 70.7129C135.621 70.485 136.104 70.3711 136.646 70.3711C137.494 70.3711 138.128 70.5898 138.547 71.0273C138.971 71.4603 139.183 72.1553 139.183 73.1123V78H138.048ZM145.014 78.1367C144.526 78.1367 144.079 78.0479 143.674 77.8701C143.273 77.6878 142.936 77.4098 142.662 77.0361H142.58C142.635 77.4736 142.662 77.8883 142.662 78.2803V81.3633H141.527V70.5078H142.45L142.607 71.5332H142.662C142.954 71.123 143.293 70.8268 143.681 70.6445C144.068 70.4622 144.512 70.3711 145.014 70.3711C146.007 70.3711 146.773 70.7106 147.311 71.3896C147.853 72.0687 148.124 73.0212 148.124 74.2471C148.124 75.4775 147.848 76.4346 147.297 77.1182C146.75 77.7972 145.989 78.1367 145.014 78.1367ZM144.85 71.335C144.084 71.335 143.53 71.5469 143.188 71.9707C142.847 72.3945 142.671 73.069 142.662 73.9941V74.2471C142.662 75.2998 142.838 76.054 143.188 76.5098C143.539 76.9609 144.102 77.1865 144.877 77.1865C145.524 77.1865 146.03 76.9245 146.395 76.4004C146.764 75.8763 146.948 75.154 146.948 74.2334C146.948 73.2992 146.764 72.5837 146.395 72.0869C146.03 71.5856 145.515 71.335 144.85 71.335ZM151.248 78H150.113V67.3633H151.248V78ZM156.819 78.1367C155.712 78.1367 154.837 77.7995 154.194 77.125C153.556 76.4505 153.237 75.514 153.237 74.3154C153.237 73.1077 153.534 72.1484 154.126 71.4375C154.723 70.7266 155.523 70.3711 156.525 70.3711C157.464 70.3711 158.207 70.681 158.754 71.3008C159.301 71.916 159.574 72.7295 159.574 73.7412V74.459H154.413C154.436 75.3385 154.657 76.0062 155.076 76.4619C155.5 76.9176 156.095 77.1455 156.86 77.1455C157.667 77.1455 158.465 76.9769 159.253 76.6396V77.6514C158.852 77.8245 158.471 77.9476 158.111 78.0205C157.756 78.098 157.325 78.1367 156.819 78.1367ZM156.512 71.3213C155.91 71.3213 155.429 71.5173 155.069 71.9092C154.714 72.3011 154.504 72.8434 154.44 73.5361H158.357C158.357 72.8206 158.198 72.2738 157.879 71.8955C157.56 71.5127 157.104 71.3213 156.512 71.3213ZM163.936 77.2002C164.136 77.2002 164.33 77.1865 164.517 77.1592C164.703 77.1273 164.852 77.0954 164.961 77.0635V77.9316C164.838 77.9909 164.656 78.0387 164.414 78.0752C164.177 78.1162 163.963 78.1367 163.771 78.1367C162.322 78.1367 161.598 77.3734 161.598 75.8467V71.3896H160.524V70.8428L161.598 70.3711L162.076 68.7715H162.732V70.5078H164.906V71.3896H162.732V75.7988C162.732 76.25 162.84 76.5964 163.054 76.8379C163.268 77.0794 163.562 77.2002 163.936 77.2002ZM169.63 78.1367C168.522 78.1367 167.647 77.7995 167.005 77.125C166.367 76.4505 166.048 75.514 166.048 74.3154C166.048 73.1077 166.344 72.1484 166.937 71.4375C167.534 70.7266 168.333 70.3711 169.336 70.3711C170.275 70.3711 171.018 70.681 171.564 71.3008C172.111 71.916 172.385 72.7295 172.385 73.7412V74.459H167.224C167.246 75.3385 167.467 76.0062 167.887 76.4619C168.311 76.9176 168.905 77.1455 169.671 77.1455C170.478 77.1455 171.275 76.9769 172.063 76.6396V77.6514C171.662 77.8245 171.282 77.9476 170.922 78.0205C170.566 78.098 170.136 78.1367 169.63 78.1367ZM169.322 71.3213C168.721 71.3213 168.24 71.5173 167.88 71.9092C167.524 72.3011 167.315 72.8434 167.251 73.5361H171.168C171.168 72.8206 171.008 72.2738 170.689 71.8955C170.37 71.5127 169.915 71.3213 169.322 71.3213ZM179.426 76.9951H179.364C178.84 77.7562 178.056 78.1367 177.013 78.1367C176.033 78.1367 175.27 77.8018 174.723 77.1318C174.18 76.4619 173.909 75.5094 173.909 74.2744C173.909 73.0394 174.183 72.0801 174.729 71.3965C175.276 70.7129 176.037 70.3711 177.013 70.3711C178.029 70.3711 178.808 70.7402 179.351 71.4785H179.439L179.392 70.9385L179.364 70.4121V67.3633H180.499V78H179.576L179.426 76.9951ZM177.156 77.1865C177.931 77.1865 178.492 76.9769 178.838 76.5576C179.189 76.1338 179.364 75.4525 179.364 74.5137V74.2744C179.364 73.2126 179.187 72.4561 178.831 72.0049C178.48 71.5492 177.917 71.3213 177.143 71.3213C176.477 71.3213 175.967 71.5811 175.611 72.1006C175.26 72.6156 175.085 73.3447 175.085 74.2881C175.085 75.2451 175.26 75.9674 175.611 76.4551C175.962 76.9427 176.477 77.1865 177.156 77.1865ZM193.002 78L191.758 74.8213H187.752L186.521 78H185.346L189.297 67.9648H190.274L194.205 78H193.002ZM191.396 73.7754L190.233 70.6787C190.083 70.2868 189.928 69.806 189.769 69.2363C189.668 69.6738 189.525 70.1546 189.338 70.6787L188.162 73.7754H191.396ZM198.895 78.1367C198.407 78.1367 197.96 78.0479 197.555 77.8701C197.154 77.6878 196.816 77.4098 196.543 77.0361H196.461C196.516 77.4736 196.543 77.8883 196.543 78.2803V81.3633H195.408V70.5078H196.331L196.488 71.5332H196.543C196.835 71.123 197.174 70.8268 197.562 70.6445C197.949 70.4622 198.393 70.3711 198.895 70.3711C199.888 70.3711 200.654 70.7106 201.191 71.3896C201.734 72.0687 202.005 73.0212 202.005 74.2471C202.005 75.4775 201.729 76.4346 201.178 77.1182C200.631 77.7972 199.87 78.1367 198.895 78.1367ZM198.73 71.335C197.965 71.335 197.411 71.5469 197.069 71.9707C196.728 72.3945 196.552 73.069 196.543 73.9941V74.2471C196.543 75.2998 196.718 76.054 197.069 76.5098C197.42 76.9609 197.983 77.1865 198.758 77.1865C199.405 77.1865 199.911 76.9245 200.275 76.4004C200.645 75.8763 200.829 75.154 200.829 74.2334C200.829 73.2992 200.645 72.5837 200.275 72.0869C199.911 71.5856 199.396 71.335 198.73 71.335ZM207.412 70.3711C207.745 70.3711 208.043 70.3984 208.308 70.4531L208.15 71.5059C207.84 71.4375 207.567 71.4033 207.33 71.4033C206.724 71.4033 206.204 71.6494 205.771 72.1416C205.343 72.6338 205.129 73.2467 205.129 73.9805V78H203.994V70.5078H204.931L205.061 71.8955H205.115C205.393 71.4079 205.728 71.0319 206.12 70.7676C206.512 70.5033 206.943 70.3711 207.412 70.3711ZM216.135 67.8623C217.046 67.8623 217.769 68.0742 218.302 68.498C218.835 68.9219 219.102 69.5075 219.102 70.2549C219.102 70.7471 218.949 71.196 218.644 71.6016C218.338 72.0072 217.851 72.3763 217.181 72.709C217.992 73.0964 218.568 73.5042 218.91 73.9326C219.252 74.3564 219.423 74.8486 219.423 75.4092C219.423 76.2386 219.133 76.9017 218.555 77.3984C217.976 77.8906 217.183 78.1367 216.176 78.1367C215.109 78.1367 214.289 77.9043 213.715 77.4395C213.141 76.9701 212.854 76.307 212.854 75.4502C212.854 74.3063 213.551 73.4154 214.945 72.7773C214.316 72.4219 213.865 72.0391 213.592 71.6289C213.318 71.2142 213.182 70.7516 213.182 70.2412C213.182 69.5166 213.448 68.9401 213.981 68.5117C214.519 68.0788 215.237 67.8623 216.135 67.8623ZM213.975 75.4775C213.975 76.0244 214.164 76.4505 214.542 76.7559C214.925 77.0612 215.46 77.2139 216.148 77.2139C216.827 77.2139 217.356 77.0544 217.734 76.7354C218.113 76.4163 218.302 75.9788 218.302 75.4229C218.302 74.9808 218.124 74.5889 217.769 74.2471C217.413 73.9007 216.793 73.5658 215.909 73.2422C215.23 73.5339 214.738 73.8574 214.433 74.2129C214.127 74.5638 213.975 74.9854 213.975 75.4775ZM216.121 68.7852C215.551 68.7852 215.105 68.9219 214.781 69.1953C214.458 69.4688 214.296 69.8333 214.296 70.2891C214.296 70.7083 214.43 71.0684 214.699 71.3691C214.968 71.6699 215.465 71.9707 216.189 72.2715C216.841 71.998 217.301 71.7041 217.57 71.3896C217.844 71.0752 217.98 70.7083 217.98 70.2891C217.98 69.8288 217.814 69.4642 217.481 69.1953C217.153 68.9219 216.7 68.7852 216.121 68.7852ZM222.547 76.373L222.649 76.5303C222.531 76.986 222.36 77.5146 222.137 78.1162C221.913 78.7223 221.681 79.2852 221.439 79.8047H220.585C220.708 79.3307 220.842 78.7451 220.988 78.0479C221.139 77.3506 221.243 76.7923 221.303 76.373H222.547ZM234.476 78H227.906V77.0225L230.538 74.377C231.34 73.5658 231.869 72.987 232.124 72.6406C232.379 72.2943 232.571 71.957 232.698 71.6289C232.826 71.3008 232.89 70.9476 232.89 70.5693C232.89 70.0361 232.728 69.6146 232.404 69.3047C232.081 68.9902 231.632 68.833 231.058 68.833C230.643 68.833 230.249 68.9014 229.875 69.0381C229.506 69.1748 229.093 69.4232 228.638 69.7832L228.036 69.0107C228.957 68.2451 229.959 67.8623 231.044 67.8623C231.983 67.8623 232.719 68.1038 233.252 68.5869C233.785 69.0654 234.052 69.7103 234.052 70.5215C234.052 71.1549 233.874 71.7816 233.519 72.4014C233.163 73.0212 232.498 73.805 231.522 74.7529L229.335 76.8926V76.9473H234.476V78ZM236.273 77.2754C236.273 76.9701 236.342 76.7399 236.479 76.585C236.62 76.4255 236.82 76.3457 237.08 76.3457C237.344 76.3457 237.549 76.4255 237.695 76.585C237.846 76.7399 237.921 76.9701 237.921 77.2754C237.921 77.5716 237.846 77.7995 237.695 77.959C237.545 78.1185 237.34 78.1982 237.08 78.1982C236.848 78.1982 236.654 78.1276 236.499 77.9863C236.349 77.8405 236.273 77.6035 236.273 77.2754ZM236.273 71.2393C236.273 70.624 236.542 70.3164 237.08 70.3164C237.641 70.3164 237.921 70.624 237.921 71.2393C237.921 71.5355 237.846 71.7633 237.695 71.9229C237.545 72.0824 237.34 72.1621 237.08 72.1621C236.848 72.1621 236.654 72.0915 236.499 71.9502C236.349 71.8044 236.273 71.5674 236.273 71.2393ZM245.844 70.3574C245.844 70.9954 245.664 71.5173 245.304 71.9229C244.948 72.3285 244.442 72.5996 243.786 72.7363V72.791C244.588 72.8913 245.183 73.1465 245.57 73.5566C245.958 73.9668 246.151 74.5046 246.151 75.1699C246.151 76.1224 245.821 76.8561 245.16 77.3711C244.499 77.8815 243.561 78.1367 242.344 78.1367C241.815 78.1367 241.33 78.0957 240.888 78.0137C240.45 77.9362 240.024 77.7972 239.609 77.5967V76.5166C240.042 76.7308 240.503 76.8949 240.99 77.0088C241.482 77.1182 241.947 77.1729 242.385 77.1729C244.112 77.1729 244.976 76.4961 244.976 75.1426C244.976 73.9303 244.023 73.3242 242.118 73.3242H241.134V72.3467H242.132C242.911 72.3467 243.529 72.1758 243.984 71.834C244.44 71.4876 244.668 71.0091 244.668 70.3984C244.668 69.9108 244.499 69.528 244.162 69.25C243.829 68.972 243.376 68.833 242.802 68.833C242.364 68.833 241.952 68.8923 241.564 69.0107C241.177 69.1292 240.735 69.348 240.238 69.667L239.664 68.9014C240.074 68.5778 240.546 68.3249 241.079 68.1426C241.617 67.9557 242.182 67.8623 242.774 67.8623C243.745 67.8623 244.499 68.0856 245.037 68.5322C245.575 68.9743 245.844 69.5827 245.844 70.3574ZM250.971 67.8623C251.882 67.8623 252.604 68.0742 253.138 68.498C253.671 68.9219 253.938 69.5075 253.938 70.2549C253.938 70.7471 253.785 71.196 253.479 71.6016C253.174 72.0072 252.687 72.3763 252.017 72.709C252.828 73.0964 253.404 73.5042 253.746 73.9326C254.088 74.3564 254.259 74.8486 254.259 75.4092C254.259 76.2386 253.969 76.9017 253.391 77.3984C252.812 77.8906 252.019 78.1367 251.012 78.1367C249.945 78.1367 249.125 77.9043 248.551 77.4395C247.977 76.9701 247.689 76.307 247.689 75.4502C247.689 74.3063 248.387 73.4154 249.781 72.7773C249.152 72.4219 248.701 72.0391 248.428 71.6289C248.154 71.2142 248.018 70.7516 248.018 70.2412C248.018 69.5166 248.284 68.9401 248.817 68.5117C249.355 68.0788 250.073 67.8623 250.971 67.8623ZM248.811 75.4775C248.811 76.0244 249 76.4505 249.378 76.7559C249.761 77.0612 250.296 77.2139 250.984 77.2139C251.663 77.2139 252.192 77.0544 252.57 76.7354C252.949 76.4163 253.138 75.9788 253.138 75.4229C253.138 74.9808 252.96 74.5889 252.604 74.2471C252.249 73.9007 251.629 73.5658 250.745 73.2422C250.066 73.5339 249.574 73.8574 249.269 74.2129C248.963 74.5638 248.811 74.9854 248.811 75.4775ZM250.957 68.7852C250.387 68.7852 249.941 68.9219 249.617 69.1953C249.294 69.4688 249.132 69.8333 249.132 70.2891C249.132 70.7083 249.266 71.0684 249.535 71.3691C249.804 71.6699 250.301 71.9707 251.025 72.2715C251.677 71.998 252.137 71.7041 252.406 71.3896C252.68 71.0752 252.816 70.7083 252.816 70.2891C252.816 69.8288 252.65 69.4642 252.317 69.1953C251.989 68.9219 251.536 68.7852 250.957 68.7852ZM259.68 78.1367C259.192 78.1367 258.745 78.0479 258.34 77.8701C257.939 77.6878 257.602 77.4098 257.328 77.0361H257.246C257.301 77.4736 257.328 77.8883 257.328 78.2803V81.3633H256.193V70.5078H257.116L257.273 71.5332H257.328C257.62 71.123 257.959 70.8268 258.347 70.6445C258.734 70.4622 259.178 70.3711 259.68 70.3711C260.673 70.3711 261.439 70.7106 261.977 71.3896C262.519 72.0687 262.79 73.0212 262.79 74.2471C262.79 75.4775 262.514 76.4346 261.963 77.1182C261.416 77.7972 260.655 78.1367 259.68 78.1367ZM259.516 71.335C258.75 71.335 258.196 71.5469 257.854 71.9707C257.513 72.3945 257.337 73.069 257.328 73.9941V74.2471C257.328 75.2998 257.504 76.054 257.854 76.5098C258.205 76.9609 258.768 77.1865 259.543 77.1865C260.19 77.1865 260.696 76.9245 261.061 76.4004C261.43 75.8763 261.614 75.154 261.614 74.2334C261.614 73.2992 261.43 72.5837 261.061 72.0869C260.696 71.5856 260.181 71.335 259.516 71.335ZM274.329 78V73.126C274.329 72.529 274.201 72.0824 273.946 71.7861C273.691 71.4854 273.295 71.335 272.757 71.335C272.05 71.335 271.529 71.5378 271.191 71.9434C270.854 72.349 270.686 72.9733 270.686 73.8164V78H269.551V73.126C269.551 72.529 269.423 72.0824 269.168 71.7861C268.913 71.4854 268.514 71.335 267.972 71.335C267.261 71.335 266.739 71.5492 266.406 71.9775C266.078 72.4014 265.914 73.0986 265.914 74.0693V78H264.779V70.5078H265.702L265.887 71.5332H265.941C266.156 71.1686 266.456 70.8838 266.844 70.6787C267.236 70.4736 267.673 70.3711 268.156 70.3711C269.327 70.3711 270.093 70.7949 270.453 71.6426H270.508C270.731 71.2507 271.055 70.9408 271.479 70.7129C271.902 70.485 272.385 70.3711 272.928 70.3711C273.775 70.3711 274.409 70.5898 274.828 71.0273C275.252 71.4603 275.464 72.1553 275.464 73.1123V78H274.329Z" fill="#222222"/>
<path d="M116.135 50H114.034V38.9521H110.255V37.1504H119.914V38.9521H116.135V50ZM130.224 50H128.149V44.0234C128.149 43.2734 127.997 42.7139 127.692 42.3447C127.394 41.9756 126.916 41.791 126.26 41.791C125.393 41.791 124.754 42.0518 124.344 42.5732C123.939 43.0889 123.737 43.9561 123.737 45.1748V50H121.672V36.3242H123.737V39.7959C123.737 40.3525 123.702 40.9473 123.632 41.5801H123.764C124.045 41.1113 124.435 40.748 124.933 40.4902C125.437 40.2324 126.022 40.1035 126.69 40.1035C129.046 40.1035 130.224 41.29 130.224 43.6631V50ZM135.163 50H133.098V40.2793H135.163V50ZM132.975 37.7041C132.975 37.335 133.074 37.0508 133.273 36.8516C133.479 36.6523 133.769 36.5527 134.144 36.5527C134.507 36.5527 134.788 36.6523 134.987 36.8516C135.192 37.0508 135.295 37.335 135.295 37.7041C135.295 38.0557 135.192 38.334 134.987 38.5391C134.788 38.7383 134.507 38.8379 134.144 38.8379C133.769 38.8379 133.479 38.7383 133.273 38.5391C133.074 38.334 132.975 38.0557 132.975 37.7041ZM144.655 47.2314C144.655 48.1807 144.31 48.9102 143.618 49.4199C142.927 49.9238 141.937 50.1758 140.647 50.1758C139.353 50.1758 138.312 49.9795 137.527 49.5869V47.8027C138.67 48.3301 139.733 48.5938 140.718 48.5938C141.989 48.5938 142.625 48.21 142.625 47.4424C142.625 47.1963 142.555 46.9912 142.414 46.8271C142.273 46.6631 142.042 46.4932 141.72 46.3174C141.397 46.1416 140.949 45.9424 140.375 45.7197C139.256 45.2861 138.497 44.8525 138.099 44.4189C137.706 43.9854 137.51 43.4229 137.51 42.7314C137.51 41.8994 137.844 41.2549 138.512 40.7979C139.186 40.335 140.1 40.1035 141.254 40.1035C142.396 40.1035 143.478 40.335 144.497 40.7979L143.829 42.3535C142.78 41.9199 141.898 41.7031 141.184 41.7031C140.094 41.7031 139.549 42.0137 139.549 42.6348C139.549 42.9395 139.689 43.1973 139.971 43.4082C140.258 43.6191 140.879 43.9092 141.834 44.2783C142.637 44.5889 143.22 44.873 143.583 45.1309C143.946 45.3887 144.216 45.6875 144.392 46.0273C144.567 46.3613 144.655 46.7627 144.655 47.2314ZM153.638 50H151.572V40.2793H153.638V50ZM151.449 37.7041C151.449 37.335 151.549 37.0508 151.748 36.8516C151.953 36.6523 152.243 36.5527 152.618 36.5527C152.981 36.5527 153.263 36.6523 153.462 36.8516C153.667 37.0508 153.77 37.335 153.77 37.7041C153.77 38.0557 153.667 38.334 153.462 38.5391C153.263 38.7383 152.981 38.8379 152.618 38.8379C152.243 38.8379 151.953 38.7383 151.748 38.5391C151.549 38.334 151.449 38.0557 151.449 37.7041ZM163.13 47.2314C163.13 48.1807 162.784 48.9102 162.093 49.4199C161.401 49.9238 160.411 50.1758 159.122 50.1758C157.827 50.1758 156.787 49.9795 156.002 49.5869V47.8027C157.145 48.3301 158.208 48.5938 159.192 48.5938C160.464 48.5938 161.1 48.21 161.1 47.4424C161.1 47.1963 161.029 46.9912 160.889 46.8271C160.748 46.6631 160.517 46.4932 160.194 46.3174C159.872 46.1416 159.424 45.9424 158.85 45.7197C157.73 45.2861 156.972 44.8525 156.573 44.4189C156.181 43.9854 155.984 43.4229 155.984 42.7314C155.984 41.8994 156.318 41.2549 156.986 40.7979C157.66 40.335 158.574 40.1035 159.729 40.1035C160.871 40.1035 161.952 40.335 162.972 40.7979L162.304 42.3535C161.255 41.9199 160.373 41.7031 159.658 41.7031C158.568 41.7031 158.023 42.0137 158.023 42.6348C158.023 42.9395 158.164 43.1973 158.445 43.4082C158.732 43.6191 159.354 43.9092 160.309 44.2783C161.111 44.5889 161.694 44.873 162.058 45.1309C162.421 45.3887 162.69 45.6875 162.866 46.0273C163.042 46.3613 163.13 46.7627 163.13 47.2314ZM176.129 50L175.716 48.6465H175.646C175.177 49.2383 174.705 49.6426 174.23 49.8594C173.756 50.0703 173.146 50.1758 172.402 50.1758C171.447 50.1758 170.7 49.918 170.161 49.4023C169.628 48.8867 169.361 48.1572 169.361 47.2139C169.361 46.2119 169.733 45.4561 170.478 44.9463C171.222 44.4365 172.355 44.1582 173.879 44.1113L175.558 44.0586V43.54C175.558 42.9189 175.411 42.4561 175.118 42.1514C174.831 41.8408 174.383 41.6855 173.773 41.6855C173.275 41.6855 172.798 41.7588 172.341 41.9053C171.884 42.0518 171.444 42.2246 171.022 42.4238L170.354 40.9473C170.882 40.6719 171.459 40.4639 172.086 40.3232C172.713 40.1768 173.305 40.1035 173.861 40.1035C175.098 40.1035 176.029 40.373 176.656 40.9121C177.289 41.4512 177.605 42.2979 177.605 43.4521V50H176.129ZM173.053 48.5938C173.803 48.5938 174.403 48.3857 174.854 47.9697C175.312 47.5479 175.54 46.959 175.54 46.2031V45.3594L174.292 45.4121C173.319 45.4473 172.61 45.6113 172.165 45.9043C171.726 46.1914 171.506 46.6338 171.506 47.2314C171.506 47.665 171.635 48.002 171.893 48.2422C172.15 48.4766 172.537 48.5938 173.053 48.5938ZM196.089 50H193.514L187.194 39.7607H187.124L187.168 40.332C187.25 41.4219 187.291 42.418 187.291 43.3203V50H185.384V37.1504H187.933L194.234 47.3369H194.287C194.275 47.2021 194.252 46.7129 194.217 45.8691C194.182 45.0195 194.164 44.3574 194.164 43.8828V37.1504H196.089V50ZM207.884 45.1221C207.884 46.71 207.477 47.9492 206.662 48.8398C205.848 49.7305 204.714 50.1758 203.261 50.1758C202.353 50.1758 201.55 49.9707 200.853 49.5605C200.155 49.1504 199.619 48.5615 199.244 47.7939C198.869 47.0264 198.682 46.1357 198.682 45.1221C198.682 43.5459 199.086 42.3154 199.895 41.4307C200.703 40.5459 201.843 40.1035 203.313 40.1035C204.72 40.1035 205.833 40.5576 206.653 41.4658C207.474 42.3682 207.884 43.5869 207.884 45.1221ZM200.809 45.1221C200.809 47.3662 201.638 48.4883 203.296 48.4883C204.937 48.4883 205.757 47.3662 205.757 45.1221C205.757 42.9014 204.931 41.791 203.278 41.791C202.411 41.791 201.781 42.0781 201.389 42.6523C201.002 43.2266 200.809 44.0498 200.809 45.1221ZM213.887 48.5059C214.391 48.5059 214.895 48.4268 215.398 48.2686V49.8242C215.17 49.9238 214.874 50.0059 214.511 50.0703C214.153 50.1406 213.781 50.1758 213.395 50.1758C211.438 50.1758 210.459 49.1445 210.459 47.082V41.8438H209.132V40.9297L210.556 40.1738L211.259 38.1172H212.533V40.2793H215.302V41.8438H212.533V47.0469C212.533 47.5449 212.656 47.9141 212.902 48.1543C213.154 48.3887 213.482 48.5059 213.887 48.5059ZM223.432 50L223.019 48.6465H222.948C222.479 49.2383 222.008 49.6426 221.533 49.8594C221.059 50.0703 220.449 50.1758 219.705 50.1758C218.75 50.1758 218.003 49.918 217.464 49.4023C216.931 48.8867 216.664 48.1572 216.664 47.2139C216.664 46.2119 217.036 45.4561 217.78 44.9463C218.524 44.4365 219.658 44.1582 221.182 44.1113L222.86 44.0586V43.54C222.86 42.9189 222.714 42.4561 222.421 42.1514C222.134 41.8408 221.686 41.6855 221.076 41.6855C220.578 41.6855 220.101 41.7588 219.644 41.9053C219.187 42.0518 218.747 42.2246 218.325 42.4238L217.657 40.9473C218.185 40.6719 218.762 40.4639 219.389 40.3232C220.016 40.1768 220.607 40.1035 221.164 40.1035C222.4 40.1035 223.332 40.373 223.959 40.9121C224.592 41.4512 224.908 42.2979 224.908 43.4521V50H223.432ZM220.355 48.5938C221.105 48.5938 221.706 48.3857 222.157 47.9697C222.614 47.5479 222.843 46.959 222.843 46.2031V45.3594L221.595 45.4121C220.622 45.4473 219.913 45.6113 219.468 45.9043C219.028 46.1914 218.809 46.6338 218.809 47.2314C218.809 47.665 218.938 48.002 219.195 48.2422C219.453 48.4766 219.84 48.5938 220.355 48.5938ZM232.722 40.1035C233.138 40.1035 233.48 40.1328 233.75 40.1914L233.548 42.1162C233.255 42.0459 232.95 42.0107 232.634 42.0107C231.808 42.0107 231.137 42.2803 230.621 42.8193C230.111 43.3584 229.856 44.0586 229.856 44.9199V50H227.791V40.2793H229.408L229.681 41.9932H229.786C230.108 41.4131 230.527 40.9531 231.043 40.6133C231.564 40.2734 232.124 40.1035 232.722 40.1035ZM234.084 40.2793H236.334L238.312 45.79C238.61 46.5752 238.81 47.3135 238.909 48.0049H238.979C239.032 47.6826 239.129 47.293 239.27 46.8359C239.41 46.373 240.154 44.1875 241.502 40.2793H243.734L239.577 51.292C238.821 53.3135 237.562 54.3242 235.798 54.3242C235.341 54.3242 234.896 54.2744 234.462 54.1748V52.54C234.772 52.6104 235.127 52.6455 235.525 52.6455C236.521 52.6455 237.222 52.0684 237.626 50.9141L237.986 50L234.084 40.2793ZM257.516 46.5107C257.516 47.6533 257.103 48.5498 256.276 49.2002C255.45 49.8506 254.311 50.1758 252.857 50.1758C251.404 50.1758 250.215 49.9502 249.289 49.499V47.5127C249.875 47.7881 250.496 48.0049 251.152 48.1631C251.814 48.3213 252.43 48.4004 252.998 48.4004C253.83 48.4004 254.442 48.2422 254.835 47.9258C255.233 47.6094 255.433 47.1846 255.433 46.6514C255.433 46.1709 255.251 45.7637 254.888 45.4297C254.524 45.0957 253.774 44.7002 252.638 44.2432C251.466 43.7686 250.64 43.2266 250.159 42.6172C249.679 42.0078 249.438 41.2754 249.438 40.4199C249.438 39.3477 249.819 38.5039 250.581 37.8887C251.343 37.2734 252.365 36.9658 253.648 36.9658C254.879 36.9658 256.104 37.2354 257.322 37.7744L256.654 39.4883C255.512 39.0078 254.492 38.7676 253.596 38.7676C252.916 38.7676 252.4 38.917 252.049 39.2158C251.697 39.5088 251.521 39.8984 251.521 40.3848C251.521 40.7188 251.592 41.0059 251.732 41.2461C251.873 41.4805 252.104 41.7031 252.427 41.9141C252.749 42.125 253.329 42.4033 254.167 42.749C255.11 43.1416 255.802 43.5078 256.241 43.8477C256.681 44.1875 257.003 44.5713 257.208 44.999C257.413 45.4268 257.516 45.9307 257.516 46.5107ZM263.703 50.1758C262.232 50.1758 261.113 49.748 260.346 48.8926C259.584 48.0312 259.203 46.7979 259.203 45.1924C259.203 43.5576 259.602 42.3008 260.398 41.4219C261.201 40.543 262.358 40.1035 263.87 40.1035C264.896 40.1035 265.818 40.2939 266.639 40.6748L266.015 42.3359C265.142 41.9961 264.421 41.8262 263.853 41.8262C262.171 41.8262 261.33 42.9424 261.33 45.1748C261.33 46.2646 261.538 47.085 261.954 47.6357C262.376 48.1807 262.991 48.4531 263.8 48.4531C264.72 48.4531 265.59 48.2246 266.41 47.7676V49.5693C266.041 49.7861 265.646 49.9414 265.224 50.0352C264.808 50.1289 264.301 50.1758 263.703 50.1758ZM277.247 50H275.173V44.0234C275.173 43.2734 275.021 42.7139 274.716 42.3447C274.417 41.9756 273.939 41.791 273.283 41.791C272.416 41.791 271.777 42.0518 271.367 42.5732C270.963 43.0889 270.761 43.9561 270.761 45.1748V50H268.695V36.3242H270.761V39.7959C270.761 40.3525 270.726 40.9473 270.655 41.5801H270.787C271.068 41.1113 271.458 40.748 271.956 40.4902C272.46 40.2324 273.046 40.1035 273.714 40.1035C276.069 40.1035 277.247 41.29 277.247 43.6631V50ZM284.366 50.1758C282.854 50.1758 281.671 49.7363 280.815 48.8574C279.966 47.9727 279.541 46.7568 279.541 45.21C279.541 43.6221 279.937 42.374 280.728 41.4658C281.519 40.5576 282.605 40.1035 283.988 40.1035C285.271 40.1035 286.285 40.4932 287.029 41.2725C287.773 42.0518 288.146 43.124 288.146 44.4893V45.6055H281.668C281.697 46.5488 281.952 47.2754 282.433 47.7852C282.913 48.2891 283.59 48.541 284.463 48.541C285.037 48.541 285.57 48.4883 286.062 48.3828C286.561 48.2715 287.094 48.0898 287.662 47.8379V49.5166C287.158 49.7568 286.648 49.9268 286.133 50.0264C285.617 50.126 285.028 50.1758 284.366 50.1758ZM283.988 41.668C283.332 41.668 282.805 41.876 282.406 42.292C282.014 42.708 281.779 43.3145 281.703 44.1113H286.115C286.104 43.3086 285.91 42.7021 285.535 42.292C285.16 41.876 284.645 41.668 283.988 41.668ZM293.771 50.1758C292.558 50.1758 291.611 49.7363 290.932 48.8574C290.252 47.9785 289.912 46.7451 289.912 45.1572C289.912 43.5635 290.255 42.3242 290.94 41.4395C291.632 40.5488 292.587 40.1035 293.806 40.1035C295.083 40.1035 296.056 40.5752 296.724 41.5186H296.829C296.729 40.8213 296.68 40.2705 296.68 39.8662V36.3242H298.754V50H297.137L296.776 48.7256H296.68C296.018 49.6924 295.048 50.1758 293.771 50.1758ZM294.324 48.5059C295.174 48.5059 295.792 48.2686 296.179 47.7939C296.565 47.3135 296.765 46.5371 296.776 45.4648V45.1748C296.776 43.9502 296.577 43.0801 296.179 42.5645C295.78 42.0488 295.156 41.791 294.307 41.791C293.58 41.791 293.021 42.0869 292.628 42.6787C292.235 43.2646 292.039 44.1025 292.039 45.1924C292.039 46.2705 292.229 47.0938 292.61 47.6621C292.991 48.2246 293.562 48.5059 294.324 48.5059ZM308.562 50L308.272 48.7256H308.167C307.88 49.1768 307.47 49.5312 306.937 49.7891C306.409 50.0469 305.806 50.1758 305.126 50.1758C303.948 50.1758 303.069 49.8828 302.489 49.2969C301.909 48.7109 301.619 47.8232 301.619 46.6338V40.2793H303.702V46.2734C303.702 47.0176 303.854 47.5771 304.159 47.9521C304.464 48.3213 304.941 48.5059 305.592 48.5059C306.459 48.5059 307.095 48.248 307.499 47.7324C307.909 47.2109 308.114 46.3408 308.114 45.1221V40.2793H310.188V50H308.562ZM315.198 50H313.133V36.3242H315.198V50ZM322.405 50.1758C320.894 50.1758 319.71 49.7363 318.854 48.8574C318.005 47.9727 317.58 46.7568 317.58 45.21C317.58 43.6221 317.976 42.374 318.767 41.4658C319.558 40.5576 320.645 40.1035 322.027 40.1035C323.311 40.1035 324.324 40.4932 325.068 41.2725C325.812 42.0518 326.185 43.124 326.185 44.4893V45.6055H319.707C319.736 46.5488 319.991 47.2754 320.472 47.7852C320.952 48.2891 321.629 48.541 322.502 48.541C323.076 48.541 323.609 48.4883 324.102 48.3828C324.6 48.2715 325.133 48.0898 325.701 47.8379V49.5166C325.197 49.7568 324.688 49.9268 324.172 50.0264C323.656 50.126 323.067 50.1758 322.405 50.1758ZM322.027 41.668C321.371 41.668 320.844 41.876 320.445 42.292C320.053 42.708 319.818 43.3145 319.742 44.1113H324.154C324.143 43.3086 323.949 42.7021 323.574 42.292C323.199 41.876 322.684 41.668 322.027 41.668ZM337.127 50.1758C335.656 50.1758 334.537 49.748 333.77 48.8926C333.008 48.0312 332.627 46.7979 332.627 45.1924C332.627 43.5576 333.025 42.3008 333.822 41.4219C334.625 40.543 335.782 40.1035 337.294 40.1035C338.319 40.1035 339.242 40.2939 340.062 40.6748L339.438 42.3359C338.565 41.9961 337.845 41.8262 337.276 41.8262C335.595 41.8262 334.754 42.9424 334.754 45.1748C334.754 46.2646 334.962 47.085 335.378 47.6357C335.8 48.1807 336.415 48.4531 337.224 48.4531C338.144 48.4531 339.014 48.2246 339.834 47.7676V49.5693C339.465 49.7861 339.069 49.9414 338.647 50.0352C338.231 50.1289 337.725 50.1758 337.127 50.1758ZM348.201 50L347.788 48.6465H347.718C347.249 49.2383 346.777 49.6426 346.303 49.8594C345.828 50.0703 345.219 50.1758 344.475 50.1758C343.52 50.1758 342.772 49.918 342.233 49.4023C341.7 48.8867 341.434 48.1572 341.434 47.2139C341.434 46.2119 341.806 45.4561 342.55 44.9463C343.294 44.4365 344.428 44.1582 345.951 44.1113L347.63 44.0586V43.54C347.63 42.9189 347.483 42.4561 347.19 42.1514C346.903 41.8408 346.455 41.6855 345.846 41.6855C345.348 41.6855 344.87 41.7588 344.413 41.9053C343.956 42.0518 343.517 42.2246 343.095 42.4238L342.427 40.9473C342.954 40.6719 343.531 40.4639 344.158 40.3232C344.785 40.1768 345.377 40.1035 345.934 40.1035C347.17 40.1035 348.102 40.373 348.729 40.9121C349.361 41.4512 349.678 42.2979 349.678 43.4521V50H348.201ZM345.125 48.5938C345.875 48.5938 346.476 48.3857 346.927 47.9697C347.384 47.5479 347.612 46.959 347.612 46.2031V45.3594L346.364 45.4121C345.392 45.4473 344.683 45.6113 344.237 45.9043C343.798 46.1914 343.578 46.6338 343.578 47.2314C343.578 47.665 343.707 48.002 343.965 48.2422C344.223 48.4766 344.609 48.5938 345.125 48.5938ZM357.491 40.1035C357.907 40.1035 358.25 40.1328 358.52 40.1914L358.317 42.1162C358.024 42.0459 357.72 42.0107 357.403 42.0107C356.577 42.0107 355.906 42.2803 355.391 42.8193C354.881 43.3584 354.626 44.0586 354.626 44.9199V50H352.561V40.2793H354.178L354.45 41.9932H354.556C354.878 41.4131 355.297 40.9531 355.812 40.6133C356.334 40.2734 356.894 40.1035 357.491 40.1035ZM363.608 50.1758C362.396 50.1758 361.449 49.7363 360.77 48.8574C360.09 47.9785 359.75 46.7451 359.75 45.1572C359.75 43.5635 360.093 42.3242 360.778 41.4395C361.47 40.5488 362.425 40.1035 363.644 40.1035C364.921 40.1035 365.894 40.5752 366.562 41.5186H366.667C366.567 40.8213 366.518 40.2705 366.518 39.8662V36.3242H368.592V50H366.975L366.614 48.7256H366.518C365.855 49.6924 364.886 50.1758 363.608 50.1758ZM364.162 48.5059C365.012 48.5059 365.63 48.2686 366.017 47.7939C366.403 47.3135 366.603 46.5371 366.614 45.4648V45.1748C366.614 43.9502 366.415 43.0801 366.017 42.5645C365.618 42.0488 364.994 41.791 364.145 41.791C363.418 41.791 362.858 42.0869 362.466 42.6787C362.073 43.2646 361.877 44.1025 361.877 45.1924C361.877 46.2705 362.067 47.0938 362.448 47.6621C362.829 48.2246 363.4 48.5059 364.162 48.5059Z" fill="#222222"/>
<g filter="url(#filter1_i)">
<rect x="30" y="30" width="60" height="60" rx="7.71" fill="#E5F2F7"/>
</g>
<rect x="60.2454" y="70.6909" width="11.5727" height="11.5727" rx="2.31" fill="white"/>
<rect x="60.2454" y="70.6909" width="11.5727" height="11.5727" rx="2.31" stroke="#ED9E00"/>
<rect x="49.4636" y="72.4773" width="8" height="8" rx="2.51" fill="#C2CED7"/>
<rect x="36.8955" y="72.4773" width="8" height="8" rx="2.51" fill="#C2CED7"/>
<rect x="74.6001" y="72.4773" width="8" height="8" rx="2.51" fill="#C2CED7"/>
<rect x="62.0317" y="59.9091" width="8" height="8" rx="2.51" fill="#C2CED7"/>
<rect x="49.4636" y="59.9091" width="8" height="8" rx="2.51" fill="#C2CED7"/>
<rect x="36.8955" y="59.9091" width="8" height="8" rx="2.51" fill="#C2CED7"/>
<rect x="74.6001" y="59.9091" width="8" height="8" rx="2.51" fill="#C2CED7"/>
<rect x="62.0317" y="47.3409" width="8" height="8" rx="2.51" fill="#C2CED7"/>
<rect x="49.4636" y="47.3409" width="8" height="8" rx="2.51" fill="#C2CED7"/>
<rect x="36.8955" y="47.3409" width="8" height="8" rx="2.51" fill="#C2CED7"/>
<rect x="74.6001" y="47.3409" width="8" height="8" rx="2.51" fill="#C2CED7"/>
<path fill-rule="evenodd" clip-rule="evenodd" d="M45.2864 40.6045C47.4955 40.6045 49.2864 38.8137 49.2864 36.6045C49.2864 34.3954 47.4955 32.6045 45.2864 32.6045C43.0772 32.6045 41.2864 34.3954 41.2864 36.6045C41.2864 38.8137 43.0772 40.6045 45.2864 40.6045Z" fill="#383E54"/>
<path fill-rule="evenodd" clip-rule="evenodd" d="M73.7136 40.6045C75.9228 40.6045 77.7136 38.8137 77.7136 36.6045C77.7136 34.3954 75.9228 32.6045 73.7136 32.6045C71.5045 32.6045 69.7136 34.3954 69.7136 36.6045C69.7136 38.8137 71.5045 40.6045 73.7136 40.6045Z" fill="#383E54"/>
<path fill-rule="evenodd" clip-rule="evenodd" d="M44.3181 30H46.3636V36.7091C46.3278 37.2438 45.8836 37.6593 45.3477 37.6593C44.8117 37.6593 44.3675 37.2438 44.3318 36.7091L44.3181 30Z" fill="#00A7B4"/>
<path fill-rule="evenodd" clip-rule="evenodd" d="M72.7273 30H74.7727V36.7091C74.737 37.2438 74.2928 37.6593 73.7568 37.6593C73.2209 37.6593 72.7767 37.2438 72.7409 36.7091L72.7273 30Z" fill="#00A7B4"/>
<path fill-rule="evenodd" clip-rule="evenodd" d="M77.0774 60.9409C74.801 63.1579 72.7361 65.582 70.9092 68.1818C69.2728 70.4545 67.6319 72.7273 66.0001 75C65.8774 75.1773 66.1001 75.5 66.0683 75.7227C65.9415 76.0643 65.7768 76.3905 65.5774 76.6955C65.5774 76.7909 65.3137 77.3545 65.5774 77.5091C65.841 77.6636 66.241 77.4409 66.3319 77.3864C66.6761 77.1673 67.038 76.9772 67.4137 76.8182C67.6546 76.8182 68.0228 76.9545 68.1956 76.8182C70.4683 75.1182 72.741 73.3773 75.0137 71.6727C77.6054 69.7687 80.0143 67.6277 82.2092 65.2773C83.6774 63.6818 85.7137 61.6045 87.2092 60.0409L88.9183 58.4136L84.0365 54.0364C83.1819 54.7591 78.5183 59.5455 77.0774 60.9409Z" fill="#00A7B4"/>
<path fill-rule="evenodd" clip-rule="evenodd" d="M90 46.3636C89.1273 46.8682 81.0318 55.55 80.6318 56.0136C80.3536 56.3499 80.3536 56.8365 80.6318 57.1727L80 57.8182L85.1 62.4318L85.7 61.8545C86.0576 62.2545 86.4712 62.2545 86.9409 61.8545C87.3955 61.45 89.7864 58.7273 90 58.6727" fill="#0084B4"/>
<defs>
<filter id="filter0_d" x="0" y="0" width="582" height="120" filterUnits="userSpaceOnUse" color-interpolation-filters="sRGB">
<feFlood flood-opacity="0" result="BackgroundImageFix"/>
<feColorMatrix in="SourceAlpha" type="matrix" values="0 0 0 0 0 0 0 0 0 0 0 0 0 0 0 0 0 0 127 0"/>
<feOffset/>
<feGaussianBlur stdDeviation="5"/>
<feColorMatrix type="matrix" values="0 0 0 0 0 0 0 0 0 0 0 0 0 0 0 0 0 0 0.1 0"/>
<feBlend mode="normal" in2="BackgroundImageFix" result="effect1_dropShadow"/>
<feBlend mode="normal" in="SourceGraphic" in2="effect1_dropShadow" result="shape"/>
</filter>
<filter id="filter1_i" x="30" y="30" width="60" height="60" filterUnits="userSpaceOnUse" color-interpolation-filters="sRGB">
<feFlood flood-opacity="0" result="BackgroundImageFix"/>
<feBlend mode="normal" in="SourceGraphic" in2="BackgroundImageFix" result="shape"/>
<feColorMatrix in="SourceAlpha" type="matrix" values="0 0 0 0 0 0 0 0 0 0 0 0 0 0 0 0 0 0 127 0" result="hardAlpha"/>
<feOffset/>
<feGaussianBlur stdDeviation="5"/>
<feComposite in2="hardAlpha" operator="arithmetic" k2="-1" k3="1"/>
<feColorMatrix type="matrix" values="0 0 0 0 0.760784 0 0 0 0 0.807843 0 0 0 0 0.843137 0 0 0 0.2 0"/>
<feBlend mode="normal" in2="shape" result="effect1_innerShadow"/>
</filter>
</defs>
</svg>
