<svg width="486" height="298" viewBox="0 0 486 298" fill="none" xmlns="http://www.w3.org/2000/svg">
<g filter="url(#filter0_d)">
<rect x="10" y="10" width="466" height="278" rx="4" fill="white"/>
<rect x="10.5" y="10.5" width="465" height="277" rx="3.5" stroke="#C5C5C5"/>
</g>
<path d="M32.5361 274H31.374V264.006H36.9453V265.038H32.5361V268.695H36.6787V269.728H32.5361V274ZM39.5703 274H38.4355V266.508H39.5703V274ZM38.3398 264.478C38.3398 264.218 38.4036 264.029 38.5312 263.91C38.6589 263.787 38.8184 263.726 39.0098 263.726C39.1921 263.726 39.3493 263.787 39.4814 263.91C39.6136 264.033 39.6797 264.222 39.6797 264.478C39.6797 264.733 39.6136 264.924 39.4814 265.052C39.3493 265.175 39.1921 265.236 39.0098 265.236C38.8184 265.236 38.6589 265.175 38.5312 265.052C38.4036 264.924 38.3398 264.733 38.3398 264.478ZM43.1113 274H41.9766V263.363H43.1113V274ZM48.6826 274.137C47.5752 274.137 46.7002 273.799 46.0576 273.125C45.4196 272.451 45.1006 271.514 45.1006 270.315C45.1006 269.108 45.3968 268.148 45.9893 267.438C46.5863 266.727 47.3861 266.371 48.3887 266.371C49.3275 266.371 50.0703 266.681 50.6172 267.301C51.1641 267.916 51.4375 268.729 51.4375 269.741V270.459H46.2764C46.2992 271.339 46.5202 272.006 46.9395 272.462C47.3633 272.918 47.958 273.146 48.7236 273.146C49.5303 273.146 50.3278 272.977 51.1162 272.64V273.651C50.7152 273.825 50.3346 273.948 49.9746 274.021C49.6191 274.098 49.1885 274.137 48.6826 274.137ZM48.375 267.321C47.7734 267.321 47.2926 267.517 46.9326 267.909C46.5771 268.301 46.3675 268.843 46.3037 269.536H50.2207C50.2207 268.821 50.0612 268.274 49.7422 267.896C49.4232 267.513 48.9674 267.321 48.375 267.321ZM58.8818 267.854L58.4307 270.179H60.3652V271.061H58.2666L57.6924 274H56.7559L57.3301 271.061H55.2588L54.6982 274H53.7686L54.3154 271.061H52.5244V270.179H54.4863L54.9512 267.854H53.0576V266.986H55.1016L55.6621 264.006H56.6123L56.0518 266.986H58.1367L58.7109 264.006H59.627L59.0527 266.986H60.8574V267.854H58.8818ZM55.4229 270.179H57.4941L57.9453 267.854H55.874L55.4229 270.179ZM69.751 274H68.6436V266.877C68.6436 266.285 68.6618 265.724 68.6982 265.195C68.6025 265.291 68.4954 265.391 68.377 265.496C68.2585 265.601 67.7161 266.045 66.75 266.829L66.1484 266.05L68.7939 264.006H69.751V274ZM80.1279 274H73.5586V273.022L76.1904 270.377C76.9925 269.566 77.5212 268.987 77.7764 268.641C78.0316 268.294 78.223 267.957 78.3506 267.629C78.4782 267.301 78.542 266.948 78.542 266.569C78.542 266.036 78.3802 265.615 78.0566 265.305C77.7331 264.99 77.2842 264.833 76.71 264.833C76.2952 264.833 75.901 264.901 75.5273 265.038C75.1582 265.175 74.7458 265.423 74.29 265.783L73.6885 265.011C74.609 264.245 75.6117 263.862 76.6963 263.862C77.6351 263.862 78.3711 264.104 78.9043 264.587C79.4375 265.065 79.7041 265.71 79.7041 266.521C79.7041 267.155 79.5264 267.782 79.1709 268.401C78.8154 269.021 78.1501 269.805 77.1748 270.753L74.9873 272.893V272.947H80.1279V274ZM87.7637 266.357C87.7637 266.995 87.5837 267.517 87.2236 267.923C86.8682 268.328 86.3623 268.6 85.7061 268.736V268.791C86.5081 268.891 87.1029 269.146 87.4902 269.557C87.8776 269.967 88.0713 270.505 88.0713 271.17C88.0713 272.122 87.7409 272.856 87.0801 273.371C86.4193 273.882 85.4805 274.137 84.2637 274.137C83.735 274.137 83.2497 274.096 82.8076 274.014C82.3701 273.936 81.944 273.797 81.5293 273.597V272.517C81.9622 272.731 82.4225 272.895 82.9102 273.009C83.4023 273.118 83.8672 273.173 84.3047 273.173C86.0319 273.173 86.8955 272.496 86.8955 271.143C86.8955 269.93 85.943 269.324 84.0381 269.324H83.0537V268.347H84.0518C84.8311 268.347 85.4486 268.176 85.9043 267.834C86.36 267.488 86.5879 267.009 86.5879 266.398C86.5879 265.911 86.4193 265.528 86.082 265.25C85.7493 264.972 85.2959 264.833 84.7217 264.833C84.2842 264.833 83.8717 264.892 83.4844 265.011C83.097 265.129 82.6549 265.348 82.1582 265.667L81.584 264.901C81.9941 264.578 82.4658 264.325 82.999 264.143C83.5368 263.956 84.1019 263.862 84.6943 263.862C85.665 263.862 86.4193 264.086 86.957 264.532C87.4948 264.974 87.7637 265.583 87.7637 266.357ZM96.623 271.703H95.1396V274H94.0527V271.703H89.1924V270.712L93.9365 263.951H95.1396V270.671H96.623V271.703ZM94.0527 270.671V267.349C94.0527 266.697 94.0755 265.961 94.1211 265.141H94.0664C93.8477 265.578 93.6426 265.94 93.4512 266.228L90.3271 270.671H94.0527ZM100.718 267.896C101.771 267.896 102.598 268.158 103.199 268.682C103.805 269.201 104.108 269.914 104.108 270.821C104.108 271.856 103.778 272.667 103.117 273.255C102.461 273.843 101.554 274.137 100.396 274.137C99.2708 274.137 98.4118 273.957 97.8193 273.597V272.503C98.1383 272.708 98.5348 272.87 99.0088 272.988C99.4827 273.102 99.9499 273.159 100.41 273.159C101.212 273.159 101.834 272.97 102.276 272.592C102.723 272.214 102.946 271.667 102.946 270.951C102.946 269.557 102.092 268.859 100.383 268.859C99.9499 268.859 99.3711 268.925 98.6465 269.058L98.0586 268.682L98.4346 264.006H103.404V265.052H99.4053L99.1523 268.053C99.6764 267.948 100.198 267.896 100.718 267.896ZM105.722 269.728C105.722 267.763 106.102 266.296 106.863 265.325C107.629 264.35 108.759 263.862 110.254 263.862C110.769 263.862 111.174 263.906 111.471 263.992V264.97C111.12 264.856 110.719 264.799 110.268 264.799C109.197 264.799 108.379 265.134 107.813 265.804C107.248 266.469 106.938 267.517 106.884 268.948H106.966C107.467 268.164 108.26 267.772 109.345 267.772C110.243 267.772 110.949 268.044 111.464 268.586C111.983 269.128 112.243 269.864 112.243 270.794C112.243 271.833 111.958 272.651 111.389 273.248C110.824 273.84 110.058 274.137 109.092 274.137C108.057 274.137 107.237 273.749 106.631 272.975C106.025 272.195 105.722 271.113 105.722 269.728ZM109.078 273.173C109.725 273.173 110.227 272.97 110.582 272.564C110.942 272.154 111.122 271.564 111.122 270.794C111.122 270.133 110.956 269.614 110.623 269.235C110.29 268.857 109.794 268.668 109.133 268.668C108.723 268.668 108.347 268.752 108.005 268.921C107.663 269.09 107.39 269.322 107.185 269.618C106.984 269.914 106.884 270.222 106.884 270.541C106.884 271.01 106.975 271.448 107.157 271.854C107.34 272.259 107.597 272.58 107.93 272.817C108.267 273.054 108.65 273.173 109.078 273.173ZM114.882 274L119.024 265.052H113.576V264.006H120.228V264.915L116.14 274H114.882ZM124.938 263.862C125.849 263.862 126.571 264.074 127.104 264.498C127.638 264.922 127.904 265.507 127.904 266.255C127.904 266.747 127.752 267.196 127.446 267.602C127.141 268.007 126.653 268.376 125.983 268.709C126.795 269.096 127.371 269.504 127.713 269.933C128.055 270.356 128.226 270.849 128.226 271.409C128.226 272.239 127.936 272.902 127.357 273.398C126.779 273.891 125.986 274.137 124.979 274.137C123.912 274.137 123.092 273.904 122.518 273.439C121.943 272.97 121.656 272.307 121.656 271.45C121.656 270.306 122.354 269.415 123.748 268.777C123.119 268.422 122.668 268.039 122.395 267.629C122.121 267.214 121.984 266.752 121.984 266.241C121.984 265.517 122.251 264.94 122.784 264.512C123.322 264.079 124.04 263.862 124.938 263.862ZM122.777 271.478C122.777 272.024 122.966 272.451 123.345 272.756C123.728 273.061 124.263 273.214 124.951 273.214C125.63 273.214 126.159 273.054 126.537 272.735C126.915 272.416 127.104 271.979 127.104 271.423C127.104 270.981 126.927 270.589 126.571 270.247C126.216 269.901 125.596 269.566 124.712 269.242C124.033 269.534 123.541 269.857 123.235 270.213C122.93 270.564 122.777 270.985 122.777 271.478ZM124.924 264.785C124.354 264.785 123.908 264.922 123.584 265.195C123.26 265.469 123.099 265.833 123.099 266.289C123.099 266.708 123.233 267.068 123.502 267.369C123.771 267.67 124.268 267.971 124.992 268.271C125.644 267.998 126.104 267.704 126.373 267.39C126.646 267.075 126.783 266.708 126.783 266.289C126.783 265.829 126.617 265.464 126.284 265.195C125.956 264.922 125.503 264.785 124.924 264.785ZM136.21 268.271C136.21 272.182 134.697 274.137 131.671 274.137C131.142 274.137 130.723 274.091 130.413 274V273.022C130.778 273.141 131.192 273.2 131.657 273.2C132.751 273.2 133.576 272.863 134.132 272.188C134.692 271.509 134.998 270.47 135.048 269.071H134.966C134.715 269.45 134.382 269.739 133.968 269.939C133.553 270.135 133.086 270.233 132.566 270.233C131.682 270.233 130.98 269.969 130.461 269.44C129.941 268.912 129.682 268.174 129.682 267.226C129.682 266.187 129.971 265.366 130.55 264.765C131.133 264.163 131.899 263.862 132.847 263.862C133.526 263.862 134.118 264.038 134.624 264.389C135.134 264.735 135.526 265.243 135.8 265.913C136.073 266.578 136.21 267.365 136.21 268.271ZM132.847 264.833C132.195 264.833 131.691 265.043 131.336 265.462C130.98 265.881 130.803 266.465 130.803 267.212C130.803 267.868 130.967 268.385 131.295 268.764C131.623 269.137 132.122 269.324 132.792 269.324C133.207 269.324 133.587 269.24 133.934 269.071C134.285 268.903 134.56 268.673 134.761 268.381C134.961 268.089 135.062 267.784 135.062 267.465C135.062 266.986 134.968 266.544 134.781 266.139C134.594 265.733 134.332 265.414 133.995 265.182C133.662 264.949 133.28 264.833 132.847 264.833Z" fill="#222222"/>
<path d="M40.0488 248.989C40.0488 250.589 39.6432 251.847 38.832 252.763C38.0254 253.679 36.902 254.137 35.4619 254.137C33.9899 254.137 32.8529 253.688 32.0508 252.79C31.2533 251.888 30.8545 250.616 30.8545 248.976C30.8545 247.349 31.2555 246.089 32.0576 245.195C32.8597 244.298 33.999 243.849 35.4756 243.849C36.9111 243.849 38.0322 244.304 38.8389 245.216C39.6455 246.127 40.0488 247.385 40.0488 248.989ZM32.085 248.989C32.085 250.343 32.3721 251.37 32.9463 252.072C33.5251 252.77 34.3636 253.118 35.4619 253.118C36.5693 253.118 37.4056 252.77 37.9707 252.072C38.5358 251.375 38.8184 250.347 38.8184 248.989C38.8184 247.645 38.5358 246.626 37.9707 245.934C37.4102 245.236 36.5785 244.888 35.4756 244.888C34.3682 244.888 33.5251 245.239 32.9463 245.94C32.3721 246.638 32.085 247.654 32.085 248.989ZM45.5312 246.371C45.8639 246.371 46.1624 246.398 46.4268 246.453L46.2695 247.506C45.9596 247.438 45.6862 247.403 45.4492 247.403C44.8431 247.403 44.3236 247.649 43.8906 248.142C43.4622 248.634 43.248 249.247 43.248 249.98V254H42.1133V246.508H43.0498L43.1797 247.896H43.2344C43.5124 247.408 43.8473 247.032 44.2393 246.768C44.6312 246.503 45.0618 246.371 45.5312 246.371ZM52.9277 252.995H52.8662C52.3421 253.756 51.5583 254.137 50.5146 254.137C49.5348 254.137 48.7715 253.802 48.2246 253.132C47.6823 252.462 47.4111 251.509 47.4111 250.274C47.4111 249.039 47.6846 248.08 48.2314 247.396C48.7783 246.713 49.5394 246.371 50.5146 246.371C51.5309 246.371 52.3102 246.74 52.8525 247.479H52.9414L52.8936 246.938L52.8662 246.412V243.363H54.001V254H53.0781L52.9277 252.995ZM50.6582 253.187C51.4329 253.187 51.9935 252.977 52.3398 252.558C52.6908 252.134 52.8662 251.452 52.8662 250.514V250.274C52.8662 249.213 52.6885 248.456 52.333 248.005C51.9821 247.549 51.4193 247.321 50.6445 247.321C49.9792 247.321 49.4688 247.581 49.1133 248.101C48.7624 248.616 48.5869 249.345 48.5869 250.288C48.5869 251.245 48.7624 251.967 49.1133 252.455C49.4642 252.943 49.9792 253.187 50.6582 253.187ZM59.5791 254.137C58.4717 254.137 57.5967 253.799 56.9541 253.125C56.3161 252.451 55.9971 251.514 55.9971 250.315C55.9971 249.108 56.2933 248.148 56.8857 247.438C57.4827 246.727 58.2826 246.371 59.2852 246.371C60.224 246.371 60.9668 246.681 61.5137 247.301C62.0605 247.916 62.334 248.729 62.334 249.741V250.459H57.1729C57.1956 251.339 57.4167 252.006 57.8359 252.462C58.2598 252.918 58.8545 253.146 59.6201 253.146C60.4268 253.146 61.2243 252.977 62.0127 252.64V253.651C61.6117 253.825 61.2311 253.948 60.8711 254.021C60.5156 254.098 60.085 254.137 59.5791 254.137ZM59.2715 247.321C58.6699 247.321 58.1891 247.517 57.8291 247.909C57.4736 248.301 57.264 248.843 57.2002 249.536H61.1172C61.1172 248.821 60.9577 248.274 60.6387 247.896C60.3197 247.513 59.8639 247.321 59.2715 247.321ZM67.6934 246.371C68.026 246.371 68.3245 246.398 68.5889 246.453L68.4316 247.506C68.1217 247.438 67.8483 247.403 67.6113 247.403C67.0052 247.403 66.4857 247.649 66.0527 248.142C65.6243 248.634 65.4102 249.247 65.4102 249.98V254H64.2754V246.508H65.2119L65.3418 247.896H65.3965C65.6745 247.408 66.0094 247.032 66.4014 246.768C66.7933 246.503 67.224 246.371 67.6934 246.371ZM73.1553 254.137C72.0479 254.137 71.1729 253.799 70.5303 253.125C69.8923 252.451 69.5732 251.514 69.5732 250.315C69.5732 249.108 69.8695 248.148 70.4619 247.438C71.0589 246.727 71.8587 246.371 72.8613 246.371C73.8001 246.371 74.543 246.681 75.0898 247.301C75.6367 247.916 75.9102 248.729 75.9102 249.741V250.459H70.749C70.7718 251.339 70.9928 252.006 71.4121 252.462C71.8359 252.918 72.4307 253.146 73.1963 253.146C74.0029 253.146 74.8005 252.977 75.5889 252.64V253.651C75.1878 253.825 74.8073 253.948 74.4473 254.021C74.0918 254.098 73.6611 254.137 73.1553 254.137ZM72.8477 247.321C72.2461 247.321 71.7653 247.517 71.4053 247.909C71.0498 248.301 70.8402 248.843 70.7764 249.536H74.6934C74.6934 248.821 74.5339 248.274 74.2148 247.896C73.8958 247.513 73.4401 247.321 72.8477 247.321ZM82.9512 252.995H82.8896C82.3656 253.756 81.5817 254.137 80.5381 254.137C79.5583 254.137 78.7949 253.802 78.248 253.132C77.7057 252.462 77.4346 251.509 77.4346 250.274C77.4346 249.039 77.708 248.08 78.2549 247.396C78.8018 246.713 79.5628 246.371 80.5381 246.371C81.5544 246.371 82.3337 246.74 82.876 247.479H82.9648L82.917 246.938L82.8896 246.412V243.363H84.0244V254H83.1016L82.9512 252.995ZM80.6816 253.187C81.4564 253.187 82.0169 252.977 82.3633 252.558C82.7142 252.134 82.8896 251.452 82.8896 250.514V250.274C82.8896 249.213 82.7119 248.456 82.3564 248.005C82.0055 247.549 81.4427 247.321 80.668 247.321C80.0026 247.321 79.4922 247.581 79.1367 248.101C78.7858 248.616 78.6104 249.345 78.6104 250.288C78.6104 251.245 78.7858 251.967 79.1367 252.455C79.4876 252.943 80.0026 253.187 80.6816 253.187ZM86.2734 253.275C86.2734 252.97 86.3418 252.74 86.4785 252.585C86.6198 252.425 86.8203 252.346 87.0801 252.346C87.3444 252.346 87.5495 252.425 87.6953 252.585C87.8457 252.74 87.9209 252.97 87.9209 253.275C87.9209 253.572 87.8457 253.799 87.6953 253.959C87.5449 254.118 87.3398 254.198 87.0801 254.198C86.8477 254.198 86.654 254.128 86.499 253.986C86.3486 253.84 86.2734 253.604 86.2734 253.275ZM86.2734 247.239C86.2734 246.624 86.5423 246.316 87.0801 246.316C87.6406 246.316 87.9209 246.624 87.9209 247.239C87.9209 247.535 87.8457 247.763 87.6953 247.923C87.5449 248.082 87.3398 248.162 87.0801 248.162C86.8477 248.162 86.654 248.091 86.499 247.95C86.3486 247.804 86.2734 247.567 86.2734 247.239ZM92.5215 256.632C92.0931 256.632 91.7559 256.57 91.5098 256.447V255.456C91.8333 255.547 92.1706 255.593 92.5215 255.593C92.9727 255.593 93.3145 255.456 93.5469 255.183C93.7839 254.909 93.9023 254.515 93.9023 254V244.006H95.0645V253.904C95.0645 254.77 94.8457 255.44 94.4082 255.914C93.9707 256.393 93.3418 256.632 92.5215 256.632ZM98.6191 246.508V251.368C98.6191 251.979 98.7581 252.435 99.0361 252.735C99.3141 253.036 99.7493 253.187 100.342 253.187C101.126 253.187 101.698 252.972 102.058 252.544C102.422 252.116 102.604 251.416 102.604 250.445V246.508H103.739V254H102.803L102.639 252.995H102.577C102.345 253.364 102.021 253.647 101.606 253.843C101.196 254.039 100.727 254.137 100.198 254.137C99.2868 254.137 98.6032 253.92 98.1475 253.487C97.6963 253.054 97.4707 252.362 97.4707 251.409V246.508H98.6191ZM111.279 254V249.153C111.279 248.543 111.14 248.087 110.862 247.786C110.584 247.485 110.149 247.335 109.557 247.335C108.773 247.335 108.199 247.547 107.834 247.971C107.469 248.395 107.287 249.094 107.287 250.069V254H106.152V246.508H107.075L107.26 247.533H107.314C107.547 247.164 107.873 246.879 108.292 246.679C108.711 246.474 109.178 246.371 109.693 246.371C110.596 246.371 111.275 246.59 111.73 247.027C112.186 247.46 112.414 248.155 112.414 249.112V254H111.279ZM124.062 246.357C124.062 246.995 123.882 247.517 123.522 247.923C123.167 248.328 122.661 248.6 122.005 248.736V248.791C122.807 248.891 123.402 249.146 123.789 249.557C124.176 249.967 124.37 250.505 124.37 251.17C124.37 252.122 124.04 252.856 123.379 253.371C122.718 253.882 121.779 254.137 120.562 254.137C120.034 254.137 119.549 254.096 119.106 254.014C118.669 253.936 118.243 253.797 117.828 253.597V252.517C118.261 252.731 118.721 252.895 119.209 253.009C119.701 253.118 120.166 253.173 120.604 253.173C122.331 253.173 123.194 252.496 123.194 251.143C123.194 249.93 122.242 249.324 120.337 249.324H119.353V248.347H120.351C121.13 248.347 121.747 248.176 122.203 247.834C122.659 247.488 122.887 247.009 122.887 246.398C122.887 245.911 122.718 245.528 122.381 245.25C122.048 244.972 121.595 244.833 121.021 244.833C120.583 244.833 120.171 244.892 119.783 245.011C119.396 245.129 118.954 245.348 118.457 245.667L117.883 244.901C118.293 244.578 118.765 244.325 119.298 244.143C119.836 243.956 120.401 243.862 120.993 243.862C121.964 243.862 122.718 244.086 123.256 244.532C123.794 244.974 124.062 245.583 124.062 246.357ZM132.505 248.989C132.505 250.716 132.231 252.006 131.685 252.858C131.142 253.711 130.311 254.137 129.189 254.137C128.114 254.137 127.296 253.701 126.735 252.831C126.175 251.956 125.895 250.675 125.895 248.989C125.895 247.248 126.166 245.956 126.708 245.113C127.25 244.27 128.077 243.849 129.189 243.849C130.274 243.849 131.097 244.288 131.657 245.168C132.222 246.048 132.505 247.321 132.505 248.989ZM127.043 248.989C127.043 250.443 127.214 251.503 127.556 252.168C127.897 252.829 128.442 253.159 129.189 253.159C129.946 253.159 130.493 252.824 130.83 252.154C131.172 251.48 131.343 250.425 131.343 248.989C131.343 247.554 131.172 246.503 130.83 245.838C130.493 245.168 129.946 244.833 129.189 244.833C128.442 244.833 127.897 245.163 127.556 245.824C127.214 246.48 127.043 247.535 127.043 248.989ZM135.602 252.373L135.704 252.53C135.586 252.986 135.415 253.515 135.191 254.116C134.968 254.722 134.736 255.285 134.494 255.805H133.64C133.763 255.331 133.897 254.745 134.043 254.048C134.193 253.351 134.298 252.792 134.357 252.373H135.602ZM147.53 254H140.961V253.022L143.593 250.377C144.395 249.566 144.924 248.987 145.179 248.641C145.434 248.294 145.625 247.957 145.753 247.629C145.881 247.301 145.944 246.948 145.944 246.569C145.944 246.036 145.783 245.615 145.459 245.305C145.135 244.99 144.687 244.833 144.112 244.833C143.698 244.833 143.303 244.901 142.93 245.038C142.561 245.175 142.148 245.423 141.692 245.783L141.091 245.011C142.011 244.245 143.014 243.862 144.099 243.862C145.037 243.862 145.773 244.104 146.307 244.587C146.84 245.065 147.106 245.71 147.106 246.521C147.106 247.155 146.929 247.782 146.573 248.401C146.218 249.021 145.552 249.805 144.577 250.753L142.39 252.893V252.947H147.53V254ZM155.597 248.989C155.597 250.716 155.323 252.006 154.776 252.858C154.234 253.711 153.402 254.137 152.281 254.137C151.206 254.137 150.388 253.701 149.827 252.831C149.267 251.956 148.986 250.675 148.986 248.989C148.986 247.248 149.257 245.956 149.8 245.113C150.342 244.27 151.169 243.849 152.281 243.849C153.366 243.849 154.188 244.288 154.749 245.168C155.314 246.048 155.597 247.321 155.597 248.989ZM150.135 248.989C150.135 250.443 150.306 251.503 150.647 252.168C150.989 252.829 151.534 253.159 152.281 253.159C153.038 253.159 153.585 252.824 153.922 252.154C154.264 251.48 154.435 250.425 154.435 248.989C154.435 247.554 154.264 246.503 153.922 245.838C153.585 245.168 153.038 244.833 152.281 244.833C151.534 244.833 150.989 245.163 150.647 245.824C150.306 246.48 150.135 247.535 150.135 248.989ZM161.188 254H160.081V246.877C160.081 246.285 160.099 245.724 160.136 245.195C160.04 245.291 159.933 245.391 159.814 245.496C159.696 245.601 159.154 246.045 158.188 246.829L157.586 246.05L160.231 244.006H161.188V254ZM171.565 248.271C171.565 252.182 170.052 254.137 167.026 254.137C166.498 254.137 166.078 254.091 165.769 254V253.022C166.133 253.141 166.548 253.2 167.013 253.2C168.106 253.2 168.931 252.863 169.487 252.188C170.048 251.509 170.353 250.47 170.403 249.071H170.321C170.071 249.45 169.738 249.739 169.323 249.939C168.909 250.135 168.441 250.233 167.922 250.233C167.038 250.233 166.336 249.969 165.816 249.44C165.297 248.912 165.037 248.174 165.037 247.226C165.037 246.187 165.326 245.366 165.905 244.765C166.489 244.163 167.254 243.862 168.202 243.862C168.881 243.862 169.474 244.038 169.979 244.389C170.49 244.735 170.882 245.243 171.155 245.913C171.429 246.578 171.565 247.365 171.565 248.271ZM168.202 244.833C167.55 244.833 167.047 245.043 166.691 245.462C166.336 245.881 166.158 246.465 166.158 247.212C166.158 247.868 166.322 248.385 166.65 248.764C166.979 249.137 167.478 249.324 168.147 249.324C168.562 249.324 168.943 249.24 169.289 249.071C169.64 248.903 169.916 248.673 170.116 248.381C170.317 248.089 170.417 247.784 170.417 247.465C170.417 246.986 170.324 246.544 170.137 246.139C169.95 245.733 169.688 245.414 169.351 245.182C169.018 244.949 168.635 244.833 168.202 244.833Z" fill="#222222"/>
<path d="M37.0137 225.341C37.0137 226.22 36.6947 226.906 36.0566 227.398C35.4186 227.891 34.5527 228.137 33.459 228.137C32.2741 228.137 31.3626 227.984 30.7246 227.679V226.558C31.1348 226.731 31.5814 226.868 32.0645 226.968C32.5475 227.068 33.026 227.118 33.5 227.118C34.2747 227.118 34.8581 226.972 35.25 226.681C35.6419 226.384 35.8379 225.974 35.8379 225.45C35.8379 225.104 35.7673 224.821 35.626 224.603C35.4893 224.379 35.2568 224.174 34.9287 223.987C34.6051 223.8 34.1107 223.589 33.4453 223.352C32.5156 223.019 31.8503 222.625 31.4492 222.169C31.0527 221.713 30.8545 221.118 30.8545 220.385C30.8545 219.615 31.1439 219.002 31.7227 218.546C32.3014 218.09 33.0671 217.862 34.0195 217.862C35.013 217.862 35.9268 218.045 36.7607 218.409L36.3984 219.421C35.5736 219.075 34.7715 218.901 33.9922 218.901C33.377 218.901 32.8962 219.034 32.5498 219.298C32.2035 219.562 32.0303 219.929 32.0303 220.398C32.0303 220.745 32.0941 221.03 32.2217 221.253C32.3493 221.472 32.5635 221.674 32.8643 221.861C33.1696 222.044 33.6344 222.246 34.2588 222.47C35.307 222.843 36.027 223.244 36.4189 223.673C36.8154 224.101 37.0137 224.657 37.0137 225.341ZM42.0518 228.137C40.9443 228.137 40.0693 227.799 39.4268 227.125C38.7887 226.451 38.4697 225.514 38.4697 224.315C38.4697 223.108 38.766 222.148 39.3584 221.438C39.9554 220.727 40.7552 220.371 41.7578 220.371C42.6966 220.371 43.4395 220.681 43.9863 221.301C44.5332 221.916 44.8066 222.729 44.8066 223.741V224.459H39.6455C39.6683 225.339 39.8893 226.006 40.3086 226.462C40.7324 226.918 41.3271 227.146 42.0928 227.146C42.8994 227.146 43.6969 226.977 44.4854 226.64V227.651C44.0843 227.825 43.7038 227.948 43.3438 228.021C42.9883 228.098 42.5576 228.137 42.0518 228.137ZM41.7441 221.321C41.1426 221.321 40.6618 221.517 40.3018 221.909C39.9463 222.301 39.7367 222.843 39.6729 223.536H43.5898C43.5898 222.821 43.4303 222.274 43.1113 221.896C42.7923 221.513 42.3366 221.321 41.7441 221.321ZM51.3555 228L51.1299 226.934H51.0752C50.7015 227.403 50.3278 227.722 49.9541 227.891C49.585 228.055 49.1224 228.137 48.5664 228.137C47.8236 228.137 47.2402 227.945 46.8164 227.562C46.3971 227.18 46.1875 226.635 46.1875 225.929C46.1875 224.416 47.3975 223.623 49.8174 223.55L51.0889 223.509V223.044C51.0889 222.456 50.9613 222.023 50.7061 221.745C50.4554 221.463 50.0521 221.321 49.4961 221.321C48.8717 221.321 48.1654 221.513 47.377 221.896L47.0283 221.027C47.3975 220.827 47.8008 220.67 48.2383 220.556C48.6803 220.442 49.1224 220.385 49.5645 220.385C50.4577 220.385 51.1185 220.583 51.5469 220.979C51.9798 221.376 52.1963 222.012 52.1963 222.887V228H51.3555ZM48.792 227.2C49.4984 227.2 50.0521 227.007 50.4531 226.619C50.8587 226.232 51.0615 225.689 51.0615 224.992V224.315L49.9268 224.363C49.0244 224.395 48.3727 224.536 47.9717 224.787C47.5752 225.033 47.377 225.418 47.377 225.942C47.377 226.353 47.5 226.665 47.7461 226.879C47.9967 227.093 48.3454 227.2 48.792 227.2ZM56.9609 227.2C57.1615 227.2 57.3551 227.187 57.542 227.159C57.7288 227.127 57.877 227.095 57.9863 227.063V227.932C57.8633 227.991 57.681 228.039 57.4395 228.075C57.2025 228.116 56.9883 228.137 56.7969 228.137C55.3477 228.137 54.623 227.373 54.623 225.847V221.39H53.5498V220.843L54.623 220.371L55.1016 218.771H55.7578V220.508H57.9316V221.39H55.7578V225.799C55.7578 226.25 55.8649 226.596 56.0791 226.838C56.2933 227.079 56.5872 227.2 56.9609 227.2ZM61.9102 227.2C62.1107 227.2 62.3044 227.187 62.4912 227.159C62.6781 227.127 62.8262 227.095 62.9355 227.063V227.932C62.8125 227.991 62.6302 228.039 62.3887 228.075C62.1517 228.116 61.9375 228.137 61.7461 228.137C60.2969 228.137 59.5723 227.373 59.5723 225.847V221.39H58.499V220.843L59.5723 220.371L60.0508 218.771H60.707V220.508H62.8809V221.39H60.707V225.799C60.707 226.25 60.8141 226.596 61.0283 226.838C61.2425 227.079 61.5365 227.2 61.9102 227.2ZM65.5742 228H64.4395V217.363H65.5742V228ZM71.1455 228.137C70.0381 228.137 69.1631 227.799 68.5205 227.125C67.8825 226.451 67.5635 225.514 67.5635 224.315C67.5635 223.108 67.8597 222.148 68.4521 221.438C69.0492 220.727 69.849 220.371 70.8516 220.371C71.7904 220.371 72.5332 220.681 73.0801 221.301C73.627 221.916 73.9004 222.729 73.9004 223.741V224.459H68.7393C68.762 225.339 68.9831 226.006 69.4023 226.462C69.8262 226.918 70.4209 227.146 71.1865 227.146C71.9932 227.146 72.7907 226.977 73.5791 226.64V227.651C73.1781 227.825 72.7975 227.948 72.4375 228.021C72.082 228.098 71.6514 228.137 71.1455 228.137ZM70.8379 221.321C70.2363 221.321 69.7555 221.517 69.3955 221.909C69.04 222.301 68.8304 222.843 68.7666 223.536H72.6836C72.6836 222.821 72.5241 222.274 72.2051 221.896C71.8861 221.513 71.4303 221.321 70.8379 221.321ZM77.0312 226.373L77.1338 226.53C77.0153 226.986 76.8444 227.515 76.6211 228.116C76.3978 228.722 76.1654 229.285 75.9238 229.805H75.0693C75.1924 229.331 75.3268 228.745 75.4727 228.048C75.623 227.351 75.7279 226.792 75.7871 226.373H77.0312ZM91.8037 228H90.6553L88.6387 221.308C88.543 221.011 88.4359 220.638 88.3174 220.187C88.1989 219.735 88.1374 219.464 88.1328 219.373C88.0326 219.975 87.873 220.633 87.6543 221.349L85.6992 228H84.5508L81.8916 218.006H83.1221L84.7012 224.179C84.9199 225.045 85.0794 225.828 85.1797 226.53C85.3027 225.696 85.485 224.881 85.7266 224.083L87.5176 218.006H88.748L90.6279 224.138C90.8467 224.844 91.0312 225.642 91.1816 226.53C91.2682 225.883 91.4323 225.095 91.6738 224.165L93.2461 218.006H94.4766L91.8037 228ZM102.324 228L101.08 224.821H97.0742L95.8438 228H94.668L98.6191 217.965H99.5967L103.527 228H102.324ZM100.718 223.775L99.5557 220.679C99.4053 220.287 99.2503 219.806 99.0908 219.236C98.9906 219.674 98.847 220.155 98.6602 220.679L97.4844 223.775H100.718ZM114.417 222.271C114.417 226.182 112.904 228.137 109.878 228.137C109.349 228.137 108.93 228.091 108.62 228V227.022C108.985 227.141 109.399 227.2 109.864 227.2C110.958 227.2 111.783 226.863 112.339 226.188C112.899 225.509 113.205 224.47 113.255 223.071H113.173C112.922 223.45 112.59 223.739 112.175 223.939C111.76 224.135 111.293 224.233 110.773 224.233C109.889 224.233 109.188 223.969 108.668 223.44C108.148 222.912 107.889 222.174 107.889 221.226C107.889 220.187 108.178 219.366 108.757 218.765C109.34 218.163 110.106 217.862 111.054 217.862C111.733 217.862 112.325 218.038 112.831 218.389C113.341 218.735 113.733 219.243 114.007 219.913C114.28 220.578 114.417 221.365 114.417 222.271ZM111.054 218.833C110.402 218.833 109.898 219.043 109.543 219.462C109.188 219.881 109.01 220.465 109.01 221.212C109.01 221.868 109.174 222.385 109.502 222.764C109.83 223.137 110.329 223.324 110.999 223.324C111.414 223.324 111.794 223.24 112.141 223.071C112.492 222.903 112.767 222.673 112.968 222.381C113.168 222.089 113.269 221.784 113.269 221.465C113.269 220.986 113.175 220.544 112.988 220.139C112.801 219.733 112.539 219.414 112.202 219.182C111.869 218.949 111.487 218.833 111.054 218.833ZM119.168 217.862C120.079 217.862 120.802 218.074 121.335 218.498C121.868 218.922 122.135 219.507 122.135 220.255C122.135 220.747 121.982 221.196 121.677 221.602C121.371 222.007 120.884 222.376 120.214 222.709C121.025 223.096 121.602 223.504 121.943 223.933C122.285 224.356 122.456 224.849 122.456 225.409C122.456 226.239 122.167 226.902 121.588 227.398C121.009 227.891 120.216 228.137 119.209 228.137C118.143 228.137 117.322 227.904 116.748 227.439C116.174 226.97 115.887 226.307 115.887 225.45C115.887 224.306 116.584 223.415 117.979 222.777C117.35 222.422 116.898 222.039 116.625 221.629C116.352 221.214 116.215 220.752 116.215 220.241C116.215 219.517 116.481 218.94 117.015 218.512C117.552 218.079 118.27 217.862 119.168 217.862ZM117.008 225.478C117.008 226.024 117.197 226.451 117.575 226.756C117.958 227.061 118.493 227.214 119.182 227.214C119.861 227.214 120.389 227.054 120.768 226.735C121.146 226.416 121.335 225.979 121.335 225.423C121.335 224.981 121.157 224.589 120.802 224.247C120.446 223.901 119.826 223.566 118.942 223.242C118.263 223.534 117.771 223.857 117.466 224.213C117.16 224.564 117.008 224.985 117.008 225.478ZM119.154 218.785C118.585 218.785 118.138 218.922 117.814 219.195C117.491 219.469 117.329 219.833 117.329 220.289C117.329 220.708 117.464 221.068 117.732 221.369C118.001 221.67 118.498 221.971 119.223 222.271C119.874 221.998 120.335 221.704 120.604 221.39C120.877 221.075 121.014 220.708 121.014 220.289C121.014 219.829 120.847 219.464 120.515 219.195C120.187 218.922 119.733 218.785 119.154 218.785ZM128.075 228H126.968V220.877C126.968 220.285 126.986 219.724 127.022 219.195C126.927 219.291 126.82 219.391 126.701 219.496C126.583 219.601 126.04 220.045 125.074 220.829L124.473 220.05L127.118 218.006H128.075V228ZM138.452 228H131.883V227.022L134.515 224.377C135.317 223.566 135.845 222.987 136.101 222.641C136.356 222.294 136.547 221.957 136.675 221.629C136.802 221.301 136.866 220.948 136.866 220.569C136.866 220.036 136.704 219.615 136.381 219.305C136.057 218.99 135.608 218.833 135.034 218.833C134.619 218.833 134.225 218.901 133.852 219.038C133.482 219.175 133.07 219.423 132.614 219.783L132.013 219.011C132.933 218.245 133.936 217.862 135.021 217.862C135.959 217.862 136.695 218.104 137.229 218.587C137.762 219.065 138.028 219.71 138.028 220.521C138.028 221.155 137.851 221.782 137.495 222.401C137.14 223.021 136.474 223.805 135.499 224.753L133.312 226.893V226.947H138.452V228ZM146.464 228H139.895V227.022L142.526 224.377C143.328 223.566 143.857 222.987 144.112 222.641C144.368 222.294 144.559 221.957 144.687 221.629C144.814 221.301 144.878 220.948 144.878 220.569C144.878 220.036 144.716 219.615 144.393 219.305C144.069 218.99 143.62 218.833 143.046 218.833C142.631 218.833 142.237 218.901 141.863 219.038C141.494 219.175 141.082 219.423 140.626 219.783L140.024 219.011C140.945 218.245 141.948 217.862 143.032 217.862C143.971 217.862 144.707 218.104 145.24 218.587C145.773 219.065 146.04 219.71 146.04 220.521C146.04 221.155 145.862 221.782 145.507 222.401C145.151 223.021 144.486 223.805 143.511 224.753L141.323 226.893V226.947H146.464V228Z" fill="#222222"/>
<path d="M36.8555 208H34.79V199.703C34.79 198.713 34.8135 197.928 34.8604 197.348C34.7256 197.488 34.5586 197.644 34.3594 197.813C34.166 197.983 33.5098 198.522 32.3906 199.431L31.3535 198.121L35.1328 195.15H36.8555V208ZM49.7842 208H41.0742V206.436L44.3877 203.104C45.3662 202.103 46.0137 201.394 46.3301 200.978C46.6523 200.556 46.8867 200.16 47.0332 199.791C47.1797 199.422 47.2529 199.026 47.2529 198.604C47.2529 198.024 47.0771 197.567 46.7256 197.233C46.3799 196.899 45.8994 196.732 45.2842 196.732C44.792 196.732 44.3145 196.823 43.8516 197.005C43.3945 197.187 42.8643 197.515 42.2607 197.989L41.1445 196.627C41.8594 196.023 42.5537 195.596 43.2275 195.344C43.9014 195.092 44.6191 194.966 45.3809 194.966C46.5762 194.966 47.5342 195.279 48.2549 195.906C48.9756 196.527 49.3359 197.365 49.3359 198.42C49.3359 199 49.2305 199.551 49.0195 200.072C48.8145 200.594 48.4951 201.133 48.0615 201.689C47.6338 202.24 46.9189 202.987 45.917 203.931L43.6846 206.093V206.181H49.7842V208ZM60.5244 205.196H58.793V208H56.7803V205.196H50.9092V203.605L56.7803 195.115H58.793V203.482H60.5244V205.196ZM56.7803 203.482V200.257C56.7803 199.108 56.8096 198.168 56.8682 197.436H56.7979C56.6338 197.822 56.376 198.291 56.0244 198.842L52.834 203.482H56.7803ZM66 199.976C67.2949 199.976 68.3203 200.318 69.0762 201.004C69.832 201.689 70.21 202.624 70.21 203.808C70.21 205.179 69.7793 206.251 68.918 207.024C68.0625 207.792 66.8438 208.176 65.2617 208.176C63.8262 208.176 62.6982 207.944 61.8779 207.481V205.609C62.3525 205.879 62.8975 206.087 63.5127 206.233C64.1279 206.38 64.6992 206.453 65.2266 206.453C66.1582 206.453 66.8672 206.245 67.3535 205.829C67.8398 205.413 68.083 204.804 68.083 204.001C68.083 202.466 67.1045 201.698 65.1475 201.698C64.8721 201.698 64.5322 201.728 64.1279 201.786C63.7236 201.839 63.3691 201.9 63.0645 201.971L62.1416 201.426L62.6338 195.15H69.3135V196.987H64.4531L64.1631 200.169C64.3682 200.134 64.6172 200.093 64.9102 200.046C65.209 199.999 65.5723 199.976 66 199.976ZM83.0596 208L79.333 197.269H79.2627C79.3623 198.862 79.4121 200.356 79.4121 201.751V208H77.5049V195.15H80.4668L84.0352 205.372H84.0879L87.7617 195.15H90.7324V208H88.7109V201.646C88.7109 201.007 88.7256 200.175 88.7549 199.149C88.79 198.124 88.8193 197.503 88.8428 197.286H88.7725L84.9141 208H83.0596ZM99.9785 208L99.5654 206.646H99.4951C99.0264 207.238 98.5547 207.643 98.0801 207.859C97.6055 208.07 96.9961 208.176 96.252 208.176C95.2969 208.176 94.5498 207.918 94.0107 207.402C93.4775 206.887 93.2109 206.157 93.2109 205.214C93.2109 204.212 93.583 203.456 94.3271 202.946C95.0713 202.437 96.2051 202.158 97.7285 202.111L99.4072 202.059V201.54C99.4072 200.919 99.2607 200.456 98.9678 200.151C98.6807 199.841 98.2324 199.686 97.623 199.686C97.125 199.686 96.6475 199.759 96.1904 199.905C95.7334 200.052 95.2939 200.225 94.8721 200.424L94.2041 198.947C94.7314 198.672 95.3086 198.464 95.9355 198.323C96.5625 198.177 97.1543 198.104 97.7109 198.104C98.9473 198.104 99.8789 198.373 100.506 198.912C101.139 199.451 101.455 200.298 101.455 201.452V208H99.9785ZM96.9023 206.594C97.6523 206.594 98.2529 206.386 98.7041 205.97C99.1611 205.548 99.3896 204.959 99.3896 204.203V203.359L98.1416 203.412C97.1689 203.447 96.46 203.611 96.0146 203.904C95.5752 204.191 95.3555 204.634 95.3555 205.231C95.3555 205.665 95.4844 206.002 95.7422 206.242C96 206.477 96.3867 206.594 96.9023 206.594ZM112.547 198.279V199.413L110.886 199.721C111.038 199.926 111.164 200.178 111.264 200.477C111.363 200.775 111.413 201.092 111.413 201.426C111.413 202.428 111.067 203.216 110.376 203.79C109.685 204.364 108.732 204.651 107.52 204.651C107.209 204.651 106.928 204.628 106.676 204.581C106.23 204.856 106.008 205.179 106.008 205.548C106.008 205.771 106.11 205.938 106.315 206.049C106.526 206.16 106.91 206.216 107.467 206.216H109.163C110.235 206.216 111.05 206.444 111.606 206.901C112.163 207.358 112.441 208.018 112.441 208.879C112.441 209.98 111.987 210.83 111.079 211.428C110.171 212.025 108.858 212.324 107.142 212.324C105.817 212.324 104.807 212.09 104.109 211.621C103.412 211.152 103.063 210.484 103.063 209.617C103.063 209.02 103.251 208.516 103.626 208.105C104.007 207.701 104.537 207.42 105.217 207.262C104.941 207.145 104.713 206.957 104.531 206.699C104.355 206.436 104.268 206.16 104.268 205.873C104.268 205.51 104.37 205.202 104.575 204.95C104.78 204.698 105.085 204.449 105.489 204.203C104.985 203.986 104.575 203.635 104.259 203.148C103.948 202.656 103.793 202.082 103.793 201.426C103.793 200.371 104.124 199.554 104.786 198.974C105.454 198.394 106.403 198.104 107.634 198.104C107.909 198.104 108.196 198.124 108.495 198.165C108.8 198.2 109.028 198.238 109.181 198.279H112.547ZM104.909 209.512C104.909 209.957 105.108 210.3 105.507 210.54C105.911 210.78 106.477 210.9 107.203 210.9C108.328 210.9 109.166 210.739 109.717 210.417C110.268 210.095 110.543 209.667 110.543 209.134C110.543 208.712 110.391 208.41 110.086 208.229C109.787 208.053 109.228 207.965 108.407 207.965H106.843C106.251 207.965 105.779 208.103 105.428 208.378C105.082 208.659 104.909 209.037 104.909 209.512ZM105.797 201.426C105.797 202.035 105.952 202.504 106.263 202.832C106.579 203.16 107.03 203.324 107.616 203.324C108.812 203.324 109.409 202.686 109.409 201.408C109.409 200.775 109.26 200.289 108.961 199.949C108.668 199.604 108.22 199.431 107.616 199.431C107.019 199.431 106.564 199.601 106.254 199.94C105.949 200.28 105.797 200.775 105.797 201.426ZM122.909 208H120.835V202.023C120.835 201.273 120.683 200.714 120.378 200.345C120.079 199.976 119.602 199.791 118.945 199.791C118.072 199.791 117.434 200.049 117.029 200.564C116.625 201.08 116.423 201.944 116.423 203.157V208H114.357V198.279H115.975L116.265 199.554H116.37C116.663 199.091 117.079 198.733 117.618 198.481C118.157 198.229 118.755 198.104 119.411 198.104C121.743 198.104 122.909 199.29 122.909 201.663V208ZM134.405 203.122C134.405 204.71 133.998 205.949 133.184 206.84C132.369 207.73 131.235 208.176 129.782 208.176C128.874 208.176 128.071 207.971 127.374 207.561C126.677 207.15 126.141 206.562 125.766 205.794C125.391 205.026 125.203 204.136 125.203 203.122C125.203 201.546 125.607 200.315 126.416 199.431C127.225 198.546 128.364 198.104 129.835 198.104C131.241 198.104 132.354 198.558 133.175 199.466C133.995 200.368 134.405 201.587 134.405 203.122ZM127.33 203.122C127.33 205.366 128.159 206.488 129.817 206.488C131.458 206.488 132.278 205.366 132.278 203.122C132.278 200.901 131.452 199.791 129.8 199.791C128.933 199.791 128.303 200.078 127.91 200.652C127.523 201.227 127.33 202.05 127.33 203.122ZM138.853 208H136.787V194.324H138.853V208ZM143.88 208H141.814V198.279H143.88V208ZM141.691 195.704C141.691 195.335 141.791 195.051 141.99 194.852C142.195 194.652 142.485 194.553 142.86 194.553C143.224 194.553 143.505 194.652 143.704 194.852C143.909 195.051 144.012 195.335 144.012 195.704C144.012 196.056 143.909 196.334 143.704 196.539C143.505 196.738 143.224 196.838 142.86 196.838C142.485 196.838 142.195 196.738 141.99 196.539C141.791 196.334 141.691 196.056 141.691 195.704ZM152.924 208L152.511 206.646H152.44C151.972 207.238 151.5 207.643 151.025 207.859C150.551 208.07 149.941 208.176 149.197 208.176C148.242 208.176 147.495 207.918 146.956 207.402C146.423 206.887 146.156 206.157 146.156 205.214C146.156 204.212 146.528 203.456 147.272 202.946C148.017 202.437 149.15 202.158 150.674 202.111L152.353 202.059V201.54C152.353 200.919 152.206 200.456 151.913 200.151C151.626 199.841 151.178 199.686 150.568 199.686C150.07 199.686 149.593 199.759 149.136 199.905C148.679 200.052 148.239 200.225 147.817 200.424L147.149 198.947C147.677 198.672 148.254 198.464 148.881 198.323C149.508 198.177 150.1 198.104 150.656 198.104C151.893 198.104 152.824 198.373 153.451 198.912C154.084 199.451 154.4 200.298 154.4 201.452V208H152.924ZM149.848 206.594C150.598 206.594 151.198 206.386 151.649 205.97C152.106 205.548 152.335 204.959 152.335 204.203V203.359L151.087 203.412C150.114 203.447 149.405 203.611 148.96 203.904C148.521 204.191 148.301 204.634 148.301 205.231C148.301 205.665 148.43 206.002 148.688 206.242C148.945 206.477 149.332 206.594 149.848 206.594ZM170.15 208L168.867 204.432H163.954L162.697 208H160.482L165.29 195.098H167.575L172.383 208H170.15ZM168.313 202.621L167.109 199.123C167.021 198.889 166.898 198.52 166.74 198.016C166.588 197.512 166.482 197.143 166.424 196.908C166.266 197.629 166.034 198.417 165.729 199.272L164.569 202.621H168.313ZM176.074 208L172.383 198.279H174.562L176.54 203.931C176.88 204.88 177.085 205.647 177.155 206.233H177.226C177.278 205.812 177.483 205.044 177.841 203.931L179.818 198.279H182.016L178.307 208H176.074ZM187.737 208.176C186.226 208.176 185.042 207.736 184.187 206.857C183.337 205.973 182.912 204.757 182.912 203.21C182.912 201.622 183.308 200.374 184.099 199.466C184.89 198.558 185.977 198.104 187.359 198.104C188.643 198.104 189.656 198.493 190.4 199.272C191.145 200.052 191.517 201.124 191.517 202.489V203.605H185.039C185.068 204.549 185.323 205.275 185.804 205.785C186.284 206.289 186.961 206.541 187.834 206.541C188.408 206.541 188.941 206.488 189.434 206.383C189.932 206.271 190.465 206.09 191.033 205.838V207.517C190.529 207.757 190.02 207.927 189.504 208.026C188.988 208.126 188.399 208.176 187.737 208.176ZM187.359 199.668C186.703 199.668 186.176 199.876 185.777 200.292C185.385 200.708 185.15 201.314 185.074 202.111H189.486C189.475 201.309 189.281 200.702 188.906 200.292C188.531 199.876 188.016 199.668 187.359 199.668Z" fill="#222222"/>
<path d="M10 14C10 11.7909 11.7909 10 14 10H472C474.209 10 476 11.7909 476 14V180H10V14Z" fill="#E0E6EB"/>
<path d="M10 14C10 11.7909 11.7909 10 14 10H472C474.209 10 476 11.7909 476 14V180H10V14Z" stroke="#C5C5C5"/>
<path fill-rule="evenodd" clip-rule="evenodd" d="M38.8639 180L38.8228 152.448L45.0368 148.293V127.607H59.7819V138.436L64.4643 135.306L90.1058 143.062V158.614H94.0522V150.887L112.489 139.21L120.206 144.108V140.563H125.644V147.56L130.886 150.887V168.62H144.708V148.942L155.212 139.21V135.358H171.018V139.21H181.542L191.408 148.942V164.977H195.364V133.411L200.496 131.121V123.07L208.399 123.306V127.607L217.049 123.732L238.765 133.411V152.448H248.926V124.635L259.186 121.714L275.608 124.635V178.032V180H38.8639Z" fill="url(#paint0_linear)"/>
<path fill-rule="evenodd" clip-rule="evenodd" d="M38.8228 165.697V180H10V105.091L22.427 105.091V122.006H31.9201L33.3542 165.697H38.8228Z" fill="#ECF0F5"/>
<path d="M323 104.939C323 102.73 324.791 100.939 327 100.939H472C474.209 100.939 476 102.73 476 104.939V180H323V104.939Z" fill="#EAEEF1"/>
<mask id="mask0" mask-type="alpha" maskUnits="userSpaceOnUse" x="323" y="100" width="153" height="80">
<path d="M323 104.939C323 102.73 324.791 100.939 327 100.939H472C474.209 100.939 476 102.73 476 104.939V180H323V104.939Z" fill="white"/>
</mask>
<g mask="url(#mask0)">
</g>
<path fill-rule="evenodd" clip-rule="evenodd" d="M455.964 145.301C455.964 134.236 464.935 125.265 476 125.265V180H455.964V145.301Z" fill="#D8DDE2"/>
<path d="M394.036 140.212C394.036 138.003 395.827 136.212 398.036 136.212H402.786C404.995 136.212 406.786 138.003 406.786 140.212V153.241H394.036V140.212Z" fill="#D8DDE2"/>
<path d="M394.036 160.89C394.036 158.681 395.827 156.89 398.036 156.89H402.786C404.995 156.89 406.786 158.681 406.786 160.89V173.918H394.036V160.89Z" fill="#D8DDE2"/>
<path d="M411.036 140.212C411.036 138.003 412.827 136.212 415.036 136.212H419.786C421.995 136.212 423.786 138.003 423.786 140.212V153.241H411.036V140.212Z" fill="#D8DDE2"/>
<path d="M428.036 140.212C428.036 138.003 429.827 136.212 432.036 136.212H436.786C438.995 136.212 440.786 138.003 440.786 140.212V153.241H428.036V140.212Z" fill="#D8DDE2"/>
<path d="M411.036 160.89C411.036 158.681 412.827 156.89 415.036 156.89H419.786C421.995 156.89 423.786 158.681 423.786 160.89V173.918H411.036V160.89Z" fill="#D8DDE2"/>
<path d="M428.036 160.89C428.036 158.681 429.827 156.89 432.036 156.89H436.786C438.995 156.89 440.786 158.681 440.786 160.89V173.918H428.036V160.89Z" fill="#D8DDE2"/>
<path d="M347.199 139.883C347.199 137.674 348.99 135.883 351.199 135.883H352.306C354.515 135.883 356.306 137.674 356.306 139.883V148.402H347.199V139.883Z" fill="#D8DDE2"/>
<path d="M347.199 154.749C347.199 152.54 348.99 150.749 351.199 150.749H352.306C354.515 150.749 356.306 152.54 356.306 154.749V163.267H347.199V154.749Z" fill="#D8DDE2"/>
<path d="M358.908 139.883C358.908 137.674 360.699 135.883 362.908 135.883H364.015C366.224 135.883 368.015 137.674 368.015 139.883V148.402H358.908V139.883Z" fill="#D8DDE2"/>
<path d="M358.908 154.749C358.908 152.54 360.699 150.749 362.908 150.749H364.015C366.224 150.749 368.015 152.54 368.015 154.749V163.267H358.908V154.749Z" fill="#D8DDE2"/>
<path fill-rule="evenodd" clip-rule="evenodd" d="M397.679 100.939V93.6291L465.561 48.0933L476 55.4915V100.939H397.679Z" fill="#D8DDE2"/>
<path d="M465.679 119.535C465.679 117.326 467.469 115.535 469.679 115.535H472C474.209 115.535 476 117.326 476 119.535V119.792H465.679V119.535Z" fill="#D8DDE2"/>
<path fill-rule="evenodd" clip-rule="evenodd" d="M403.21 104.594V114.318H323V104.594H397.679V93.6291L465.561 48.0933L476 55.4915V62.6245L471.092 59.1421L403.21 104.594Z" fill="#D8DDE2" fill-opacity="0.5"/>
<path d="M323 105.804C323 105.132 323.545 104.588 324.216 104.588H396.462C397.134 104.588 397.679 105.132 397.679 105.804H323Z" fill="#D8DDE2"/>
<path fill-rule="evenodd" clip-rule="evenodd" d="M397.679 93.6291V103.371H323L323 89.7638H379.12L388.689 83.2094V50.2833H407.359V70.4649L465.287 31L475.959 38.3478L476 55.4915L465.561 48.0933L397.679 93.6291Z" fill="#EAEEF1"/>
<path fill-rule="evenodd" clip-rule="evenodd" d="M272.089 84.2414C272.079 83.9854 272.07 83.7247 272.07 83.4639C272.07 73.0722 280.47 64.6429 290.837 64.6429C301.2 64.6429 309.605 73.0672 309.605 83.4639C309.605 83.7057 309.6 83.9427 309.591 84.1798C323.929 85.6494 335.109 97.7907 335.109 112.553C335.109 128.306 322.374 141.079 306.664 141.079H306.485L295.919 156.832L296.652 180L288.937 179.995L289.547 149.801L276.689 132.882C275.394 133.095 274.06 133.204 272.704 133.204C259.216 133.204 248.287 122.244 248.287 108.718C248.287 95.4007 258.89 84.569 272.089 84.2413L272.089 84.2414ZM302.911 140.832C300.349 140.495 297.891 139.813 295.593 138.836L295.919 148.602L302.911 140.832ZM289.817 135.532C287.77 134.02 285.931 132.242 284.357 130.246C282.868 131.061 281.279 131.72 279.62 132.209L289.552 142.861L289.817 135.532Z" fill="#EAEEF1"/>
<path d="M10.5 14C10.5 12.067 12.067 10.5 14 10.5H472C473.933 10.5 475.5 12.067 475.5 14V179.5H10.5V14Z" stroke="#C5C5C5"/>
<defs>
<filter id="filter0_d" x="0" y="0" width="486" height="298" filterUnits="userSpaceOnUse" color-interpolation-filters="sRGB">
<feFlood flood-opacity="0" result="BackgroundImageFix"/>
<feColorMatrix in="SourceAlpha" type="matrix" values="0 0 0 0 0 0 0 0 0 0 0 0 0 0 0 0 0 0 127 0"/>
<feOffset/>
<feGaussianBlur stdDeviation="5"/>
<feColorMatrix type="matrix" values="0 0 0 0 0 0 0 0 0 0 0 0 0 0 0 0 0 0 0.1 0"/>
<feBlend mode="normal" in2="BackgroundImageFix" result="effect1_dropShadow"/>
<feBlend mode="normal" in="SourceGraphic" in2="effect1_dropShadow" result="shape"/>
</filter>
<linearGradient id="paint0_linear" x1="204.516" y1="179.301" x2="275.608" y2="179.301" gradientUnits="userSpaceOnUse">
<stop stop-color="#ECF0F5"/>
<stop offset="1" stop-color="#E0E6EB"/>
</linearGradient>
</defs>
</svg>
