<svg width="486" height="298" viewBox="0 0 486 298" fill="none" xmlns="http://www.w3.org/2000/svg">
<g filter="url(#filter0_d)">
<rect x="10" y="10" width="466" height="278" rx="4" fill="white"/>
<rect x="10.5" y="10.5" width="465" height="277" rx="3.5" stroke="#C5C5C5"/>
</g>
<path d="M118.711 266.918C118.711 267.93 118.365 268.709 117.672 269.256C116.984 269.798 115.997 270.069 114.712 270.069H113.536V274H112.374V264.006H114.965C117.462 264.006 118.711 264.977 118.711 266.918ZM113.536 269.071H114.582C115.612 269.071 116.357 268.905 116.817 268.572C117.278 268.24 117.508 267.706 117.508 266.973C117.508 266.312 117.291 265.82 116.858 265.496C116.425 265.173 115.751 265.011 114.835 265.011H113.536V269.071ZM124.057 266.371C124.389 266.371 124.688 266.398 124.952 266.453L124.795 267.506C124.485 267.438 124.212 267.403 123.975 267.403C123.368 267.403 122.849 267.649 122.416 268.142C121.988 268.634 121.773 269.247 121.773 269.98V274H120.639V266.508H121.575L121.705 267.896H121.76C122.038 267.408 122.373 267.032 122.765 266.768C123.157 266.503 123.587 266.371 124.057 266.371ZM127.488 274H126.354V266.508H127.488V274ZM126.258 264.478C126.258 264.218 126.322 264.029 126.449 263.91C126.577 263.787 126.736 263.726 126.928 263.726C127.11 263.726 127.267 263.787 127.399 263.91C127.532 264.033 127.598 264.222 127.598 264.478C127.598 264.733 127.532 264.924 127.399 265.052C127.267 265.175 127.11 265.236 126.928 265.236C126.736 265.236 126.577 265.175 126.449 265.052C126.322 264.924 126.258 264.733 126.258 264.478ZM132.889 274.137C131.804 274.137 130.963 273.804 130.366 273.139C129.774 272.469 129.478 271.523 129.478 270.302C129.478 269.049 129.778 268.08 130.38 267.396C130.986 266.713 131.847 266.371 132.964 266.371C133.324 266.371 133.684 266.41 134.044 266.487C134.404 266.565 134.687 266.656 134.892 266.761L134.543 267.725C134.292 267.624 134.019 267.542 133.723 267.479C133.426 267.41 133.164 267.376 132.937 267.376C131.414 267.376 130.653 268.347 130.653 270.288C130.653 271.209 130.838 271.915 131.207 272.407C131.581 272.899 132.132 273.146 132.861 273.146C133.486 273.146 134.126 273.011 134.782 272.742V273.747C134.281 274.007 133.65 274.137 132.889 274.137ZM139.731 274.137C138.624 274.137 137.749 273.799 137.106 273.125C136.468 272.451 136.149 271.514 136.149 270.315C136.149 269.108 136.446 268.148 137.038 267.438C137.635 266.727 138.435 266.371 139.438 266.371C140.376 266.371 141.119 266.681 141.666 267.301C142.213 267.916 142.486 268.729 142.486 269.741V270.459H137.325C137.348 271.339 137.569 272.006 137.988 272.462C138.412 272.918 139.007 273.146 139.772 273.146C140.579 273.146 141.377 272.977 142.165 272.64V273.651C141.764 273.825 141.383 273.948 141.023 274.021C140.668 274.098 140.237 274.137 139.731 274.137ZM139.424 267.321C138.822 267.321 138.341 267.517 137.981 267.909C137.626 268.301 137.416 268.843 137.353 269.536H141.27C141.27 268.821 141.11 268.274 140.791 267.896C140.472 267.513 140.016 267.321 139.424 267.321ZM144.264 273.275C144.264 272.97 144.332 272.74 144.469 272.585C144.61 272.425 144.811 272.346 145.07 272.346C145.335 272.346 145.54 272.425 145.686 272.585C145.836 272.74 145.911 272.97 145.911 273.275C145.911 273.572 145.836 273.799 145.686 273.959C145.535 274.118 145.33 274.198 145.07 274.198C144.838 274.198 144.644 274.128 144.489 273.986C144.339 273.84 144.264 273.604 144.264 273.275ZM144.264 267.239C144.264 266.624 144.533 266.316 145.07 266.316C145.631 266.316 145.911 266.624 145.911 267.239C145.911 267.535 145.836 267.763 145.686 267.923C145.535 268.082 145.33 268.162 145.07 268.162C144.838 268.162 144.644 268.091 144.489 267.95C144.339 267.804 144.264 267.567 144.264 267.239ZM157.676 270.931C157.676 271.55 157.443 272.063 156.979 272.469C156.514 272.87 155.864 273.123 155.03 273.228V274.813H154.148V273.289C153.638 273.289 153.144 273.25 152.665 273.173C152.187 273.091 151.795 272.979 151.489 272.838V271.771C151.868 271.94 152.303 272.079 152.795 272.188C153.292 272.293 153.743 272.346 154.148 272.346V269.338C153.214 269.042 152.558 268.698 152.18 268.306C151.806 267.914 151.619 267.408 151.619 266.788C151.619 266.191 151.849 265.701 152.31 265.318C152.774 264.936 153.387 264.703 154.148 264.621V263.377H155.03V264.607C155.869 264.63 156.678 264.799 157.457 265.113L157.102 266.009C156.423 265.74 155.732 265.58 155.03 265.53V268.497C155.746 268.725 156.281 268.948 156.637 269.167C156.992 269.381 157.254 269.63 157.423 269.912C157.591 270.19 157.676 270.53 157.676 270.931ZM156.514 271.02C156.514 270.691 156.411 270.427 156.206 270.227C156.006 270.021 155.614 269.819 155.03 269.618V272.277C156.019 272.141 156.514 271.721 156.514 271.02ZM152.774 266.774C152.774 267.121 152.877 267.399 153.082 267.608C153.287 267.818 153.643 268.016 154.148 268.203V265.558C153.697 265.631 153.355 265.774 153.123 265.988C152.891 266.198 152.774 266.46 152.774 266.774ZM162.413 267.896C163.466 267.896 164.293 268.158 164.895 268.682C165.501 269.201 165.804 269.914 165.804 270.821C165.804 271.856 165.473 272.667 164.812 273.255C164.156 273.843 163.249 274.137 162.092 274.137C160.966 274.137 160.107 273.957 159.515 273.597V272.503C159.834 272.708 160.23 272.87 160.704 272.988C161.178 273.102 161.645 273.159 162.105 273.159C162.908 273.159 163.53 272.97 163.972 272.592C164.418 272.214 164.642 271.667 164.642 270.951C164.642 269.557 163.787 268.859 162.078 268.859C161.645 268.859 161.066 268.925 160.342 269.058L159.754 268.682L160.13 264.006H165.1V265.052H161.101L160.848 268.053C161.372 267.948 161.894 267.896 162.413 267.896ZM173.925 268.989C173.925 270.716 173.651 272.006 173.104 272.858C172.562 273.711 171.73 274.137 170.609 274.137C169.534 274.137 168.716 273.701 168.155 272.831C167.595 271.956 167.314 270.675 167.314 268.989C167.314 267.248 167.586 265.956 168.128 265.113C168.67 264.27 169.497 263.849 170.609 263.849C171.694 263.849 172.517 264.288 173.077 265.168C173.642 266.048 173.925 267.321 173.925 268.989ZM168.463 268.989C168.463 270.443 168.634 271.503 168.976 272.168C169.317 272.829 169.862 273.159 170.609 273.159C171.366 273.159 171.913 272.824 172.25 272.154C172.592 271.48 172.763 270.425 172.763 268.989C172.763 267.554 172.592 266.503 172.25 265.838C171.913 265.168 171.366 264.833 170.609 264.833C169.862 264.833 169.317 265.163 168.976 265.824C168.634 266.48 168.463 267.535 168.463 268.989ZM181.937 268.989C181.937 270.716 181.663 272.006 181.116 272.858C180.574 273.711 179.742 274.137 178.621 274.137C177.546 274.137 176.728 273.701 176.167 272.831C175.606 271.956 175.326 270.675 175.326 268.989C175.326 267.248 175.597 265.956 176.14 265.113C176.682 264.27 177.509 263.849 178.621 263.849C179.706 263.849 180.528 264.288 181.089 265.168C181.654 266.048 181.937 267.321 181.937 268.989ZM176.475 268.989C176.475 270.443 176.646 271.503 176.987 272.168C177.329 272.829 177.874 273.159 178.621 273.159C179.378 273.159 179.924 272.824 180.262 272.154C180.604 271.48 180.774 270.425 180.774 268.989C180.774 267.554 180.604 266.503 180.262 265.838C179.924 265.168 179.378 264.833 178.621 264.833C177.874 264.833 177.329 265.163 176.987 265.824C176.646 266.48 176.475 267.535 176.475 268.989ZM185.033 272.373L185.136 272.53C185.017 272.986 184.846 273.515 184.623 274.116C184.4 274.722 184.167 275.285 183.926 275.805H183.071C183.194 275.331 183.329 274.745 183.475 274.048C183.625 273.351 183.73 272.792 183.789 272.373H185.033ZM193.38 268.989C193.38 270.716 193.106 272.006 192.56 272.858C192.017 273.711 191.186 274.137 190.064 274.137C188.989 274.137 188.171 273.701 187.61 272.831C187.05 271.956 186.77 270.675 186.77 268.989C186.77 267.248 187.041 265.956 187.583 265.113C188.125 264.27 188.952 263.849 190.064 263.849C191.149 263.849 191.972 264.288 192.532 265.168C193.097 266.048 193.38 267.321 193.38 268.989ZM187.918 268.989C187.918 270.443 188.089 271.503 188.431 272.168C188.772 272.829 189.317 273.159 190.064 273.159C190.821 273.159 191.368 272.824 191.705 272.154C192.047 271.48 192.218 270.425 192.218 268.989C192.218 267.554 192.047 266.503 191.705 265.838C191.368 265.168 190.821 264.833 190.064 264.833C189.317 264.833 188.772 265.163 188.431 265.824C188.089 266.48 187.918 267.535 187.918 268.989ZM201.392 268.989C201.392 270.716 201.118 272.006 200.571 272.858C200.029 273.711 199.197 274.137 198.076 274.137C197.001 274.137 196.183 273.701 195.622 272.831C195.062 271.956 194.781 270.675 194.781 268.989C194.781 267.248 195.052 265.956 195.595 265.113C196.137 264.27 196.964 263.849 198.076 263.849C199.161 263.849 199.983 264.288 200.544 265.168C201.109 266.048 201.392 267.321 201.392 268.989ZM195.93 268.989C195.93 270.443 196.101 271.503 196.442 272.168C196.784 272.829 197.329 273.159 198.076 273.159C198.833 273.159 199.38 272.824 199.717 272.154C200.059 271.48 200.229 270.425 200.229 268.989C200.229 267.554 200.059 266.503 199.717 265.838C199.38 265.168 198.833 264.833 198.076 264.833C197.329 264.833 196.784 265.163 196.442 265.824C196.101 266.48 195.93 267.535 195.93 268.989ZM209.403 268.989C209.403 270.716 209.13 272.006 208.583 272.858C208.041 273.711 207.209 274.137 206.088 274.137C205.012 274.137 204.194 273.701 203.634 272.831C203.073 271.956 202.793 270.675 202.793 268.989C202.793 267.248 203.064 265.956 203.606 265.113C204.149 264.27 204.976 263.849 206.088 263.849C207.173 263.849 207.995 264.288 208.556 265.168C209.121 266.048 209.403 267.321 209.403 268.989ZM203.941 268.989C203.941 270.443 204.112 271.503 204.454 272.168C204.796 272.829 205.34 273.159 206.088 273.159C206.844 273.159 207.391 272.824 207.729 272.154C208.07 271.48 208.241 270.425 208.241 268.989C208.241 267.554 208.07 266.503 207.729 265.838C207.391 265.168 206.844 264.833 206.088 264.833C205.34 264.833 204.796 265.163 204.454 265.824C204.112 266.48 203.941 267.535 203.941 268.989ZM217.121 263.363H218.085V277.391H217.121V263.363ZM227.628 274H226.466V264.006H232.037V265.038H227.628V268.695H231.771V269.728H227.628V274ZM234.662 274H233.527V266.508H234.662V274ZM233.432 264.478C233.432 264.218 233.495 264.029 233.623 263.91C233.751 263.787 233.91 263.726 234.102 263.726C234.284 263.726 234.441 263.787 234.573 263.91C234.705 264.033 234.771 264.222 234.771 264.478C234.771 264.733 234.705 264.924 234.573 265.052C234.441 265.175 234.284 265.236 234.102 265.236C233.91 265.236 233.751 265.175 233.623 265.052C233.495 264.924 233.432 264.733 233.432 264.478ZM238.203 274H237.068V263.363H238.203V274ZM243.774 274.137C242.667 274.137 241.792 273.799 241.149 273.125C240.511 272.451 240.192 271.514 240.192 270.315C240.192 269.108 240.489 268.148 241.081 267.438C241.678 266.727 242.478 266.371 243.48 266.371C244.419 266.371 245.162 266.681 245.709 267.301C246.256 267.916 246.529 268.729 246.529 269.741V270.459H241.368C241.391 271.339 241.612 272.006 242.031 272.462C242.455 272.918 243.05 273.146 243.815 273.146C244.622 273.146 245.42 272.977 246.208 272.64V273.651C245.807 273.825 245.426 273.948 245.066 274.021C244.711 274.098 244.28 274.137 243.774 274.137ZM243.467 267.321C242.865 267.321 242.384 267.517 242.024 267.909C241.669 268.301 241.459 268.843 241.396 269.536H245.312C245.312 268.821 245.153 268.274 244.834 267.896C244.515 267.513 244.059 267.321 243.467 267.321ZM253.974 267.854L253.522 270.179H255.457V271.061H253.358L252.784 274H251.848L252.422 271.061H250.351L249.79 274H248.86L249.407 271.061H247.616V270.179H249.578L250.043 267.854H248.149V266.986H250.193L250.754 264.006H251.704L251.144 266.986H253.229L253.803 264.006H254.719L254.145 266.986H255.949V267.854H253.974ZM250.515 270.179H252.586L253.037 267.854H250.966L250.515 270.179ZM264.843 274H263.735V266.877C263.735 266.285 263.754 265.724 263.79 265.195C263.694 265.291 263.587 265.391 263.469 265.496C263.35 265.601 262.808 266.045 261.842 266.829L261.24 266.05L263.886 264.006H264.843V274ZM275.22 274H268.65V273.022L271.282 270.377C272.084 269.566 272.613 268.987 272.868 268.641C273.123 268.294 273.315 267.957 273.442 267.629C273.57 267.301 273.634 266.948 273.634 266.569C273.634 266.036 273.472 265.615 273.148 265.305C272.825 264.99 272.376 264.833 271.802 264.833C271.387 264.833 270.993 264.901 270.619 265.038C270.25 265.175 269.838 265.423 269.382 265.783L268.78 265.011C269.701 264.245 270.703 263.862 271.788 263.862C272.727 263.862 273.463 264.104 273.996 264.587C274.529 265.065 274.796 265.71 274.796 266.521C274.796 267.155 274.618 267.782 274.263 268.401C273.907 269.021 273.242 269.805 272.267 270.753L270.079 272.893V272.947H275.22V274ZM282.855 266.357C282.855 266.995 282.675 267.517 282.315 267.923C281.96 268.328 281.454 268.6 280.798 268.736V268.791C281.6 268.891 282.195 269.146 282.582 269.557C282.969 269.967 283.163 270.505 283.163 271.17C283.163 272.122 282.833 272.856 282.172 273.371C281.511 273.882 280.572 274.137 279.355 274.137C278.827 274.137 278.341 274.096 277.899 274.014C277.462 273.936 277.036 273.797 276.621 273.597V272.517C277.054 272.731 277.514 272.895 278.002 273.009C278.494 273.118 278.959 273.173 279.396 273.173C281.124 273.173 281.987 272.496 281.987 271.143C281.987 269.93 281.035 269.324 279.13 269.324H278.146V268.347H279.144C279.923 268.347 280.54 268.176 280.996 267.834C281.452 267.488 281.68 267.009 281.68 266.398C281.68 265.911 281.511 265.528 281.174 265.25C280.841 264.972 280.388 264.833 279.813 264.833C279.376 264.833 278.964 264.892 278.576 265.011C278.189 265.129 277.747 265.348 277.25 265.667L276.676 264.901C277.086 264.578 277.558 264.325 278.091 264.143C278.629 263.956 279.194 263.862 279.786 263.862C280.757 263.862 281.511 264.086 282.049 264.532C282.587 264.974 282.855 265.583 282.855 266.357ZM291.715 271.703H290.231V274H289.145V271.703H284.284V270.712L289.028 263.951H290.231V270.671H291.715V271.703ZM289.145 270.671V267.349C289.145 266.697 289.167 265.961 289.213 265.141H289.158C288.939 265.578 288.734 265.94 288.543 266.228L285.419 270.671H289.145ZM295.81 267.896C296.862 267.896 297.689 268.158 298.291 268.682C298.897 269.201 299.2 269.914 299.2 270.821C299.2 271.856 298.87 272.667 298.209 273.255C297.553 273.843 296.646 274.137 295.488 274.137C294.363 274.137 293.504 273.957 292.911 273.597V272.503C293.23 272.708 293.627 272.87 294.101 272.988C294.575 273.102 295.042 273.159 295.502 273.159C296.304 273.159 296.926 272.97 297.368 272.592C297.815 272.214 298.038 271.667 298.038 270.951C298.038 269.557 297.184 268.859 295.475 268.859C295.042 268.859 294.463 268.925 293.738 269.058L293.15 268.682L293.526 264.006H298.496V265.052H294.497L294.244 268.053C294.768 267.948 295.29 267.896 295.81 267.896ZM300.813 269.728C300.813 267.763 301.194 266.296 301.955 265.325C302.721 264.35 303.851 263.862 305.346 263.862C305.861 263.862 306.266 263.906 306.562 263.992V264.97C306.212 264.856 305.811 264.799 305.359 264.799C304.288 264.799 303.47 265.134 302.905 265.804C302.34 266.469 302.03 267.517 301.976 268.948H302.058C302.559 268.164 303.352 267.772 304.437 267.772C305.334 267.772 306.041 268.044 306.556 268.586C307.075 269.128 307.335 269.864 307.335 270.794C307.335 271.833 307.05 272.651 306.48 273.248C305.915 273.84 305.15 274.137 304.184 274.137C303.149 274.137 302.329 273.749 301.723 272.975C301.117 272.195 300.813 271.113 300.813 269.728ZM304.17 273.173C304.817 273.173 305.318 272.97 305.674 272.564C306.034 272.154 306.214 271.564 306.214 270.794C306.214 270.133 306.048 269.614 305.715 269.235C305.382 268.857 304.885 268.668 304.225 268.668C303.814 268.668 303.438 268.752 303.097 268.921C302.755 269.09 302.481 269.322 302.276 269.618C302.076 269.914 301.976 270.222 301.976 270.541C301.976 271.01 302.067 271.448 302.249 271.854C302.431 272.259 302.689 272.58 303.021 272.817C303.359 273.054 303.742 273.173 304.17 273.173ZM309.974 274L314.116 265.052H308.668V264.006H315.319V264.915L311.231 274H309.974ZM320.029 263.862C320.941 263.862 321.663 264.074 322.196 264.498C322.729 264.922 322.996 265.507 322.996 266.255C322.996 266.747 322.843 267.196 322.538 267.602C322.233 268.007 321.745 268.376 321.075 268.709C321.886 269.096 322.463 269.504 322.805 269.933C323.146 270.356 323.317 270.849 323.317 271.409C323.317 272.239 323.028 272.902 322.449 273.398C321.87 273.891 321.077 274.137 320.07 274.137C319.004 274.137 318.184 273.904 317.609 273.439C317.035 272.97 316.748 272.307 316.748 271.45C316.748 270.306 317.445 269.415 318.84 268.777C318.211 268.422 317.76 268.039 317.486 267.629C317.213 267.214 317.076 266.752 317.076 266.241C317.076 265.517 317.343 264.94 317.876 264.512C318.414 264.079 319.132 263.862 320.029 263.862ZM317.869 271.478C317.869 272.024 318.058 272.451 318.437 272.756C318.819 273.061 319.355 273.214 320.043 273.214C320.722 273.214 321.251 273.054 321.629 272.735C322.007 272.416 322.196 271.979 322.196 271.423C322.196 270.981 322.019 270.589 321.663 270.247C321.308 269.901 320.688 269.566 319.804 269.242C319.125 269.534 318.632 269.857 318.327 270.213C318.022 270.564 317.869 270.985 317.869 271.478ZM320.016 264.785C319.446 264.785 318.999 264.922 318.676 265.195C318.352 265.469 318.19 265.833 318.19 266.289C318.19 266.708 318.325 267.068 318.594 267.369C318.863 267.67 319.359 267.971 320.084 268.271C320.736 267.998 321.196 267.704 321.465 267.39C321.738 267.075 321.875 266.708 321.875 266.289C321.875 265.829 321.709 265.464 321.376 265.195C321.048 264.922 320.594 264.785 320.016 264.785ZM331.302 268.271C331.302 272.182 329.789 274.137 326.763 274.137C326.234 274.137 325.815 274.091 325.505 274V273.022C325.869 273.141 326.284 273.2 326.749 273.2C327.843 273.2 328.668 272.863 329.224 272.188C329.784 271.509 330.09 270.47 330.14 269.071H330.058C329.807 269.45 329.474 269.739 329.06 269.939C328.645 270.135 328.178 270.233 327.658 270.233C326.774 270.233 326.072 269.969 325.553 269.44C325.033 268.912 324.773 268.174 324.773 267.226C324.773 266.187 325.063 265.366 325.642 264.765C326.225 264.163 326.991 263.862 327.938 263.862C328.618 263.862 329.21 264.038 329.716 264.389C330.226 264.735 330.618 265.243 330.892 265.913C331.165 266.578 331.302 267.365 331.302 268.271ZM327.938 264.833C327.287 264.833 326.783 265.043 326.428 265.462C326.072 265.881 325.895 266.465 325.895 267.212C325.895 267.868 326.059 268.385 326.387 268.764C326.715 269.137 327.214 269.324 327.884 269.324C328.299 269.324 328.679 269.24 329.025 269.071C329.376 268.903 329.652 268.673 329.853 268.381C330.053 268.089 330.153 267.784 330.153 267.465C330.153 266.986 330.06 266.544 329.873 266.139C329.686 265.733 329.424 265.414 329.087 265.182C328.754 264.949 328.371 264.833 327.938 264.833Z" fill="#222222"/>
<path d="M112.374 244.006H115.197C116.523 244.006 117.483 244.204 118.075 244.601C118.668 244.997 118.964 245.624 118.964 246.48C118.964 247.073 118.798 247.563 118.465 247.95C118.137 248.333 117.656 248.581 117.022 248.695V248.764C118.54 249.023 119.299 249.821 119.299 251.156C119.299 252.049 118.996 252.747 118.39 253.248C117.788 253.749 116.945 254 115.86 254H112.374V244.006ZM113.536 248.285H115.45C116.271 248.285 116.861 248.158 117.221 247.902C117.581 247.643 117.761 247.207 117.761 246.597C117.761 246.036 117.56 245.633 117.159 245.387C116.758 245.136 116.12 245.011 115.245 245.011H113.536V248.285ZM113.536 249.27V253.009H115.621C116.428 253.009 117.034 252.854 117.439 252.544C117.85 252.229 118.055 251.74 118.055 251.074C118.055 250.454 117.845 249.999 117.426 249.707C117.011 249.415 116.378 249.27 115.525 249.27H113.536ZM122.348 246.508V251.368C122.348 251.979 122.487 252.435 122.765 252.735C123.043 253.036 123.478 253.187 124.07 253.187C124.854 253.187 125.426 252.972 125.786 252.544C126.151 252.116 126.333 251.416 126.333 250.445V246.508H127.468V254H126.531L126.367 252.995H126.306C126.073 253.364 125.75 253.647 125.335 253.843C124.925 254.039 124.455 254.137 123.927 254.137C123.015 254.137 122.332 253.92 121.876 253.487C121.425 253.054 121.199 252.362 121.199 251.409V246.508H122.348ZM128.691 246.508H129.908L131.549 250.78C131.909 251.756 132.132 252.46 132.219 252.893H132.273C132.333 252.66 132.456 252.264 132.643 251.703C132.834 251.138 133.454 249.406 134.502 246.508H135.719L132.499 255.039C132.18 255.882 131.806 256.479 131.378 256.83C130.954 257.186 130.432 257.363 129.812 257.363C129.466 257.363 129.124 257.325 128.787 257.247V256.338C129.038 256.393 129.318 256.42 129.628 256.42C130.407 256.42 130.963 255.982 131.296 255.107L131.713 254.041L128.691 246.508ZM140.101 254.137C138.993 254.137 138.118 253.799 137.476 253.125C136.838 252.451 136.519 251.514 136.519 250.315C136.519 249.108 136.815 248.148 137.407 247.438C138.004 246.727 138.804 246.371 139.807 246.371C140.745 246.371 141.488 246.681 142.035 247.301C142.582 247.916 142.855 248.729 142.855 249.741V250.459H137.694C137.717 251.339 137.938 252.006 138.357 252.462C138.781 252.918 139.376 253.146 140.142 253.146C140.948 253.146 141.746 252.977 142.534 252.64V253.651C142.133 253.825 141.753 253.948 141.393 254.021C141.037 254.098 140.606 254.137 140.101 254.137ZM139.793 247.321C139.191 247.321 138.711 247.517 138.351 247.909C137.995 248.301 137.785 248.843 137.722 249.536H141.639C141.639 248.821 141.479 248.274 141.16 247.896C140.841 247.513 140.385 247.321 139.793 247.321ZM148.215 246.371C148.548 246.371 148.846 246.398 149.11 246.453L148.953 247.506C148.643 247.438 148.37 247.403 148.133 247.403C147.527 247.403 147.007 247.649 146.574 248.142C146.146 248.634 145.932 249.247 145.932 249.98V254H144.797V246.508H145.733L145.863 247.896H145.918C146.196 247.408 146.531 247.032 146.923 246.768C147.315 246.503 147.745 246.371 148.215 246.371ZM150.348 253.275C150.348 252.97 150.416 252.74 150.553 252.585C150.694 252.425 150.895 252.346 151.154 252.346C151.419 252.346 151.624 252.425 151.77 252.585C151.92 252.74 151.995 252.97 151.995 253.275C151.995 253.572 151.92 253.799 151.77 253.959C151.619 254.118 151.414 254.198 151.154 254.198C150.922 254.198 150.728 254.128 150.573 253.986C150.423 253.84 150.348 253.604 150.348 253.275ZM150.348 247.239C150.348 246.624 150.617 246.316 151.154 246.316C151.715 246.316 151.995 246.624 151.995 247.239C151.995 247.535 151.92 247.763 151.77 247.923C151.619 248.082 151.414 248.162 151.154 248.162C150.922 248.162 150.728 248.091 150.573 247.95C150.423 247.804 150.348 247.567 150.348 247.239ZM163.691 251.341C163.691 252.22 163.372 252.906 162.734 253.398C162.096 253.891 161.23 254.137 160.137 254.137C158.952 254.137 158.04 253.984 157.402 253.679V252.558C157.812 252.731 158.259 252.868 158.742 252.968C159.225 253.068 159.704 253.118 160.178 253.118C160.952 253.118 161.536 252.972 161.928 252.681C162.32 252.384 162.516 251.974 162.516 251.45C162.516 251.104 162.445 250.821 162.304 250.603C162.167 250.379 161.935 250.174 161.606 249.987C161.283 249.8 160.788 249.589 160.123 249.352C159.193 249.019 158.528 248.625 158.127 248.169C157.73 247.713 157.532 247.118 157.532 246.385C157.532 245.615 157.822 245.002 158.4 244.546C158.979 244.09 159.745 243.862 160.697 243.862C161.691 243.862 162.604 244.045 163.438 244.409L163.076 245.421C162.251 245.075 161.449 244.901 160.67 244.901C160.055 244.901 159.574 245.034 159.228 245.298C158.881 245.562 158.708 245.929 158.708 246.398C158.708 246.745 158.772 247.03 158.899 247.253C159.027 247.472 159.241 247.674 159.542 247.861C159.847 248.044 160.312 248.246 160.937 248.47C161.985 248.843 162.705 249.244 163.097 249.673C163.493 250.101 163.691 250.657 163.691 251.341ZM166.699 254H165.564V246.508H166.699V254ZM165.469 244.478C165.469 244.218 165.533 244.029 165.66 243.91C165.788 243.787 165.947 243.726 166.139 243.726C166.321 243.726 166.478 243.787 166.61 243.91C166.743 244.033 166.809 244.222 166.809 244.478C166.809 244.733 166.743 244.924 166.61 245.052C166.478 245.175 166.321 245.236 166.139 245.236C165.947 245.236 165.788 245.175 165.66 245.052C165.533 244.924 165.469 244.733 165.469 244.478ZM178.655 254V249.126C178.655 248.529 178.528 248.082 178.272 247.786C178.017 247.485 177.621 247.335 177.083 247.335C176.377 247.335 175.855 247.538 175.518 247.943C175.18 248.349 175.012 248.973 175.012 249.816V254H173.877V249.126C173.877 248.529 173.749 248.082 173.494 247.786C173.239 247.485 172.84 247.335 172.298 247.335C171.587 247.335 171.065 247.549 170.732 247.978C170.404 248.401 170.24 249.099 170.24 250.069V254H169.105V246.508H170.028L170.213 247.533H170.268C170.482 247.169 170.783 246.884 171.17 246.679C171.562 246.474 171.999 246.371 172.482 246.371C173.654 246.371 174.419 246.795 174.779 247.643H174.834C175.057 247.251 175.381 246.941 175.805 246.713C176.229 246.485 176.712 246.371 177.254 246.371C178.102 246.371 178.735 246.59 179.154 247.027C179.578 247.46 179.79 248.155 179.79 249.112V254H178.655ZM188.602 250.247C188.602 251.468 188.294 252.423 187.679 253.111C187.063 253.795 186.214 254.137 185.129 254.137C184.459 254.137 183.864 253.979 183.345 253.665C182.825 253.351 182.424 252.899 182.142 252.312C181.859 251.724 181.718 251.035 181.718 250.247C181.718 249.026 182.023 248.076 182.634 247.396C183.244 246.713 184.092 246.371 185.177 246.371C186.225 246.371 187.057 246.72 187.672 247.417C188.292 248.114 188.602 249.058 188.602 250.247ZM182.894 250.247C182.894 251.204 183.085 251.933 183.468 252.435C183.851 252.936 184.413 253.187 185.156 253.187C185.899 253.187 186.462 252.938 186.845 252.441C187.232 251.94 187.426 251.209 187.426 250.247C187.426 249.295 187.232 248.572 186.845 248.08C186.462 247.583 185.895 247.335 185.143 247.335C184.4 247.335 183.839 247.579 183.461 248.066C183.083 248.554 182.894 249.281 182.894 250.247ZM195.725 254V249.153C195.725 248.543 195.586 248.087 195.308 247.786C195.03 247.485 194.594 247.335 194.002 247.335C193.218 247.335 192.644 247.547 192.279 247.971C191.915 248.395 191.732 249.094 191.732 250.069V254H190.598V246.508H191.521L191.705 247.533H191.76C191.992 247.164 192.318 246.879 192.737 246.679C193.157 246.474 193.624 246.371 194.139 246.371C195.041 246.371 195.72 246.59 196.176 247.027C196.632 247.46 196.859 248.155 196.859 249.112V254H195.725ZM202.362 254.137C201.255 254.137 200.38 253.799 199.737 253.125C199.099 252.451 198.78 251.514 198.78 250.315C198.78 249.108 199.076 248.148 199.669 247.438C200.266 246.727 201.066 246.371 202.068 246.371C203.007 246.371 203.75 246.681 204.297 247.301C204.844 247.916 205.117 248.729 205.117 249.741V250.459H199.956C199.979 251.339 200.2 252.006 200.619 252.462C201.043 252.918 201.638 253.146 202.403 253.146C203.21 253.146 204.007 252.977 204.796 252.64V253.651C204.395 253.825 204.014 253.948 203.654 254.021C203.299 254.098 202.868 254.137 202.362 254.137ZM202.055 247.321C201.453 247.321 200.972 247.517 200.612 247.909C200.257 248.301 200.047 248.843 199.983 249.536H203.9C203.9 248.821 203.741 248.274 203.422 247.896C203.103 247.513 202.647 247.321 202.055 247.321ZM210.866 254V244.006H212.028V252.947H216.438V254H210.866ZM224.436 250.247C224.436 251.468 224.128 252.423 223.513 253.111C222.897 253.795 222.048 254.137 220.963 254.137C220.293 254.137 219.698 253.979 219.179 253.665C218.659 253.351 218.258 252.899 217.976 252.312C217.693 251.724 217.552 251.035 217.552 250.247C217.552 249.026 217.857 248.076 218.468 247.396C219.078 246.713 219.926 246.371 221.011 246.371C222.059 246.371 222.891 246.72 223.506 247.417C224.126 248.114 224.436 249.058 224.436 250.247ZM218.728 250.247C218.728 251.204 218.919 251.933 219.302 252.435C219.685 252.936 220.247 253.187 220.99 253.187C221.733 253.187 222.296 252.938 222.679 252.441C223.066 251.94 223.26 251.209 223.26 250.247C223.26 249.295 223.066 248.572 222.679 248.08C222.296 247.583 221.729 247.335 220.977 247.335C220.234 247.335 219.673 247.579 219.295 248.066C218.917 248.554 218.728 249.281 218.728 250.247ZM231.559 254V249.153C231.559 248.543 231.42 248.087 231.142 247.786C230.864 247.485 230.428 247.335 229.836 247.335C229.052 247.335 228.478 247.547 228.113 247.971C227.749 248.395 227.566 249.094 227.566 250.069V254H226.432V246.508H227.354L227.539 247.533H227.594C227.826 247.164 228.152 246.879 228.571 246.679C228.991 246.474 229.458 246.371 229.973 246.371C230.875 246.371 231.554 246.59 232.01 247.027C232.465 247.46 232.693 248.155 232.693 249.112V254H231.559ZM240.131 252.995H240.069C239.545 253.756 238.761 254.137 237.718 254.137C236.738 254.137 235.975 253.802 235.428 253.132C234.885 252.462 234.614 251.509 234.614 250.274C234.614 249.039 234.888 248.08 235.435 247.396C235.981 246.713 236.743 246.371 237.718 246.371C238.734 246.371 239.513 246.74 240.056 247.479H240.145L240.097 246.938L240.069 246.412V243.363H241.204V254H240.281L240.131 252.995ZM237.861 253.187C238.636 253.187 239.197 252.977 239.543 252.558C239.894 252.134 240.069 251.452 240.069 250.514V250.274C240.069 249.213 239.892 248.456 239.536 248.005C239.185 247.549 238.622 247.321 237.848 247.321C237.182 247.321 236.672 247.581 236.316 248.101C235.965 248.616 235.79 249.345 235.79 250.288C235.79 251.245 235.965 251.967 236.316 252.455C236.667 252.943 237.182 253.187 237.861 253.187ZM250.084 250.247C250.084 251.468 249.776 252.423 249.161 253.111C248.546 253.795 247.696 254.137 246.611 254.137C245.941 254.137 245.347 253.979 244.827 253.665C244.308 253.351 243.907 252.899 243.624 252.312C243.341 251.724 243.2 251.035 243.2 250.247C243.2 249.026 243.506 248.076 244.116 247.396C244.727 246.713 245.575 246.371 246.659 246.371C247.707 246.371 248.539 246.72 249.154 247.417C249.774 248.114 250.084 249.058 250.084 250.247ZM244.376 250.247C244.376 251.204 244.567 251.933 244.95 252.435C245.333 252.936 245.896 253.187 246.639 253.187C247.382 253.187 247.944 252.938 248.327 252.441C248.715 251.94 248.908 251.209 248.908 250.247C248.908 249.295 248.715 248.572 248.327 248.08C247.944 247.583 247.377 247.335 246.625 247.335C245.882 247.335 245.322 247.579 244.943 248.066C244.565 248.554 244.376 249.281 244.376 250.247ZM257.207 254V249.153C257.207 248.543 257.068 248.087 256.79 247.786C256.512 247.485 256.077 247.335 255.484 247.335C254.701 247.335 254.126 247.547 253.762 247.971C253.397 248.395 253.215 249.094 253.215 250.069V254H252.08V246.508H253.003L253.188 247.533H253.242C253.475 247.164 253.8 246.879 254.22 246.679C254.639 246.474 255.106 246.371 255.621 246.371C256.523 246.371 257.202 246.59 257.658 247.027C258.114 247.46 258.342 248.155 258.342 249.112V254H257.207Z" fill="#222222"/>
<path d="M118.014 225.341C118.014 226.22 117.695 226.906 117.057 227.398C116.419 227.891 115.553 228.137 114.459 228.137C113.274 228.137 112.363 227.984 111.725 227.679V226.558C112.135 226.731 112.581 226.868 113.064 226.968C113.548 227.068 114.026 227.118 114.5 227.118C115.275 227.118 115.858 226.972 116.25 226.681C116.642 226.384 116.838 225.974 116.838 225.45C116.838 225.104 116.767 224.821 116.626 224.603C116.489 224.379 116.257 224.174 115.929 223.987C115.605 223.8 115.111 223.589 114.445 223.352C113.516 223.019 112.85 222.625 112.449 222.169C112.053 221.713 111.854 221.118 111.854 220.385C111.854 219.615 112.144 219.002 112.723 218.546C113.301 218.09 114.067 217.862 115.02 217.862C116.013 217.862 116.927 218.045 117.761 218.409L117.398 219.421C116.574 219.075 115.771 218.901 114.992 218.901C114.377 218.901 113.896 219.034 113.55 219.298C113.203 219.562 113.03 219.929 113.03 220.398C113.03 220.745 113.094 221.03 113.222 221.253C113.349 221.472 113.563 221.674 113.864 221.861C114.17 222.044 114.634 222.246 115.259 222.47C116.307 222.843 117.027 223.244 117.419 223.673C117.815 224.101 118.014 224.657 118.014 225.341ZM123.052 228.137C121.944 228.137 121.069 227.799 120.427 227.125C119.789 226.451 119.47 225.514 119.47 224.315C119.47 223.108 119.766 222.148 120.358 221.438C120.955 220.727 121.755 220.371 122.758 220.371C123.697 220.371 124.439 220.681 124.986 221.301C125.533 221.916 125.807 222.729 125.807 223.741V224.459H120.646C120.668 225.339 120.889 226.006 121.309 226.462C121.732 226.918 122.327 227.146 123.093 227.146C123.899 227.146 124.697 226.977 125.485 226.64V227.651C125.084 227.825 124.704 227.948 124.344 228.021C123.988 228.098 123.558 228.137 123.052 228.137ZM122.744 221.321C122.143 221.321 121.662 221.517 121.302 221.909C120.946 222.301 120.737 222.843 120.673 223.536H124.59C124.59 222.821 124.43 222.274 124.111 221.896C123.792 221.513 123.337 221.321 122.744 221.321ZM132.355 228L132.13 226.934H132.075C131.701 227.403 131.328 227.722 130.954 227.891C130.585 228.055 130.122 228.137 129.566 228.137C128.824 228.137 128.24 227.945 127.816 227.562C127.397 227.18 127.188 226.635 127.188 225.929C127.188 224.416 128.397 223.623 130.817 223.55L132.089 223.509V223.044C132.089 222.456 131.961 222.023 131.706 221.745C131.455 221.463 131.052 221.321 130.496 221.321C129.872 221.321 129.165 221.513 128.377 221.896L128.028 221.027C128.397 220.827 128.801 220.67 129.238 220.556C129.68 220.442 130.122 220.385 130.564 220.385C131.458 220.385 132.118 220.583 132.547 220.979C132.98 221.376 133.196 222.012 133.196 222.887V228H132.355ZM129.792 227.2C130.498 227.2 131.052 227.007 131.453 226.619C131.859 226.232 132.062 225.689 132.062 224.992V224.315L130.927 224.363C130.024 224.395 129.373 224.536 128.972 224.787C128.575 225.033 128.377 225.418 128.377 225.942C128.377 226.353 128.5 226.665 128.746 226.879C128.997 227.093 129.345 227.2 129.792 227.2ZM137.961 227.2C138.161 227.2 138.355 227.187 138.542 227.159C138.729 227.127 138.877 227.095 138.986 227.063V227.932C138.863 227.991 138.681 228.039 138.439 228.075C138.202 228.116 137.988 228.137 137.797 228.137C136.348 228.137 135.623 227.373 135.623 225.847V221.39H134.55V220.843L135.623 220.371L136.102 218.771H136.758V220.508H138.932V221.39H136.758V225.799C136.758 226.25 136.865 226.596 137.079 226.838C137.293 227.079 137.587 227.2 137.961 227.2ZM142.91 227.2C143.111 227.2 143.304 227.187 143.491 227.159C143.678 227.127 143.826 227.095 143.936 227.063V227.932C143.812 227.991 143.63 228.039 143.389 228.075C143.152 228.116 142.938 228.137 142.746 228.137C141.297 228.137 140.572 227.373 140.572 225.847V221.39H139.499V220.843L140.572 220.371L141.051 218.771H141.707V220.508H143.881V221.39H141.707V225.799C141.707 226.25 141.814 226.596 142.028 226.838C142.243 227.079 142.536 227.2 142.91 227.2ZM146.574 228H145.439V217.363H146.574V228ZM152.146 228.137C151.038 228.137 150.163 227.799 149.521 227.125C148.882 226.451 148.563 225.514 148.563 224.315C148.563 223.108 148.86 222.148 149.452 221.438C150.049 220.727 150.849 220.371 151.852 220.371C152.79 220.371 153.533 220.681 154.08 221.301C154.627 221.916 154.9 222.729 154.9 223.741V224.459H149.739C149.762 225.339 149.983 226.006 150.402 226.462C150.826 226.918 151.421 227.146 152.187 227.146C152.993 227.146 153.791 226.977 154.579 226.64V227.651C154.178 227.825 153.798 227.948 153.438 228.021C153.082 228.098 152.651 228.137 152.146 228.137ZM151.838 221.321C151.236 221.321 150.756 221.517 150.396 221.909C150.04 222.301 149.83 222.843 149.767 223.536H153.684C153.684 222.821 153.524 222.274 153.205 221.896C152.886 221.513 152.43 221.321 151.838 221.321ZM158.031 226.373L158.134 226.53C158.015 226.986 157.844 227.515 157.621 228.116C157.398 228.722 157.165 229.285 156.924 229.805H156.069C156.192 229.331 156.327 228.745 156.473 228.048C156.623 227.351 156.728 226.792 156.787 226.373H158.031ZM172.804 228H171.655L169.639 221.308C169.543 221.011 169.436 220.638 169.317 220.187C169.199 219.735 169.137 219.464 169.133 219.373C169.033 219.975 168.873 220.633 168.654 221.349L166.699 228H165.551L162.892 218.006H164.122L165.701 224.179C165.92 225.045 166.079 225.828 166.18 226.53C166.303 225.696 166.485 224.881 166.727 224.083L168.518 218.006H169.748L171.628 224.138C171.847 224.844 172.031 225.642 172.182 226.53C172.268 225.883 172.432 225.095 172.674 224.165L174.246 218.006H175.477L172.804 228ZM183.324 228L182.08 224.821H178.074L176.844 228H175.668L179.619 217.965H180.597L184.527 228H183.324ZM181.718 223.775L180.556 220.679C180.405 220.287 180.25 219.806 180.091 219.236C179.991 219.674 179.847 220.155 179.66 220.679L178.484 223.775H181.718ZM195.417 222.271C195.417 226.182 193.904 228.137 190.878 228.137C190.349 228.137 189.93 228.091 189.62 228V227.022C189.985 227.141 190.399 227.2 190.864 227.2C191.958 227.2 192.783 226.863 193.339 226.188C193.899 225.509 194.205 224.47 194.255 223.071H194.173C193.922 223.45 193.59 223.739 193.175 223.939C192.76 224.135 192.293 224.233 191.773 224.233C190.889 224.233 190.188 223.969 189.668 223.44C189.148 222.912 188.889 222.174 188.889 221.226C188.889 220.187 189.178 219.366 189.757 218.765C190.34 218.163 191.106 217.862 192.054 217.862C192.733 217.862 193.325 218.038 193.831 218.389C194.341 218.735 194.733 219.243 195.007 219.913C195.28 220.578 195.417 221.365 195.417 222.271ZM192.054 218.833C191.402 218.833 190.898 219.043 190.543 219.462C190.188 219.881 190.01 220.465 190.01 221.212C190.01 221.868 190.174 222.385 190.502 222.764C190.83 223.137 191.329 223.324 191.999 223.324C192.414 223.324 192.794 223.24 193.141 223.071C193.492 222.903 193.767 222.673 193.968 222.381C194.168 222.089 194.269 221.784 194.269 221.465C194.269 220.986 194.175 220.544 193.988 220.139C193.801 219.733 193.539 219.414 193.202 219.182C192.869 218.949 192.487 218.833 192.054 218.833ZM200.168 217.862C201.079 217.862 201.802 218.074 202.335 218.498C202.868 218.922 203.135 219.507 203.135 220.255C203.135 220.747 202.982 221.196 202.677 221.602C202.371 222.007 201.884 222.376 201.214 222.709C202.025 223.096 202.602 223.504 202.943 223.933C203.285 224.356 203.456 224.849 203.456 225.409C203.456 226.239 203.167 226.902 202.588 227.398C202.009 227.891 201.216 228.137 200.209 228.137C199.143 228.137 198.322 227.904 197.748 227.439C197.174 226.97 196.887 226.307 196.887 225.45C196.887 224.306 197.584 223.415 198.979 222.777C198.35 222.422 197.898 222.039 197.625 221.629C197.352 221.214 197.215 220.752 197.215 220.241C197.215 219.517 197.481 218.94 198.015 218.512C198.552 218.079 199.27 217.862 200.168 217.862ZM198.008 225.478C198.008 226.024 198.197 226.451 198.575 226.756C198.958 227.061 199.493 227.214 200.182 227.214C200.861 227.214 201.389 227.054 201.768 226.735C202.146 226.416 202.335 225.979 202.335 225.423C202.335 224.981 202.157 224.589 201.802 224.247C201.446 223.901 200.826 223.566 199.942 223.242C199.263 223.534 198.771 223.857 198.466 224.213C198.16 224.564 198.008 224.985 198.008 225.478ZM200.154 218.785C199.585 218.785 199.138 218.922 198.814 219.195C198.491 219.469 198.329 219.833 198.329 220.289C198.329 220.708 198.464 221.068 198.732 221.369C199.001 221.67 199.498 221.971 200.223 222.271C200.874 221.998 201.335 221.704 201.604 221.39C201.877 221.075 202.014 220.708 202.014 220.289C202.014 219.829 201.847 219.464 201.515 219.195C201.187 218.922 200.733 218.785 200.154 218.785ZM209.075 228H207.968V220.877C207.968 220.285 207.986 219.724 208.022 219.195C207.927 219.291 207.82 219.391 207.701 219.496C207.583 219.601 207.04 220.045 206.074 220.829L205.473 220.05L208.118 218.006H209.075V228ZM219.452 228H212.883V227.022L215.515 224.377C216.317 223.566 216.845 222.987 217.101 222.641C217.356 222.294 217.547 221.957 217.675 221.629C217.802 221.301 217.866 220.948 217.866 220.569C217.866 220.036 217.704 219.615 217.381 219.305C217.057 218.99 216.608 218.833 216.034 218.833C215.619 218.833 215.225 218.901 214.852 219.038C214.482 219.175 214.07 219.423 213.614 219.783L213.013 219.011C213.933 218.245 214.936 217.862 216.021 217.862C216.959 217.862 217.695 218.104 218.229 218.587C218.762 219.065 219.028 219.71 219.028 220.521C219.028 221.155 218.851 221.782 218.495 222.401C218.14 223.021 217.474 223.805 216.499 224.753L214.312 226.893V226.947H219.452V228ZM227.464 228H220.895V227.022L223.526 224.377C224.328 223.566 224.857 222.987 225.112 222.641C225.368 222.294 225.559 221.957 225.687 221.629C225.814 221.301 225.878 220.948 225.878 220.569C225.878 220.036 225.716 219.615 225.393 219.305C225.069 218.99 224.62 218.833 224.046 218.833C223.631 218.833 223.237 218.901 222.863 219.038C222.494 219.175 222.082 219.423 221.626 219.783L221.024 219.011C221.945 218.245 222.948 217.862 224.032 217.862C224.971 217.862 225.707 218.104 226.24 218.587C226.773 219.065 227.04 219.71 227.04 220.521C227.04 221.155 226.862 221.782 226.507 222.401C226.151 223.021 225.486 223.805 224.511 224.753L222.323 226.893V226.947H227.464V228Z" fill="#222222"/>
<path d="M120.501 208H111.791V206.436L115.104 203.104C116.083 202.103 116.73 201.394 117.047 200.978C117.369 200.556 117.604 200.16 117.75 199.791C117.896 199.422 117.97 199.026 117.97 198.604C117.97 198.024 117.794 197.567 117.442 197.233C117.097 196.899 116.616 196.732 116.001 196.732C115.509 196.732 115.031 196.823 114.568 197.005C114.111 197.187 113.581 197.515 112.978 197.989L111.861 196.627C112.576 196.023 113.271 195.596 113.944 195.344C114.618 195.092 115.336 194.966 116.098 194.966C117.293 194.966 118.251 195.279 118.972 195.906C119.692 196.527 120.053 197.365 120.053 198.42C120.053 199 119.947 199.551 119.736 200.072C119.531 200.594 119.212 201.133 118.778 201.689C118.351 202.24 117.636 202.987 116.634 203.931L114.401 206.093V206.181H120.501V208ZM130.301 198.104C130.301 198.918 130.063 199.598 129.589 200.143C129.114 200.682 128.446 201.045 127.585 201.232V201.303C128.616 201.432 129.39 201.754 129.905 202.27C130.421 202.779 130.679 203.459 130.679 204.309C130.679 205.545 130.242 206.5 129.369 207.174C128.496 207.842 127.254 208.176 125.643 208.176C124.219 208.176 123.018 207.944 122.039 207.481V205.645C122.584 205.914 123.161 206.122 123.771 206.269C124.38 206.415 124.966 206.488 125.528 206.488C126.524 206.488 127.269 206.304 127.761 205.935C128.253 205.565 128.499 204.994 128.499 204.221C128.499 203.535 128.227 203.031 127.682 202.709C127.137 202.387 126.281 202.226 125.115 202.226H123.999V200.547H125.133C127.184 200.547 128.209 199.838 128.209 198.42C128.209 197.869 128.03 197.444 127.673 197.146C127.315 196.847 126.788 196.697 126.091 196.697C125.604 196.697 125.136 196.768 124.685 196.908C124.233 197.043 123.7 197.31 123.085 197.708L122.074 196.267C123.252 195.399 124.62 194.966 126.179 194.966C127.474 194.966 128.484 195.244 129.211 195.801C129.938 196.357 130.301 197.125 130.301 198.104ZM141.067 201.575C141.067 203.808 140.707 205.466 139.986 206.55C139.271 207.634 138.176 208.176 136.699 208.176C135.27 208.176 134.186 207.616 133.447 206.497C132.709 205.378 132.34 203.737 132.34 201.575C132.34 199.308 132.697 197.638 133.412 196.565C134.133 195.487 135.229 194.948 136.699 194.948C138.135 194.948 139.222 195.511 139.96 196.636C140.698 197.761 141.067 199.407 141.067 201.575ZM134.432 201.575C134.432 203.327 134.61 204.578 134.968 205.328C135.331 206.078 135.908 206.453 136.699 206.453C137.49 206.453 138.067 206.072 138.431 205.311C138.8 204.549 138.984 203.304 138.984 201.575C138.984 199.853 138.8 198.607 138.431 197.84C138.067 197.066 137.49 196.68 136.699 196.68C135.908 196.68 135.331 197.058 134.968 197.813C134.61 198.569 134.432 199.823 134.432 201.575ZM147 199.976C148.295 199.976 149.32 200.318 150.076 201.004C150.832 201.689 151.21 202.624 151.21 203.808C151.21 205.179 150.779 206.251 149.918 207.024C149.062 207.792 147.844 208.176 146.262 208.176C144.826 208.176 143.698 207.944 142.878 207.481V205.609C143.353 205.879 143.897 206.087 144.513 206.233C145.128 206.38 145.699 206.453 146.227 206.453C147.158 206.453 147.867 206.245 148.354 205.829C148.84 205.413 149.083 204.804 149.083 204.001C149.083 202.466 148.104 201.698 146.147 201.698C145.872 201.698 145.532 201.728 145.128 201.786C144.724 201.839 144.369 201.9 144.064 201.971L143.142 201.426L143.634 195.15H150.313V196.987H145.453L145.163 200.169C145.368 200.134 145.617 200.093 145.91 200.046C146.209 199.999 146.572 199.976 147 199.976ZM160.588 208H158.505V195.15H165.756V196.926H160.588V200.942H165.431V202.727H160.588V208ZM173.947 208L173.534 206.646H173.464C172.995 207.238 172.523 207.643 172.049 207.859C171.574 208.07 170.965 208.176 170.221 208.176C169.266 208.176 168.519 207.918 167.979 207.402C167.446 206.887 167.18 206.157 167.18 205.214C167.18 204.212 167.552 203.456 168.296 202.946C169.04 202.437 170.174 202.158 171.697 202.111L173.376 202.059V201.54C173.376 200.919 173.229 200.456 172.937 200.151C172.649 199.841 172.201 199.686 171.592 199.686C171.094 199.686 170.616 199.759 170.159 199.905C169.702 200.052 169.263 200.225 168.841 200.424L168.173 198.947C168.7 198.672 169.277 198.464 169.904 198.323C170.531 198.177 171.123 198.104 171.68 198.104C172.916 198.104 173.848 198.373 174.475 198.912C175.107 199.451 175.424 200.298 175.424 201.452V208H173.947ZM170.871 206.594C171.621 206.594 172.222 206.386 172.673 205.97C173.13 205.548 173.358 204.959 173.358 204.203V203.359L172.11 203.412C171.138 203.447 170.429 203.611 169.983 203.904C169.544 204.191 169.324 204.634 169.324 205.231C169.324 205.665 169.453 206.002 169.711 206.242C169.969 206.477 170.355 206.594 170.871 206.594ZM180.372 208H178.307V198.279H180.372V208ZM178.184 195.704C178.184 195.335 178.283 195.051 178.482 194.852C178.688 194.652 178.978 194.553 179.353 194.553C179.716 194.553 179.997 194.652 180.196 194.852C180.401 195.051 180.504 195.335 180.504 195.704C180.504 196.056 180.401 196.334 180.196 196.539C179.997 196.738 179.716 196.838 179.353 196.838C178.978 196.838 178.688 196.738 178.482 196.539C178.283 196.334 178.184 196.056 178.184 195.704ZM188.265 198.104C188.681 198.104 189.023 198.133 189.293 198.191L189.091 200.116C188.798 200.046 188.493 200.011 188.177 200.011C187.351 200.011 186.68 200.28 186.164 200.819C185.654 201.358 185.399 202.059 185.399 202.92V208H183.334V198.279H184.951L185.224 199.993H185.329C185.651 199.413 186.07 198.953 186.586 198.613C187.107 198.273 187.667 198.104 188.265 198.104ZM193.318 208L189.627 198.279H191.807L193.784 203.931C194.124 204.88 194.329 205.647 194.399 206.233H194.47C194.522 205.812 194.728 205.044 195.085 203.931L197.062 198.279H199.26L195.551 208H193.318ZM202.802 208H200.736V198.279H202.802V208ZM200.613 195.704C200.613 195.335 200.713 195.051 200.912 194.852C201.117 194.652 201.407 194.553 201.782 194.553C202.146 194.553 202.427 194.652 202.626 194.852C202.831 195.051 202.934 195.335 202.934 195.704C202.934 196.056 202.831 196.334 202.626 196.539C202.427 196.738 202.146 196.838 201.782 196.838C201.407 196.838 201.117 196.738 200.912 196.539C200.713 196.334 200.613 196.056 200.613 195.704ZM210.009 208.176C208.497 208.176 207.313 207.736 206.458 206.857C205.608 205.973 205.184 204.757 205.184 203.21C205.184 201.622 205.579 200.374 206.37 199.466C207.161 198.558 208.248 198.104 209.631 198.104C210.914 198.104 211.928 198.493 212.672 199.272C213.416 200.052 213.788 201.124 213.788 202.489V203.605H207.311C207.34 204.549 207.595 205.275 208.075 205.785C208.556 206.289 209.232 206.541 210.105 206.541C210.68 206.541 211.213 206.488 211.705 206.383C212.203 206.271 212.736 206.09 213.305 205.838V207.517C212.801 207.757 212.291 207.927 211.775 208.026C211.26 208.126 210.671 208.176 210.009 208.176ZM209.631 199.668C208.975 199.668 208.447 199.876 208.049 200.292C207.656 200.708 207.422 201.314 207.346 202.111H211.758C211.746 201.309 211.553 200.702 211.178 200.292C210.803 199.876 210.287 199.668 209.631 199.668ZM224.106 208L222.85 203.465C222.697 202.984 222.422 201.868 222.023 200.116H221.944C221.604 201.698 221.335 202.82 221.136 203.482L219.844 208H217.559L214.834 198.279H216.943L218.183 203.069C218.464 204.253 218.663 205.267 218.78 206.11H218.833C218.892 205.683 218.979 205.193 219.097 204.643C219.22 204.086 219.325 203.67 219.413 203.395L220.89 198.279H223.157L224.59 203.395C224.678 203.682 224.786 204.121 224.915 204.713C225.05 205.305 225.129 205.765 225.152 206.093H225.223C225.311 205.372 225.516 204.364 225.838 203.069L227.095 198.279H229.169L226.427 208H224.106ZM243.715 208L242.432 204.432H237.519L236.262 208H234.047L238.854 195.098H241.14L245.947 208H243.715ZM241.878 202.621L240.674 199.123C240.586 198.889 240.463 198.52 240.305 198.016C240.152 197.512 240.047 197.143 239.988 196.908C239.83 197.629 239.599 198.417 239.294 199.272L238.134 202.621H241.878ZM249.639 208L245.947 198.279H248.127L250.104 203.931C250.444 204.88 250.649 205.647 250.72 206.233H250.79C250.843 205.812 251.048 205.044 251.405 203.931L253.383 198.279H255.58L251.871 208H249.639ZM261.302 208.176C259.79 208.176 258.606 207.736 257.751 206.857C256.901 205.973 256.477 204.757 256.477 203.21C256.477 201.622 256.872 200.374 257.663 199.466C258.454 198.558 259.541 198.104 260.924 198.104C262.207 198.104 263.221 198.493 263.965 199.272C264.709 200.052 265.081 201.124 265.081 202.489V203.605H258.604C258.633 204.549 258.888 205.275 259.368 205.785C259.849 206.289 260.525 206.541 261.398 206.541C261.973 206.541 262.506 206.488 262.998 206.383C263.496 206.271 264.029 206.09 264.598 205.838V207.517C264.094 207.757 263.584 207.927 263.068 208.026C262.553 208.126 261.964 208.176 261.302 208.176ZM260.924 199.668C260.268 199.668 259.74 199.876 259.342 200.292C258.949 200.708 258.715 201.314 258.639 202.111H263.051C263.039 201.309 262.846 200.702 262.471 200.292C262.096 199.876 261.58 199.668 260.924 199.668Z" fill="#222222"/>
<rect x="90" y="180" width="1" height="108" fill="#EBEBEB"/>
<path d="M30 216C30 213.791 31.7909 212 34 212H66C68.2091 212 70 213.791 70 216V252H30V216Z" fill="#F1F1F1"/>
<path fill-rule="evenodd" clip-rule="evenodd" d="M30 216C30 213.791 31.7909 212 34 212H66C68.2091 212 70 213.791 70 216V228H30V216Z" fill="#5C6278"/>
<path d="M46.9531 246H45.1172V238.625C45.1172 237.745 45.138 237.047 45.1797 236.531C45.0599 236.656 44.9115 236.794 44.7344 236.945C44.5625 237.096 43.9792 237.576 42.9844 238.383L42.0625 237.219L45.4219 234.578H46.9531V246ZM58.0156 237.203C58.0156 237.927 57.8047 238.531 57.3828 239.016C56.9609 239.495 56.3672 239.818 55.6016 239.984V240.047C56.5182 240.161 57.2057 240.448 57.6641 240.906C58.1224 241.359 58.3516 241.964 58.3516 242.719C58.3516 243.818 57.9635 244.667 57.1875 245.266C56.4115 245.859 55.3073 246.156 53.875 246.156C52.6094 246.156 51.5417 245.951 50.6719 245.539V243.906C51.1562 244.146 51.6693 244.331 52.2109 244.461C52.7526 244.591 53.2734 244.656 53.7734 244.656C54.6589 244.656 55.3203 244.492 55.7578 244.164C56.1953 243.836 56.4141 243.328 56.4141 242.641C56.4141 242.031 56.1719 241.583 55.6875 241.297C55.2031 241.01 54.4427 240.867 53.4062 240.867H52.4141V239.375H53.4219C55.2448 239.375 56.1562 238.745 56.1562 237.484C56.1562 236.995 55.9974 236.617 55.6797 236.352C55.362 236.086 54.8932 235.953 54.2734 235.953C53.8411 235.953 53.4245 236.016 53.0234 236.141C52.6224 236.26 52.1484 236.497 51.6016 236.852L50.7031 235.57C51.75 234.799 52.9661 234.414 54.3516 234.414C55.5026 234.414 56.401 234.661 57.0469 235.156C57.6927 235.651 58.0156 236.333 58.0156 237.203Z" fill="#353C43"/>
<path d="M45.9277 224H44.4971L40.9863 218.312H40.9473L40.9717 218.629C41.0173 219.234 41.04 219.788 41.04 220.289V224H39.9805V216.861H41.3965L44.8975 222.521H44.9268C44.9202 222.446 44.9072 222.174 44.8877 221.705C44.8682 221.233 44.8584 220.865 44.8584 220.602V216.861H45.9277V224ZM54.1504 220.421C54.1504 221.583 53.859 222.486 53.2764 223.131C52.6969 223.775 51.875 224.098 50.8105 224.098C49.7331 224.098 48.9046 223.779 48.3252 223.141C47.749 222.499 47.4609 221.59 47.4609 220.411C47.4609 219.233 47.7507 218.328 48.3301 217.696C48.9128 217.065 49.7428 216.749 50.8203 216.749C51.8815 216.749 52.7018 217.07 53.2812 217.711C53.8607 218.352 54.1504 219.256 54.1504 220.421ZM48.7012 220.421C48.7012 221.3 48.8786 221.967 49.2334 222.423C49.5882 222.875 50.1139 223.102 50.8105 223.102C51.5039 223.102 52.0264 222.877 52.3779 222.428C52.7327 221.979 52.9102 221.31 52.9102 220.421C52.9102 219.545 52.7344 218.881 52.3828 218.429C52.0345 217.976 51.5137 217.75 50.8203 217.75C50.1204 217.75 49.5915 217.976 49.2334 218.429C48.8786 218.881 48.7012 219.545 48.7012 220.421ZM59.751 216.861H60.9619L58.4619 224H57.2314L54.7412 216.861H55.9424L57.4316 221.3C57.5098 221.511 57.5928 221.785 57.6807 222.12C57.7686 222.452 57.8255 222.7 57.8516 222.862C57.8939 222.615 57.959 222.328 58.0469 222.003C58.1348 221.677 58.2064 221.437 58.2617 221.28L59.751 216.861Z" fill="white"/>
<path d="M34.0605 194.201C33.1191 194.201 32.375 194.516 31.8281 195.145C31.2852 195.77 31.0137 196.627 31.0137 197.717C31.0137 198.838 31.2754 199.705 31.7988 200.318C32.3262 200.928 33.0762 201.232 34.0488 201.232C34.6465 201.232 35.3281 201.125 36.0938 200.91V201.783C35.5 202.006 34.7676 202.117 33.8965 202.117C32.6348 202.117 31.6602 201.734 30.9727 200.969C30.2891 200.203 29.9473 199.115 29.9473 197.705C29.9473 196.822 30.1113 196.049 30.4395 195.385C30.7715 194.721 31.248 194.209 31.8691 193.85C32.4941 193.49 33.2285 193.311 34.0723 193.311C34.9707 193.311 35.7559 193.475 36.4277 193.803L36.0059 194.658C35.3574 194.354 34.709 194.201 34.0605 194.201ZM38.7891 202H37.8164V192.883H38.7891V202ZM46.3945 198.783C46.3945 199.83 46.1309 200.648 45.6035 201.238C45.0762 201.824 44.3477 202.117 43.418 202.117C42.8438 202.117 42.334 201.982 41.8887 201.713C41.4434 201.443 41.0996 201.057 40.8574 200.553C40.6152 200.049 40.4941 199.459 40.4941 198.783C40.4941 197.736 40.7559 196.922 41.2793 196.34C41.8027 195.754 42.5293 195.461 43.459 195.461C44.3574 195.461 45.0703 195.76 45.5977 196.357C46.1289 196.955 46.3945 197.764 46.3945 198.783ZM41.502 198.783C41.502 199.604 41.666 200.229 41.9941 200.658C42.3223 201.088 42.8047 201.303 43.4414 201.303C44.0781 201.303 44.5605 201.09 44.8887 200.664C45.2207 200.234 45.3867 199.607 45.3867 198.783C45.3867 197.967 45.2207 197.348 44.8887 196.926C44.5605 196.5 44.0742 196.287 43.4297 196.287C42.793 196.287 42.3125 196.496 41.9883 196.914C41.6641 197.332 41.502 197.955 41.502 198.783ZM52.248 200.248C52.248 200.846 52.0254 201.307 51.5801 201.631C51.1348 201.955 50.5098 202.117 49.7051 202.117C48.8535 202.117 48.1895 201.982 47.7129 201.713V200.811C48.0215 200.967 48.3516 201.09 48.7031 201.18C49.0586 201.27 49.4004 201.314 49.7285 201.314C50.2363 201.314 50.627 201.234 50.9004 201.074C51.1738 200.91 51.3105 200.662 51.3105 200.33C51.3105 200.08 51.2012 199.867 50.9824 199.691C50.7676 199.512 50.3457 199.301 49.7168 199.059C49.1191 198.836 48.6934 198.643 48.4395 198.479C48.1895 198.311 48.002 198.121 47.877 197.91C47.7559 197.699 47.6953 197.447 47.6953 197.154C47.6953 196.631 47.9082 196.219 48.334 195.918C48.7598 195.613 49.3438 195.461 50.0859 195.461C50.7773 195.461 51.4531 195.602 52.1133 195.883L51.7676 196.674C51.123 196.408 50.5391 196.275 50.0156 196.275C49.5547 196.275 49.207 196.348 48.9727 196.492C48.7383 196.637 48.6211 196.836 48.6211 197.09C48.6211 197.262 48.6641 197.408 48.75 197.529C48.8398 197.65 48.9824 197.766 49.1777 197.875C49.373 197.984 49.748 198.143 50.3027 198.35C51.0645 198.627 51.5781 198.906 51.8438 199.188C52.1133 199.469 52.248 199.822 52.248 200.248ZM54.8086 202H53.8359V195.578H54.8086V202ZM53.7539 193.838C53.7539 193.615 53.8086 193.453 53.918 193.352C54.0273 193.246 54.1641 193.193 54.3281 193.193C54.4844 193.193 54.6191 193.246 54.7324 193.352C54.8457 193.457 54.9023 193.619 54.9023 193.838C54.9023 194.057 54.8457 194.221 54.7324 194.33C54.6191 194.436 54.4844 194.488 54.3281 194.488C54.1641 194.488 54.0273 194.436 53.918 194.33C53.8086 194.221 53.7539 194.057 53.7539 193.838ZM61.2656 202V197.846C61.2656 197.322 61.1465 196.932 60.9082 196.674C60.6699 196.416 60.2969 196.287 59.7891 196.287C59.1172 196.287 58.625 196.469 58.3125 196.832C58 197.195 57.8438 197.795 57.8438 198.631V202H56.8711V195.578H57.6621L57.8203 196.457H57.8672C58.0664 196.141 58.3457 195.896 58.7051 195.725C59.0645 195.549 59.4648 195.461 59.9062 195.461C60.6797 195.461 61.2617 195.648 61.6523 196.023C62.043 196.395 62.2383 196.99 62.2383 197.811V202H61.2656ZM69.498 195.578V196.193L68.3086 196.334C68.418 196.471 68.5156 196.65 68.6016 196.873C68.6875 197.092 68.7305 197.34 68.7305 197.617C68.7305 198.246 68.5156 198.748 68.0859 199.123C67.6562 199.498 67.0664 199.686 66.3164 199.686C66.125 199.686 65.9453 199.67 65.7773 199.639C65.3633 199.857 65.1562 200.133 65.1562 200.465C65.1562 200.641 65.2285 200.771 65.373 200.857C65.5176 200.939 65.7656 200.98 66.1172 200.98H67.2539C67.9492 200.98 68.4824 201.127 68.8535 201.42C69.2285 201.713 69.416 202.139 69.416 202.697C69.416 203.408 69.1309 203.949 68.5605 204.32C67.9902 204.695 67.1582 204.883 66.0645 204.883C65.2246 204.883 64.5762 204.727 64.1191 204.414C63.666 204.102 63.4395 203.66 63.4395 203.09C63.4395 202.699 63.5645 202.361 63.8145 202.076C64.0645 201.791 64.416 201.598 64.8691 201.496C64.7051 201.422 64.5664 201.307 64.4531 201.15C64.3438 200.994 64.2891 200.812 64.2891 200.605C64.2891 200.371 64.3516 200.166 64.4766 199.99C64.6016 199.814 64.7988 199.645 65.0684 199.48C64.7363 199.344 64.4648 199.111 64.2539 198.783C64.0469 198.455 63.9434 198.08 63.9434 197.658C63.9434 196.955 64.1543 196.414 64.5762 196.035C64.998 195.652 65.5957 195.461 66.3691 195.461C66.7051 195.461 67.0078 195.5 67.2773 195.578H69.498ZM64.377 203.078C64.377 203.426 64.5234 203.689 64.8164 203.869C65.1094 204.049 65.5293 204.139 66.0762 204.139C66.8926 204.139 67.4961 204.016 67.8867 203.77C68.2812 203.527 68.4785 203.197 68.4785 202.779C68.4785 202.432 68.3711 202.189 68.1562 202.053C67.9414 201.92 67.5371 201.854 66.9434 201.854H65.7773C65.3359 201.854 64.9922 201.959 64.7461 202.17C64.5 202.381 64.377 202.684 64.377 203.078ZM64.9043 197.635C64.9043 198.084 65.0312 198.424 65.2852 198.654C65.5391 198.885 65.8926 199 66.3457 199C67.2949 199 67.7695 198.539 67.7695 197.617C67.7695 196.652 67.2891 196.17 66.3281 196.17C65.8711 196.17 65.5195 196.293 65.2734 196.539C65.0273 196.785 64.9043 197.15 64.9043 197.635Z" fill="#222222"/>
<path d="M10 14C10 11.7909 11.7909 10 14 10H472C474.209 10 476 11.7909 476 14V180H10V14Z" fill="#E0E6EB"/>
<path d="M10 14C10 11.7909 11.7909 10 14 10H472C474.209 10 476 11.7909 476 14V180H10V14Z" stroke="#C5C5C5"/>
<path fill-rule="evenodd" clip-rule="evenodd" d="M38.8639 180L38.8228 152.448L45.0368 148.293V127.607H59.7819V138.436L64.4643 135.306L90.1058 143.062V158.614H94.0522V150.887L112.489 139.21L120.206 144.108V140.563H125.644V147.56L130.886 150.887V168.62H144.708V148.942L155.212 139.21V135.358H171.018V139.21H181.542L191.408 148.942V164.977H195.364V133.411L200.496 131.121V123.07L208.399 123.306V127.607L217.049 123.732L238.765 133.411V152.448H248.926V124.635L259.186 121.714L275.608 124.635V178.032V180H38.8639Z" fill="url(#paint0_linear)"/>
<path fill-rule="evenodd" clip-rule="evenodd" d="M38.8228 165.697V180H10V105.091L22.427 105.091V122.006H31.9201L33.3542 165.697H38.8228Z" fill="#ECF0F5"/>
<path d="M323 104.939C323 102.73 324.791 100.939 327 100.939H472C474.209 100.939 476 102.73 476 104.939V180H323V104.939Z" fill="#EAEEF1"/>
<mask id="mask0" mask-type="alpha" maskUnits="userSpaceOnUse" x="323" y="100" width="153" height="80">
<path d="M323 104.939C323 102.73 324.791 100.939 327 100.939H472C474.209 100.939 476 102.73 476 104.939V180H323V104.939Z" fill="white"/>
</mask>
<g mask="url(#mask0)">
</g>
<path fill-rule="evenodd" clip-rule="evenodd" d="M455.964 145.301C455.964 134.236 464.935 125.265 476 125.265V180H455.964V145.301Z" fill="#D8DDE2"/>
<path d="M394.036 140.212C394.036 138.003 395.827 136.212 398.036 136.212H402.786C404.995 136.212 406.786 138.003 406.786 140.212V153.241H394.036V140.212Z" fill="#D8DDE2"/>
<path d="M394.036 160.89C394.036 158.681 395.827 156.89 398.036 156.89H402.786C404.995 156.89 406.786 158.681 406.786 160.89V173.918H394.036V160.89Z" fill="#D8DDE2"/>
<path d="M411.036 140.212C411.036 138.003 412.827 136.212 415.036 136.212H419.786C421.995 136.212 423.786 138.003 423.786 140.212V153.241H411.036V140.212Z" fill="#D8DDE2"/>
<path d="M428.036 140.212C428.036 138.003 429.827 136.212 432.036 136.212H436.786C438.995 136.212 440.786 138.003 440.786 140.212V153.241H428.036V140.212Z" fill="#D8DDE2"/>
<path d="M411.036 160.89C411.036 158.681 412.827 156.89 415.036 156.89H419.786C421.995 156.89 423.786 158.681 423.786 160.89V173.918H411.036V160.89Z" fill="#D8DDE2"/>
<path d="M428.036 160.89C428.036 158.681 429.827 156.89 432.036 156.89H436.786C438.995 156.89 440.786 158.681 440.786 160.89V173.918H428.036V160.89Z" fill="#D8DDE2"/>
<path d="M347.199 139.883C347.199 137.674 348.99 135.883 351.199 135.883H352.306C354.515 135.883 356.306 137.674 356.306 139.883V148.402H347.199V139.883Z" fill="#D8DDE2"/>
<path d="M347.199 154.749C347.199 152.54 348.99 150.749 351.199 150.749H352.306C354.515 150.749 356.306 152.54 356.306 154.749V163.267H347.199V154.749Z" fill="#D8DDE2"/>
<path d="M358.908 139.883C358.908 137.674 360.699 135.883 362.908 135.883H364.015C366.224 135.883 368.015 137.674 368.015 139.883V148.402H358.908V139.883Z" fill="#D8DDE2"/>
<path d="M358.908 154.749C358.908 152.54 360.699 150.749 362.908 150.749H364.015C366.224 150.749 368.015 152.54 368.015 154.749V163.267H358.908V154.749Z" fill="#D8DDE2"/>
<path fill-rule="evenodd" clip-rule="evenodd" d="M397.678 100.939V93.6291L465.56 48.0933L476 55.4915V100.939H397.678Z" fill="#D8DDE2"/>
<path d="M465.678 119.535C465.678 117.326 467.469 115.535 469.678 115.535H472C474.209 115.535 476 117.326 476 119.535V119.792H465.678V119.535Z" fill="#D8DDE2"/>
<path fill-rule="evenodd" clip-rule="evenodd" d="M403.21 104.594V114.318H323V104.594H397.679V93.6291L465.561 48.0933L476 55.4915V62.6245L471.092 59.1421L403.21 104.594Z" fill="#D8DDE2" fill-opacity="0.5"/>
<path d="M323 105.804C323 105.132 323.545 104.588 324.216 104.588H396.462C397.134 104.588 397.679 105.132 397.679 105.804H323Z" fill="#D8DDE2"/>
<path fill-rule="evenodd" clip-rule="evenodd" d="M397.679 93.6291V103.371H323L323 89.7638H379.12L388.689 83.2094V50.2833H407.359V70.4649L465.287 31L475.959 38.3478L476 55.4915L465.561 48.0933L397.679 93.6291Z" fill="#EAEEF1"/>
<path fill-rule="evenodd" clip-rule="evenodd" d="M272.089 84.2414C272.079 83.9854 272.07 83.7247 272.07 83.4639C272.07 73.0722 280.47 64.6429 290.837 64.6429C301.2 64.6429 309.605 73.0672 309.605 83.4639C309.605 83.7057 309.6 83.9427 309.591 84.1798C323.929 85.6494 335.109 97.7907 335.109 112.553C335.109 128.306 322.374 141.079 306.664 141.079H306.485L295.919 156.832L296.652 180L288.937 179.995L289.547 149.801L276.689 132.882C275.394 133.095 274.06 133.204 272.704 133.204C259.216 133.204 248.287 122.244 248.287 108.718C248.287 95.4007 258.89 84.569 272.089 84.2413L272.089 84.2414ZM302.911 140.832C300.349 140.495 297.891 139.813 295.593 138.836L295.919 148.602L302.911 140.832ZM289.817 135.532C287.77 134.02 285.931 132.242 284.357 130.246C282.868 131.061 281.279 131.72 279.62 132.209L289.552 142.861L289.817 135.532Z" fill="#EAEEF1"/>
<path d="M10.5 14C10.5 12.067 12.067 10.5 14 10.5H472C473.933 10.5 475.5 12.067 475.5 14V179.5H10.5V14Z" stroke="#C5C5C5"/>
<defs>
<filter id="filter0_d" x="0" y="0" width="486" height="298" filterUnits="userSpaceOnUse" color-interpolation-filters="sRGB">
<feFlood flood-opacity="0" result="BackgroundImageFix"/>
<feColorMatrix in="SourceAlpha" type="matrix" values="0 0 0 0 0 0 0 0 0 0 0 0 0 0 0 0 0 0 127 0"/>
<feOffset/>
<feGaussianBlur stdDeviation="5"/>
<feColorMatrix type="matrix" values="0 0 0 0 0 0 0 0 0 0 0 0 0 0 0 0 0 0 0.1 0"/>
<feBlend mode="normal" in2="BackgroundImageFix" result="effect1_dropShadow"/>
<feBlend mode="normal" in="SourceGraphic" in2="effect1_dropShadow" result="shape"/>
</filter>
<linearGradient id="paint0_linear" x1="204.516" y1="179.301" x2="275.608" y2="179.301" gradientUnits="userSpaceOnUse">
<stop stop-color="#ECF0F5"/>
<stop offset="1" stop-color="#E0E6EB"/>
</linearGradient>
</defs>
</svg>
