<svg width="582" height="120" viewBox="0 0 582 120" fill="none" xmlns="http://www.w3.org/2000/svg">
<g filter="url(#filter0_d)">
<path fill-rule="evenodd" clip-rule="evenodd" d="M10 14C10 11.7909 11.7909 10 14 10H568C570.209 10 572 11.7909 572 14V106C572 108.209 570.209 110 568 110H14C11.7909 110 10 108.209 10 106V14Z" fill="white"/>
<path d="M10.5 14C10.5 12.067 12.067 10.5 14 10.5H568C569.933 10.5 571.5 12.067 571.5 14V106C571.5 107.933 569.933 109.5 568 109.5H14C12.067 109.5 10.5 107.933 10.5 106V14Z" stroke="#C5C5C5"/>
</g>
<path d="M119.656 76L118.412 72.8213H114.406L113.176 76H112L115.951 65.9648H116.929L120.859 76H119.656ZM118.05 71.7754L116.888 68.6787C116.737 68.2868 116.582 67.806 116.423 67.2363C116.323 67.6738 116.179 68.1546 115.992 68.6787L114.816 71.7754H118.05ZM125.549 76.1367C125.061 76.1367 124.615 76.0479 124.209 75.8701C123.808 75.6878 123.471 75.4098 123.197 75.0361H123.115C123.17 75.4736 123.197 75.8883 123.197 76.2803V79.3633H122.062V68.5078H122.985L123.143 69.5332H123.197C123.489 69.123 123.828 68.8268 124.216 68.6445C124.603 68.4622 125.048 68.3711 125.549 68.3711C126.542 68.3711 127.308 68.7106 127.846 69.3896C128.388 70.0687 128.659 71.0212 128.659 72.2471C128.659 73.4775 128.383 74.4346 127.832 75.1182C127.285 75.7972 126.524 76.1367 125.549 76.1367ZM125.385 69.335C124.619 69.335 124.065 69.5469 123.724 69.9707C123.382 70.3945 123.206 71.069 123.197 71.9941V72.2471C123.197 73.2998 123.373 74.054 123.724 74.5098C124.075 74.9609 124.637 75.1865 125.412 75.1865C126.059 75.1865 126.565 74.9245 126.93 74.4004C127.299 73.8763 127.483 73.154 127.483 72.2334C127.483 71.2992 127.299 70.5837 126.93 70.0869C126.565 69.5856 126.05 69.335 125.385 69.335ZM134.066 68.3711C134.399 68.3711 134.698 68.3984 134.962 68.4531L134.805 69.5059C134.495 69.4375 134.221 69.4033 133.984 69.4033C133.378 69.4033 132.859 69.6494 132.426 70.1416C131.997 70.6338 131.783 71.2467 131.783 71.9805V76H130.648V68.5078H131.585L131.715 69.8955H131.77C132.048 69.4079 132.382 69.0319 132.774 68.7676C133.166 68.5033 133.597 68.3711 134.066 68.3711ZM143.685 76H142.577V68.877C142.577 68.2845 142.595 67.724 142.632 67.1953C142.536 67.291 142.429 67.3913 142.311 67.4961C142.192 67.6009 141.65 68.0452 140.684 68.8291L140.082 68.0498L142.728 66.0059H143.685V76ZM154.116 70.9893C154.116 72.7165 153.843 74.0062 153.296 74.8584C152.754 75.7106 151.922 76.1367 150.801 76.1367C149.725 76.1367 148.907 75.7015 148.347 74.8311C147.786 73.9561 147.506 72.6755 147.506 70.9893C147.506 69.2484 147.777 67.9564 148.319 67.1133C148.862 66.2702 149.689 65.8486 150.801 65.8486C151.885 65.8486 152.708 66.2884 153.269 67.168C153.834 68.0475 154.116 69.3213 154.116 70.9893ZM148.654 70.9893C148.654 72.443 148.825 73.5026 149.167 74.168C149.509 74.8288 150.053 75.1592 150.801 75.1592C151.557 75.1592 152.104 74.8242 152.441 74.1543C152.783 73.4798 152.954 72.4248 152.954 70.9893C152.954 69.5537 152.783 68.5033 152.441 67.8379C152.104 67.168 151.557 66.833 150.801 66.833C150.053 66.833 149.509 67.1634 149.167 67.8242C148.825 68.4805 148.654 69.5355 148.654 70.9893ZM157.213 74.373L157.315 74.5303C157.197 74.986 157.026 75.5146 156.803 76.1162C156.579 76.7223 156.347 77.2852 156.105 77.8047H155.251C155.374 77.3307 155.508 76.7451 155.654 76.0479C155.805 75.3506 155.91 74.7923 155.969 74.373H157.213ZM168.766 68.3574C168.766 68.9954 168.586 69.5173 168.226 69.9229C167.87 70.3285 167.364 70.5996 166.708 70.7363V70.791C167.51 70.8913 168.105 71.1465 168.492 71.5566C168.88 71.9668 169.073 72.5046 169.073 73.1699C169.073 74.1224 168.743 74.8561 168.082 75.3711C167.421 75.8815 166.482 76.1367 165.266 76.1367C164.737 76.1367 164.252 76.0957 163.81 76.0137C163.372 75.9362 162.946 75.7972 162.531 75.5967V74.5166C162.964 74.7308 163.424 74.8949 163.912 75.0088C164.404 75.1182 164.869 75.1729 165.307 75.1729C167.034 75.1729 167.897 74.4961 167.897 73.1426C167.897 71.9303 166.945 71.3242 165.04 71.3242H164.056V70.3467H165.054C165.833 70.3467 166.451 70.1758 166.906 69.834C167.362 69.4876 167.59 69.0091 167.59 68.3984C167.59 67.9108 167.421 67.528 167.084 67.25C166.751 66.972 166.298 66.833 165.724 66.833C165.286 66.833 164.874 66.8923 164.486 67.0107C164.099 67.1292 163.657 67.348 163.16 67.667L162.586 66.9014C162.996 66.5778 163.468 66.3249 164.001 66.1426C164.539 65.9557 165.104 65.8623 165.696 65.8623C166.667 65.8623 167.421 66.0856 167.959 66.5322C168.497 66.9743 168.766 67.5827 168.766 68.3574ZM170.939 75.2754C170.939 74.9701 171.008 74.7399 171.145 74.585C171.286 74.4255 171.486 74.3457 171.746 74.3457C172.01 74.3457 172.215 74.4255 172.361 74.585C172.512 74.7399 172.587 74.9701 172.587 75.2754C172.587 75.5716 172.512 75.7995 172.361 75.959C172.211 76.1185 172.006 76.1982 171.746 76.1982C171.514 76.1982 171.32 76.1276 171.165 75.9863C171.015 75.8405 170.939 75.6035 170.939 75.2754ZM170.939 69.2393C170.939 68.624 171.208 68.3164 171.746 68.3164C172.307 68.3164 172.587 68.624 172.587 69.2393C172.587 69.5355 172.512 69.7633 172.361 69.9229C172.211 70.0824 172.006 70.1621 171.746 70.1621C171.514 70.1621 171.32 70.0915 171.165 69.9502C171.015 69.8044 170.939 69.5674 170.939 69.2393ZM180.94 70.9893C180.94 72.7165 180.667 74.0062 180.12 74.8584C179.578 75.7106 178.746 76.1367 177.625 76.1367C176.549 76.1367 175.731 75.7015 175.171 74.8311C174.61 73.9561 174.33 72.6755 174.33 70.9893C174.33 69.2484 174.601 67.9564 175.144 67.1133C175.686 66.2702 176.513 65.8486 177.625 65.8486C178.71 65.8486 179.532 66.2884 180.093 67.168C180.658 68.0475 180.94 69.3213 180.94 70.9893ZM175.479 70.9893C175.479 72.443 175.649 73.5026 175.991 74.168C176.333 74.8288 176.878 75.1592 177.625 75.1592C178.382 75.1592 178.928 74.8242 179.266 74.1543C179.607 73.4798 179.778 72.4248 179.778 70.9893C179.778 69.5537 179.607 68.5033 179.266 67.8379C178.928 67.168 178.382 66.833 177.625 66.833C176.878 66.833 176.333 67.1634 175.991 67.8242C175.649 68.4805 175.479 69.5355 175.479 70.9893ZM188.952 70.9893C188.952 72.7165 188.679 74.0062 188.132 74.8584C187.59 75.7106 186.758 76.1367 185.637 76.1367C184.561 76.1367 183.743 75.7015 183.183 74.8311C182.622 73.9561 182.342 72.6755 182.342 70.9893C182.342 69.2484 182.613 67.9564 183.155 67.1133C183.698 66.2702 184.525 65.8486 185.637 65.8486C186.721 65.8486 187.544 66.2884 188.104 67.168C188.67 68.0475 188.952 69.3213 188.952 70.9893ZM183.49 70.9893C183.49 72.443 183.661 73.5026 184.003 74.168C184.345 74.8288 184.889 75.1592 185.637 75.1592C186.393 75.1592 186.94 74.8242 187.277 74.1543C187.619 73.4798 187.79 72.4248 187.79 70.9893C187.79 69.5537 187.619 68.5033 187.277 67.8379C186.94 67.168 186.393 66.833 185.637 66.833C184.889 66.833 184.345 67.1634 184.003 67.8242C183.661 68.4805 183.49 69.5355 183.49 70.9893ZM197.982 76.1367C197.495 76.1367 197.048 76.0479 196.643 75.8701C196.242 75.6878 195.904 75.4098 195.631 75.0361H195.549C195.604 75.4736 195.631 75.8883 195.631 76.2803V79.3633H194.496V68.5078H195.419L195.576 69.5332H195.631C195.923 69.123 196.262 68.8268 196.649 68.6445C197.037 68.4622 197.481 68.3711 197.982 68.3711C198.976 68.3711 199.742 68.7106 200.279 69.3896C200.822 70.0687 201.093 71.0212 201.093 72.2471C201.093 73.4775 200.817 74.4346 200.266 75.1182C199.719 75.7972 198.958 76.1367 197.982 76.1367ZM197.818 69.335C197.053 69.335 196.499 69.5469 196.157 69.9707C195.815 70.3945 195.64 71.069 195.631 71.9941V72.2471C195.631 73.2998 195.806 74.054 196.157 74.5098C196.508 74.9609 197.071 75.1865 197.846 75.1865C198.493 75.1865 198.999 74.9245 199.363 74.4004C199.732 73.8763 199.917 73.154 199.917 72.2334C199.917 71.2992 199.732 70.5837 199.363 70.0869C198.999 69.5856 198.484 69.335 197.818 69.335ZM212.632 76V71.126C212.632 70.529 212.504 70.0824 212.249 69.7861C211.994 69.4854 211.597 69.335 211.06 69.335C210.353 69.335 209.831 69.5378 209.494 69.9434C209.157 70.349 208.988 70.9733 208.988 71.8164V76H207.854V71.126C207.854 70.529 207.726 70.0824 207.471 69.7861C207.215 69.4854 206.817 69.335 206.274 69.335C205.563 69.335 205.042 69.5492 204.709 69.9775C204.381 70.4014 204.217 71.0986 204.217 72.0693V76H203.082V68.5078H204.005L204.189 69.5332H204.244C204.458 69.1686 204.759 68.8838 205.146 68.6787C205.538 68.4736 205.976 68.3711 206.459 68.3711C207.63 68.3711 208.396 68.7949 208.756 69.6426H208.811C209.034 69.2507 209.357 68.9408 209.781 68.7129C210.205 68.485 210.688 68.3711 211.23 68.3711C212.078 68.3711 212.712 68.5898 213.131 69.0273C213.555 69.4603 213.767 70.1553 213.767 71.1123V76H212.632Z" fill="#A2A2A2"/>
<path d="M119.253 54H112.684V53.0225L115.315 50.377C116.118 49.5658 116.646 48.987 116.901 48.6406C117.157 48.2943 117.348 47.957 117.476 47.6289C117.603 47.3008 117.667 46.9476 117.667 46.5693C117.667 46.0361 117.505 45.6146 117.182 45.3047C116.858 44.9902 116.409 44.833 115.835 44.833C115.42 44.833 115.026 44.9014 114.652 45.0381C114.283 45.1748 113.871 45.4232 113.415 45.7832L112.813 45.0107C113.734 44.2451 114.737 43.8623 115.821 43.8623C116.76 43.8623 117.496 44.1038 118.029 44.5869C118.562 45.0654 118.829 45.7103 118.829 46.5215C118.829 47.1549 118.651 47.7816 118.296 48.4014C117.94 49.0212 117.275 49.805 116.3 50.7529L114.112 52.8926V52.9473H119.253V54ZM126.889 46.3574C126.889 46.9954 126.709 47.5173 126.349 47.9229C125.993 48.3285 125.487 48.5996 124.831 48.7363V48.791C125.633 48.8913 126.228 49.1465 126.615 49.5566C127.003 49.9668 127.196 50.5046 127.196 51.1699C127.196 52.1224 126.866 52.8561 126.205 53.3711C125.544 53.8815 124.605 54.1367 123.389 54.1367C122.86 54.1367 122.375 54.0957 121.933 54.0137C121.495 53.9362 121.069 53.7972 120.654 53.5967V52.5166C121.087 52.7308 121.548 52.8949 122.035 53.0088C122.527 53.1182 122.992 53.1729 123.43 53.1729C125.157 53.1729 126.021 52.4961 126.021 51.1426C126.021 49.9303 125.068 49.3242 123.163 49.3242H122.179V48.3467H123.177C123.956 48.3467 124.574 48.1758 125.029 47.834C125.485 47.4876 125.713 47.0091 125.713 46.3984C125.713 45.9108 125.544 45.528 125.207 45.25C124.874 44.972 124.421 44.833 123.847 44.833C123.409 44.833 122.997 44.8923 122.609 45.0107C122.222 45.1292 121.78 45.348 121.283 45.667L120.709 44.9014C121.119 44.5778 121.591 44.3249 122.124 44.1426C122.662 43.9557 123.227 43.8623 123.819 43.8623C124.79 43.8623 125.544 44.0856 126.082 44.5322C126.62 44.9743 126.889 45.5827 126.889 46.3574ZM135.331 48.9893C135.331 50.7165 135.058 52.0062 134.511 52.8584C133.968 53.7106 133.137 54.1367 132.016 54.1367C130.94 54.1367 130.122 53.7015 129.562 52.8311C129.001 51.9561 128.721 50.6755 128.721 48.9893C128.721 47.2484 128.992 45.9564 129.534 45.1133C130.076 44.2702 130.904 43.8486 132.016 43.8486C133.1 43.8486 133.923 44.2884 134.483 45.168C135.049 46.0475 135.331 47.3213 135.331 48.9893ZM129.869 48.9893C129.869 50.443 130.04 51.5026 130.382 52.168C130.724 52.8288 131.268 53.1592 132.016 53.1592C132.772 53.1592 133.319 52.8242 133.656 52.1543C133.998 51.4798 134.169 50.4248 134.169 48.9893C134.169 47.5537 133.998 46.5033 133.656 45.8379C133.319 45.168 132.772 44.833 132.016 44.833C131.268 44.833 130.724 45.1634 130.382 45.8242C130.04 46.4805 129.869 47.5355 129.869 48.9893ZM139.843 47.8955C140.896 47.8955 141.723 48.1576 142.324 48.6816C142.93 49.2012 143.233 49.9144 143.233 50.8213C143.233 51.8558 142.903 52.667 142.242 53.2549C141.586 53.8428 140.679 54.1367 139.521 54.1367C138.396 54.1367 137.537 53.9567 136.944 53.5967V52.5029C137.263 52.708 137.66 52.8698 138.134 52.9883C138.608 53.1022 139.075 53.1592 139.535 53.1592C140.337 53.1592 140.959 52.9701 141.401 52.5918C141.848 52.2135 142.071 51.6667 142.071 50.9512C142.071 49.5566 141.217 48.8594 139.508 48.8594C139.075 48.8594 138.496 48.9255 137.771 49.0576L137.184 48.6816L137.56 44.0059H142.529V45.0518H138.53L138.277 48.0527C138.801 47.9479 139.323 47.8955 139.843 47.8955ZM150.35 56.1533H144.02V55.2578H150.35V56.1533ZM152.858 54H151.696V44.0059H157.268V45.0381H152.858V48.6953H157.001V49.7275H152.858V54ZM163.365 54L163.14 52.9336H163.085C162.711 53.403 162.338 53.722 161.964 53.8906C161.595 54.0547 161.132 54.1367 160.576 54.1367C159.833 54.1367 159.25 53.9453 158.826 53.5625C158.407 53.1797 158.197 52.6351 158.197 51.9287C158.197 50.4157 159.407 49.6227 161.827 49.5498L163.099 49.5088V49.0439C163.099 48.4561 162.971 48.0231 162.716 47.7451C162.465 47.4626 162.062 47.3213 161.506 47.3213C160.882 47.3213 160.175 47.5127 159.387 47.8955L159.038 47.0273C159.407 46.8268 159.811 46.6696 160.248 46.5557C160.69 46.4417 161.132 46.3848 161.574 46.3848C162.467 46.3848 163.128 46.583 163.557 46.9795C163.99 47.376 164.206 48.0117 164.206 48.8867V54H163.365ZM160.802 53.2002C161.508 53.2002 162.062 53.0065 162.463 52.6191C162.868 52.2318 163.071 51.6895 163.071 50.9922V50.3154L161.937 50.3633C161.034 50.3952 160.382 50.5365 159.981 50.7871C159.585 51.0332 159.387 51.4183 159.387 51.9424C159.387 52.3525 159.51 52.6647 159.756 52.8789C160.007 53.0931 160.355 53.2002 160.802 53.2002ZM167.686 54H166.551V46.5078H167.686V54ZM166.455 44.4775C166.455 44.2178 166.519 44.0286 166.646 43.9102C166.774 43.7871 166.934 43.7256 167.125 43.7256C167.307 43.7256 167.465 43.7871 167.597 43.9102C167.729 44.0332 167.795 44.2223 167.795 44.4775C167.795 44.7327 167.729 44.9242 167.597 45.0518C167.465 45.1748 167.307 45.2363 167.125 45.2363C166.934 45.2363 166.774 45.1748 166.646 45.0518C166.519 44.9242 166.455 44.7327 166.455 44.4775ZM173.51 46.3711C173.842 46.3711 174.141 46.3984 174.405 46.4531L174.248 47.5059C173.938 47.4375 173.665 47.4033 173.428 47.4033C172.822 47.4033 172.302 47.6494 171.869 48.1416C171.441 48.6338 171.227 49.2467 171.227 49.9805V54H170.092V46.5078H171.028L171.158 47.8955H171.213C171.491 47.4079 171.826 47.0319 172.218 46.7676C172.61 46.5033 173.04 46.3711 173.51 46.3711ZM177.447 54L174.604 46.5078H175.82L177.434 50.9512C177.798 51.9902 178.012 52.6647 178.076 52.9746H178.131C178.181 52.7331 178.338 52.234 178.603 51.4775C178.871 50.7165 179.471 49.0599 180.4 46.5078H181.617L178.773 54H177.447ZM183.955 54H182.82V46.5078H183.955V54ZM182.725 44.4775C182.725 44.2178 182.788 44.0286 182.916 43.9102C183.044 43.7871 183.203 43.7256 183.395 43.7256C183.577 43.7256 183.734 43.7871 183.866 43.9102C183.998 44.0332 184.064 44.2223 184.064 44.4775C184.064 44.7327 183.998 44.9242 183.866 45.0518C183.734 45.1748 183.577 45.2363 183.395 45.2363C183.203 45.2363 183.044 45.1748 182.916 45.0518C182.788 44.9242 182.725 44.7327 182.725 44.4775ZM189.526 54.1367C188.419 54.1367 187.544 53.7995 186.901 53.125C186.263 52.4505 185.944 51.514 185.944 50.3154C185.944 49.1077 186.241 48.1484 186.833 47.4375C187.43 46.7266 188.23 46.3711 189.232 46.3711C190.171 46.3711 190.914 46.681 191.461 47.3008C192.008 47.916 192.281 48.7295 192.281 49.7412V50.459H187.12C187.143 51.3385 187.364 52.0062 187.783 52.4619C188.207 52.9176 188.802 53.1455 189.567 53.1455C190.374 53.1455 191.172 52.9769 191.96 52.6396V53.6514C191.559 53.8245 191.178 53.9476 190.818 54.0205C190.463 54.098 190.032 54.1367 189.526 54.1367ZM189.219 47.3213C188.617 47.3213 188.136 47.5173 187.776 47.9092C187.421 48.3011 187.211 48.8434 187.147 49.5361H191.064C191.064 48.8206 190.905 48.2738 190.586 47.8955C190.267 47.5127 189.811 47.3213 189.219 47.3213ZM200.341 54L198.967 49.6045C198.88 49.3356 198.718 48.7249 198.481 47.7725H198.427C198.244 48.57 198.085 49.1852 197.948 49.6182L196.533 54H195.221L193.177 46.5078H194.366C194.849 48.39 195.216 49.8232 195.467 50.8076C195.722 51.792 195.868 52.4551 195.904 52.7969H195.959C196.009 52.5371 196.089 52.2021 196.198 51.792C196.312 51.3773 196.41 51.0492 196.492 50.8076L197.866 46.5078H199.097L200.437 50.8076C200.692 51.5915 200.865 52.25 200.956 52.7832H201.011C201.029 52.6191 201.077 52.3662 201.154 52.0244C201.236 51.6826 201.713 49.8438 202.583 46.5078H203.759L201.688 54H200.341ZM210.219 56.1533H203.889V55.2578H210.219V56.1533ZM217.205 51.3408C217.205 52.2204 216.886 52.9062 216.248 53.3984C215.61 53.8906 214.744 54.1367 213.65 54.1367C212.465 54.1367 211.554 53.984 210.916 53.6787V52.5576C211.326 52.7308 211.773 52.8675 212.256 52.9678C212.739 53.068 213.217 53.1182 213.691 53.1182C214.466 53.1182 215.049 52.9723 215.441 52.6807C215.833 52.3844 216.029 51.9743 216.029 51.4502C216.029 51.1038 215.959 50.8213 215.817 50.6025C215.681 50.3792 215.448 50.1742 215.12 49.9873C214.797 49.8005 214.302 49.5885 213.637 49.3516C212.707 49.0189 212.042 48.6247 211.641 48.1689C211.244 47.7132 211.046 47.1185 211.046 46.3848C211.046 45.6146 211.335 45.0016 211.914 44.5459C212.493 44.0902 213.258 43.8623 214.211 43.8623C215.204 43.8623 216.118 44.0446 216.952 44.4092L216.59 45.4209C215.765 45.0745 214.963 44.9014 214.184 44.9014C213.568 44.9014 213.088 45.0335 212.741 45.2979C212.395 45.5622 212.222 45.929 212.222 46.3984C212.222 46.7448 212.285 47.0296 212.413 47.2529C212.541 47.4717 212.755 47.6745 213.056 47.8613C213.361 48.0436 213.826 48.2464 214.45 48.4697C215.498 48.8434 216.218 49.2445 216.61 49.6729C217.007 50.1012 217.205 50.6572 217.205 51.3408ZM222.243 54.1367C221.136 54.1367 220.261 53.7995 219.618 53.125C218.98 52.4505 218.661 51.514 218.661 50.3154C218.661 49.1077 218.957 48.1484 219.55 47.4375C220.147 46.7266 220.947 46.3711 221.949 46.3711C222.888 46.3711 223.631 46.681 224.178 47.3008C224.725 47.916 224.998 48.7295 224.998 49.7412V50.459H219.837C219.86 51.3385 220.081 52.0062 220.5 52.4619C220.924 52.9176 221.519 53.1455 222.284 53.1455C223.091 53.1455 223.888 52.9769 224.677 52.6396V53.6514C224.276 53.8245 223.895 53.9476 223.535 54.0205C223.18 54.098 222.749 54.1367 222.243 54.1367ZM221.936 47.3213C221.334 47.3213 220.853 47.5173 220.493 47.9092C220.138 48.3011 219.928 48.8434 219.864 49.5361H223.781C223.781 48.8206 223.622 48.2738 223.303 47.8955C222.984 47.5127 222.528 47.3213 221.936 47.3213ZM231.547 54L231.321 52.9336H231.267C230.893 53.403 230.519 53.722 230.146 53.8906C229.776 54.0547 229.314 54.1367 228.758 54.1367C228.015 54.1367 227.432 53.9453 227.008 53.5625C226.589 53.1797 226.379 52.6351 226.379 51.9287C226.379 50.4157 227.589 49.6227 230.009 49.5498L231.28 49.5088V49.0439C231.28 48.4561 231.153 48.0231 230.897 47.7451C230.647 47.4626 230.243 47.3213 229.688 47.3213C229.063 47.3213 228.357 47.5127 227.568 47.8955L227.22 47.0273C227.589 46.8268 227.992 46.6696 228.43 46.5557C228.872 46.4417 229.314 46.3848 229.756 46.3848C230.649 46.3848 231.31 46.583 231.738 46.9795C232.171 47.376 232.388 48.0117 232.388 48.8867V54H231.547ZM228.983 53.2002C229.69 53.2002 230.243 53.0065 230.645 52.6191C231.05 52.2318 231.253 51.6895 231.253 50.9922V50.3154L230.118 50.3633C229.216 50.3952 228.564 50.5365 228.163 50.7871C227.767 51.0332 227.568 51.4183 227.568 51.9424C227.568 52.3525 227.691 52.6647 227.938 52.8789C228.188 53.0931 228.537 53.2002 228.983 53.2002ZM237.152 53.2002C237.353 53.2002 237.547 53.1865 237.733 53.1592C237.92 53.1273 238.068 53.0954 238.178 53.0635V53.9316C238.055 53.9909 237.872 54.0387 237.631 54.0752C237.394 54.1162 237.18 54.1367 236.988 54.1367C235.539 54.1367 234.814 53.3734 234.814 51.8467V47.3896H233.741V46.8428L234.814 46.3711L235.293 44.7715H235.949V46.5078H238.123V47.3896H235.949V51.7988C235.949 52.25 236.056 52.5964 236.271 52.8379C236.485 53.0794 236.779 53.2002 237.152 53.2002ZM242.102 53.2002C242.302 53.2002 242.496 53.1865 242.683 53.1592C242.869 53.1273 243.018 53.0954 243.127 53.0635V53.9316C243.004 53.9909 242.822 54.0387 242.58 54.0752C242.343 54.1162 242.129 54.1367 241.938 54.1367C240.488 54.1367 239.764 53.3734 239.764 51.8467V47.3896H238.69V46.8428L239.764 46.3711L240.242 44.7715H240.898V46.5078H243.072V47.3896H240.898V51.7988C240.898 52.25 241.006 52.5964 241.22 52.8379C241.434 53.0794 241.728 53.2002 242.102 53.2002ZM245.766 54H244.631V43.3633H245.766V54ZM251.337 54.1367C250.229 54.1367 249.354 53.7995 248.712 53.125C248.074 52.4505 247.755 51.514 247.755 50.3154C247.755 49.1077 248.051 48.1484 248.644 47.4375C249.241 46.7266 250.04 46.3711 251.043 46.3711C251.982 46.3711 252.725 46.681 253.271 47.3008C253.818 47.916 254.092 48.7295 254.092 49.7412V50.459H248.931C248.953 51.3385 249.174 52.0062 249.594 52.4619C250.018 52.9176 250.612 53.1455 251.378 53.1455C252.185 53.1455 252.982 52.9769 253.771 52.6396V53.6514C253.369 53.8245 252.989 53.9476 252.629 54.0205C252.273 54.098 251.843 54.1367 251.337 54.1367ZM251.029 47.3213C250.428 47.3213 249.947 47.5173 249.587 47.9092C249.231 48.3011 249.022 48.8434 248.958 49.5361H252.875C252.875 48.8206 252.715 48.2738 252.396 47.8955C252.077 47.5127 251.622 47.3213 251.029 47.3213ZM261.133 56.1533H254.803V55.2578H261.133V56.1533ZM265.556 54H264.394V45.0381H261.229V44.0059H268.721V45.0381H265.556V54ZM271.195 54H270.061V46.5078H271.195V54ZM269.965 44.4775C269.965 44.2178 270.029 44.0286 270.156 43.9102C270.284 43.7871 270.443 43.7256 270.635 43.7256C270.817 43.7256 270.974 43.7871 271.106 43.9102C271.239 44.0332 271.305 44.2223 271.305 44.4775C271.305 44.7327 271.239 44.9242 271.106 45.0518C270.974 45.1748 270.817 45.2363 270.635 45.2363C270.443 45.2363 270.284 45.1748 270.156 45.0518C270.029 44.9242 269.965 44.7327 269.965 44.4775ZM276.021 53.2002C276.222 53.2002 276.416 53.1865 276.603 53.1592C276.789 53.1273 276.938 53.0954 277.047 53.0635V53.9316C276.924 53.9909 276.742 54.0387 276.5 54.0752C276.263 54.1162 276.049 54.1367 275.857 54.1367C274.408 54.1367 273.684 53.3734 273.684 51.8467V47.3896H272.61V46.8428L273.684 46.3711L274.162 44.7715H274.818V46.5078H276.992V47.3896H274.818V51.7988C274.818 52.25 274.925 52.5964 275.14 52.8379C275.354 53.0794 275.648 53.2002 276.021 53.2002ZM279.686 54H278.551V43.3633H279.686V54ZM285.257 54.1367C284.149 54.1367 283.274 53.7995 282.632 53.125C281.994 52.4505 281.675 51.514 281.675 50.3154C281.675 49.1077 281.971 48.1484 282.563 47.4375C283.16 46.7266 283.96 46.3711 284.963 46.3711C285.902 46.3711 286.645 46.681 287.191 47.3008C287.738 47.916 288.012 48.7295 288.012 49.7412V50.459H282.851C282.873 51.3385 283.094 52.0062 283.514 52.4619C283.938 52.9176 284.532 53.1455 285.298 53.1455C286.104 53.1455 286.902 52.9769 287.69 52.6396V53.6514C287.289 53.8245 286.909 53.9476 286.549 54.0205C286.193 54.098 285.763 54.1367 285.257 54.1367ZM284.949 47.3213C284.348 47.3213 283.867 47.5173 283.507 47.9092C283.151 48.3011 282.942 48.8434 282.878 49.5361H286.795C286.795 48.8206 286.635 48.2738 286.316 47.8955C285.997 47.5127 285.542 47.3213 284.949 47.3213ZM295.053 56.1533H288.723V55.2578H295.053V56.1533ZM297.562 49.8438V54H296.399V44.0059H299.141C300.367 44.0059 301.271 44.2406 301.854 44.71C302.442 45.1794 302.736 45.8857 302.736 46.8291C302.736 48.1507 302.066 49.0439 300.727 49.5088L303.44 54H302.066L299.646 49.8438H297.562ZM297.562 48.8457H299.154C299.975 48.8457 300.576 48.6839 300.959 48.3604C301.342 48.0322 301.533 47.5423 301.533 46.8906C301.533 46.2298 301.337 45.7536 300.945 45.4619C300.558 45.1702 299.934 45.0244 299.072 45.0244H297.562V48.8457ZM308.048 54.1367C306.94 54.1367 306.065 53.7995 305.423 53.125C304.785 52.4505 304.466 51.514 304.466 50.3154C304.466 49.1077 304.762 48.1484 305.354 47.4375C305.951 46.7266 306.751 46.3711 307.754 46.3711C308.693 46.3711 309.436 46.681 309.982 47.3008C310.529 47.916 310.803 48.7295 310.803 49.7412V50.459H305.642C305.664 51.3385 305.885 52.0062 306.305 52.4619C306.729 52.9176 307.323 53.1455 308.089 53.1455C308.896 53.1455 309.693 52.9769 310.481 52.6396V53.6514C310.08 53.8245 309.7 53.9476 309.34 54.0205C308.984 54.098 308.554 54.1367 308.048 54.1367ZM307.74 47.3213C307.139 47.3213 306.658 47.5173 306.298 47.9092C305.942 48.3011 305.733 48.8434 305.669 49.5361H309.586C309.586 48.8206 309.426 48.2738 309.107 47.8955C308.788 47.5127 308.333 47.3213 307.74 47.3213ZM316.23 54.1367C315.743 54.1367 315.296 54.0479 314.891 53.8701C314.49 53.6878 314.152 53.4098 313.879 53.0361H313.797C313.852 53.4736 313.879 53.8883 313.879 54.2803V57.3633H312.744V46.5078H313.667L313.824 47.5332H313.879C314.171 47.123 314.51 46.8268 314.897 46.6445C315.285 46.4622 315.729 46.3711 316.23 46.3711C317.224 46.3711 317.99 46.7106 318.527 47.3896C319.07 48.0687 319.341 49.0212 319.341 50.2471C319.341 51.4775 319.065 52.4346 318.514 53.1182C317.967 53.7972 317.206 54.1367 316.23 54.1367ZM316.066 47.335C315.301 47.335 314.747 47.5469 314.405 47.9707C314.063 48.3945 313.888 49.069 313.879 49.9941V50.2471C313.879 51.2998 314.054 52.054 314.405 52.5098C314.756 52.9609 315.319 53.1865 316.094 53.1865C316.741 53.1865 317.247 52.9245 317.611 52.4004C317.98 51.8763 318.165 51.154 318.165 50.2334C318.165 49.2992 317.98 48.5837 317.611 48.0869C317.247 47.5856 316.732 47.335 316.066 47.335ZM327.797 50.2471C327.797 51.4684 327.489 52.4232 326.874 53.1113C326.259 53.7949 325.409 54.1367 324.324 54.1367C323.654 54.1367 323.06 53.9795 322.54 53.665C322.021 53.3506 321.619 52.8994 321.337 52.3115C321.054 51.7236 320.913 51.0355 320.913 50.2471C320.913 49.0257 321.218 48.0755 321.829 47.3965C322.44 46.7129 323.287 46.3711 324.372 46.3711C325.42 46.3711 326.252 46.7197 326.867 47.417C327.487 48.1143 327.797 49.0576 327.797 50.2471ZM322.089 50.2471C322.089 51.2041 322.28 51.9333 322.663 52.4346C323.046 52.9359 323.609 53.1865 324.352 53.1865C325.094 53.1865 325.657 52.9382 326.04 52.4414C326.427 51.9401 326.621 51.2087 326.621 50.2471C326.621 49.2946 326.427 48.5723 326.04 48.0801C325.657 47.5833 325.09 47.335 324.338 47.335C323.595 47.335 323.035 47.5788 322.656 48.0664C322.278 48.554 322.089 49.2809 322.089 50.2471ZM333.211 46.3711C333.544 46.3711 333.842 46.3984 334.106 46.4531L333.949 47.5059C333.639 47.4375 333.366 47.4033 333.129 47.4033C332.523 47.4033 332.003 47.6494 331.57 48.1416C331.142 48.6338 330.928 49.2467 330.928 49.9805V54H329.793V46.5078H330.729L330.859 47.8955H330.914C331.192 47.4079 331.527 47.0319 331.919 46.7676C332.311 46.5033 332.742 46.3711 333.211 46.3711ZM337.928 53.2002C338.128 53.2002 338.322 53.1865 338.509 53.1592C338.696 53.1273 338.844 53.0954 338.953 53.0635V53.9316C338.83 53.9909 338.648 54.0387 338.406 54.0752C338.169 54.1162 337.955 54.1367 337.764 54.1367C336.314 54.1367 335.59 53.3734 335.59 51.8467V47.3896H334.517V46.8428L335.59 46.3711L336.068 44.7715H336.725V46.5078H338.898V47.3896H336.725V51.7988C336.725 52.25 336.832 52.5964 337.046 52.8379C337.26 53.0794 337.554 53.2002 337.928 53.2002ZM346.507 54H339.938V53.0225L342.569 50.377C343.371 49.5658 343.9 48.987 344.155 48.6406C344.41 48.2943 344.602 47.957 344.729 47.6289C344.857 47.3008 344.921 46.9476 344.921 46.5693C344.921 46.0361 344.759 45.6146 344.436 45.3047C344.112 44.9902 343.663 44.833 343.089 44.833C342.674 44.833 342.28 44.9014 341.906 45.0381C341.537 45.1748 341.125 45.4232 340.669 45.7832L340.067 45.0107C340.988 44.2451 341.991 43.8623 343.075 43.8623C344.014 43.8623 344.75 44.1038 345.283 44.5869C345.816 45.0654 346.083 45.7103 346.083 46.5215C346.083 47.1549 345.905 47.7816 345.55 48.4014C345.194 49.0212 344.529 49.805 343.554 50.7529L341.366 52.8926V52.9473H346.507V54ZM354.143 46.3574C354.143 46.9954 353.963 47.5173 353.603 47.9229C353.247 48.3285 352.741 48.5996 352.085 48.7363V48.791C352.887 48.8913 353.482 49.1465 353.869 49.5566C354.257 49.9668 354.45 50.5046 354.45 51.1699C354.45 52.1224 354.12 52.8561 353.459 53.3711C352.798 53.8815 351.859 54.1367 350.643 54.1367C350.114 54.1367 349.629 54.0957 349.187 54.0137C348.749 53.9362 348.323 53.7972 347.908 53.5967V52.5166C348.341 52.7308 348.801 52.8949 349.289 53.0088C349.781 53.1182 350.246 53.1729 350.684 53.1729C352.411 53.1729 353.274 52.4961 353.274 51.1426C353.274 49.9303 352.322 49.3242 350.417 49.3242H349.433V48.3467H350.431C351.21 48.3467 351.827 48.1758 352.283 47.834C352.739 47.4876 352.967 47.0091 352.967 46.3984C352.967 45.9108 352.798 45.528 352.461 45.25C352.128 44.972 351.675 44.833 351.101 44.833C350.663 44.833 350.251 44.8923 349.863 45.0107C349.476 45.1292 349.034 45.348 348.537 45.667L347.963 44.9014C348.373 44.5778 348.845 44.3249 349.378 44.1426C349.916 43.9557 350.481 43.8623 351.073 43.8623C352.044 43.8623 352.798 44.0856 353.336 44.5322C353.874 44.9743 354.143 45.5827 354.143 46.3574ZM362.585 48.9893C362.585 50.7165 362.312 52.0062 361.765 52.8584C361.222 53.7106 360.391 54.1367 359.27 54.1367C358.194 54.1367 357.376 53.7015 356.815 52.8311C356.255 51.9561 355.975 50.6755 355.975 48.9893C355.975 47.2484 356.246 45.9564 356.788 45.1133C357.33 44.2702 358.158 43.8486 359.27 43.8486C360.354 43.8486 361.177 44.2884 361.737 45.168C362.302 46.0475 362.585 47.3213 362.585 48.9893ZM357.123 48.9893C357.123 50.443 357.294 51.5026 357.636 52.168C357.978 52.8288 358.522 53.1592 359.27 53.1592C360.026 53.1592 360.573 52.8242 360.91 52.1543C361.252 51.4798 361.423 50.4248 361.423 48.9893C361.423 47.5537 361.252 46.5033 360.91 45.8379C360.573 45.168 360.026 44.833 359.27 44.833C358.522 44.833 357.978 45.1634 357.636 45.8242C357.294 46.4805 357.123 47.5355 357.123 48.9893ZM367.097 47.8955C368.149 47.8955 368.977 48.1576 369.578 48.6816C370.184 49.2012 370.487 49.9144 370.487 50.8213C370.487 51.8558 370.157 52.667 369.496 53.2549C368.84 53.8428 367.933 54.1367 366.775 54.1367C365.65 54.1367 364.791 53.9567 364.198 53.5967V52.5029C364.517 52.708 364.914 52.8698 365.388 52.9883C365.862 53.1022 366.329 53.1592 366.789 53.1592C367.591 53.1592 368.213 52.9701 368.655 52.5918C369.102 52.2135 369.325 51.6667 369.325 50.9512C369.325 49.5566 368.471 48.8594 366.762 48.8594C366.329 48.8594 365.75 48.9255 365.025 49.0576L364.438 48.6816L364.813 44.0059H369.783V45.0518H365.784L365.531 48.0527C366.055 47.9479 366.577 47.8955 367.097 47.8955ZM377.604 56.1533H371.273V55.2578H377.604V56.1533ZM380.112 54H378.95V44.0059H384.521V45.0381H380.112V48.6953H384.255V49.7275H380.112V54ZM390.619 54L390.394 52.9336H390.339C389.965 53.403 389.591 53.722 389.218 53.8906C388.849 54.0547 388.386 54.1367 387.83 54.1367C387.087 54.1367 386.504 53.9453 386.08 53.5625C385.661 53.1797 385.451 52.6351 385.451 51.9287C385.451 50.4157 386.661 49.6227 389.081 49.5498L390.353 49.5088V49.0439C390.353 48.4561 390.225 48.0231 389.97 47.7451C389.719 47.4626 389.316 47.3213 388.76 47.3213C388.135 47.3213 387.429 47.5127 386.641 47.8955L386.292 47.0273C386.661 46.8268 387.064 46.6696 387.502 46.5557C387.944 46.4417 388.386 46.3848 388.828 46.3848C389.721 46.3848 390.382 46.583 390.811 46.9795C391.243 47.376 391.46 48.0117 391.46 48.8867V54H390.619ZM388.056 53.2002C388.762 53.2002 389.316 53.0065 389.717 52.6191C390.122 52.2318 390.325 51.6895 390.325 50.9922V50.3154L389.19 50.3633C388.288 50.3952 387.636 50.5365 387.235 50.7871C386.839 51.0332 386.641 51.4183 386.641 51.9424C386.641 52.3525 386.764 52.6647 387.01 52.8789C387.26 53.0931 387.609 53.2002 388.056 53.2002ZM394.939 54H393.805V46.5078H394.939V54ZM393.709 44.4775C393.709 44.2178 393.773 44.0286 393.9 43.9102C394.028 43.7871 394.188 43.7256 394.379 43.7256C394.561 43.7256 394.718 43.7871 394.851 43.9102C394.983 44.0332 395.049 44.2223 395.049 44.4775C395.049 44.7327 394.983 44.9242 394.851 45.0518C394.718 45.1748 394.561 45.2363 394.379 45.2363C394.188 45.2363 394.028 45.1748 393.9 45.0518C393.773 44.9242 393.709 44.7327 393.709 44.4775ZM400.764 46.3711C401.096 46.3711 401.395 46.3984 401.659 46.4531L401.502 47.5059C401.192 47.4375 400.919 47.4033 400.682 47.4033C400.076 47.4033 399.556 47.6494 399.123 48.1416C398.695 48.6338 398.48 49.2467 398.48 49.9805V54H397.346V46.5078H398.282L398.412 47.8955H398.467C398.745 47.4079 399.08 47.0319 399.472 46.7676C399.864 46.5033 400.294 46.3711 400.764 46.3711ZM404.701 54L401.857 46.5078H403.074L404.688 50.9512C405.052 51.9902 405.266 52.6647 405.33 52.9746H405.385C405.435 52.7331 405.592 52.234 405.856 51.4775C406.125 50.7165 406.725 49.0599 407.654 46.5078H408.871L406.027 54H404.701ZM411.209 54H410.074V46.5078H411.209V54ZM409.979 44.4775C409.979 44.2178 410.042 44.0286 410.17 43.9102C410.298 43.7871 410.457 43.7256 410.648 43.7256C410.831 43.7256 410.988 43.7871 411.12 43.9102C411.252 44.0332 411.318 44.2223 411.318 44.4775C411.318 44.7327 411.252 44.9242 411.12 45.0518C410.988 45.1748 410.831 45.2363 410.648 45.2363C410.457 45.2363 410.298 45.1748 410.17 45.0518C410.042 44.9242 409.979 44.7327 409.979 44.4775ZM416.78 54.1367C415.673 54.1367 414.798 53.7995 414.155 53.125C413.517 52.4505 413.198 51.514 413.198 50.3154C413.198 49.1077 413.494 48.1484 414.087 47.4375C414.684 46.7266 415.484 46.3711 416.486 46.3711C417.425 46.3711 418.168 46.681 418.715 47.3008C419.262 47.916 419.535 48.7295 419.535 49.7412V50.459H414.374C414.397 51.3385 414.618 52.0062 415.037 52.4619C415.461 52.9176 416.056 53.1455 416.821 53.1455C417.628 53.1455 418.425 52.9769 419.214 52.6396V53.6514C418.813 53.8245 418.432 53.9476 418.072 54.0205C417.717 54.098 417.286 54.1367 416.78 54.1367ZM416.473 47.3213C415.871 47.3213 415.39 47.5173 415.03 47.9092C414.675 48.3011 414.465 48.8434 414.401 49.5361H418.318C418.318 48.8206 418.159 48.2738 417.84 47.8955C417.521 47.5127 417.065 47.3213 416.473 47.3213ZM427.595 54L426.221 49.6045C426.134 49.3356 425.972 48.7249 425.735 47.7725H425.681C425.498 48.57 425.339 49.1852 425.202 49.6182L423.787 54H422.475L420.431 46.5078H421.62C422.103 48.39 422.47 49.8232 422.721 50.8076C422.976 51.792 423.122 52.4551 423.158 52.7969H423.213C423.263 52.5371 423.343 52.2021 423.452 51.792C423.566 51.3773 423.664 51.0492 423.746 50.8076L425.12 46.5078H426.351L427.69 50.8076C427.946 51.5915 428.119 52.25 428.21 52.7832H428.265C428.283 52.6191 428.331 52.3662 428.408 52.0244C428.49 51.6826 428.966 49.8438 429.837 46.5078H431.013L428.941 54H427.595ZM432.209 53.2754C432.209 52.9701 432.277 52.7399 432.414 52.585C432.555 52.4255 432.756 52.3457 433.016 52.3457C433.28 52.3457 433.485 52.4255 433.631 52.585C433.781 52.7399 433.856 52.9701 433.856 53.2754C433.856 53.5716 433.781 53.7995 433.631 53.959C433.48 54.1185 433.275 54.1982 433.016 54.1982C432.783 54.1982 432.59 54.1276 432.435 53.9863C432.284 53.8405 432.209 53.6035 432.209 53.2754ZM435.941 53.2754C435.941 52.9701 436.01 52.7399 436.146 52.585C436.288 52.4255 436.488 52.3457 436.748 52.3457C437.012 52.3457 437.217 52.4255 437.363 52.585C437.514 52.7399 437.589 52.9701 437.589 53.2754C437.589 53.5716 437.514 53.7995 437.363 53.959C437.213 54.1185 437.008 54.1982 436.748 54.1982C436.516 54.1982 436.322 54.1276 436.167 53.9863C436.017 53.8405 435.941 53.6035 435.941 53.2754ZM439.674 53.2754C439.674 52.9701 439.742 52.7399 439.879 52.585C440.02 52.4255 440.221 52.3457 440.48 52.3457C440.745 52.3457 440.95 52.4255 441.096 52.585C441.246 52.7399 441.321 52.9701 441.321 53.2754C441.321 53.5716 441.246 53.7995 441.096 53.959C440.945 54.1185 440.74 54.1982 440.48 54.1982C440.248 54.1982 440.054 54.1276 439.899 53.9863C439.749 53.8405 439.674 53.6035 439.674 53.2754ZM450.037 50.2471C450.037 51.4684 449.729 52.4232 449.114 53.1113C448.499 53.7949 447.649 54.1367 446.564 54.1367C445.895 54.1367 445.3 53.9795 444.78 53.665C444.261 53.3506 443.86 52.8994 443.577 52.3115C443.295 51.7236 443.153 51.0355 443.153 50.2471C443.153 49.0257 443.459 48.0755 444.069 47.3965C444.68 46.7129 445.528 46.3711 446.612 46.3711C447.66 46.3711 448.492 46.7197 449.107 47.417C449.727 48.1143 450.037 49.0576 450.037 50.2471ZM444.329 50.2471C444.329 51.2041 444.521 51.9333 444.903 52.4346C445.286 52.9359 445.849 53.1865 446.592 53.1865C447.335 53.1865 447.897 52.9382 448.28 52.4414C448.668 51.9401 448.861 51.2087 448.861 50.2471C448.861 49.2946 448.668 48.5723 448.28 48.0801C447.897 47.5833 447.33 47.335 446.578 47.335C445.835 47.335 445.275 47.5788 444.896 48.0664C444.518 48.554 444.329 49.2809 444.329 50.2471ZM455.451 46.3711C455.784 46.3711 456.082 46.3984 456.347 46.4531L456.189 47.5059C455.88 47.4375 455.606 47.4033 455.369 47.4033C454.763 47.4033 454.243 47.6494 453.811 48.1416C453.382 48.6338 453.168 49.2467 453.168 49.9805V54H452.033V46.5078H452.97L453.1 47.8955H453.154C453.432 47.4079 453.767 47.0319 454.159 46.7676C454.551 46.5033 454.982 46.3711 455.451 46.3711ZM460.168 53.2002C460.368 53.2002 460.562 53.1865 460.749 53.1592C460.936 53.1273 461.084 53.0954 461.193 53.0635V53.9316C461.07 53.9909 460.888 54.0387 460.646 54.0752C460.41 54.1162 460.195 54.1367 460.004 54.1367C458.555 54.1367 457.83 53.3734 457.83 51.8467V47.3896H456.757V46.8428L457.83 46.3711L458.309 44.7715H458.965V46.5078H461.139V47.3896H458.965V51.7988C458.965 52.25 459.072 52.5964 459.286 52.8379C459.5 53.0794 459.794 53.2002 460.168 53.2002ZM462.533 53.2754C462.533 52.9701 462.602 52.7399 462.738 52.585C462.88 52.4255 463.08 52.3457 463.34 52.3457C463.604 52.3457 463.809 52.4255 463.955 52.585C464.105 52.7399 464.181 52.9701 464.181 53.2754C464.181 53.5716 464.105 53.7995 463.955 53.959C463.805 54.1185 463.6 54.1982 463.34 54.1982C463.107 54.1982 462.914 54.1276 462.759 53.9863C462.608 53.8405 462.533 53.6035 462.533 53.2754ZM469.916 54.1367C469.428 54.1367 468.982 54.0479 468.576 53.8701C468.175 53.6878 467.838 53.4098 467.564 53.0361H467.482C467.537 53.4736 467.564 53.8883 467.564 54.2803V57.3633H466.43V46.5078H467.353L467.51 47.5332H467.564C467.856 47.123 468.196 46.8268 468.583 46.6445C468.97 46.4622 469.415 46.3711 469.916 46.3711C470.91 46.3711 471.675 46.7106 472.213 47.3896C472.755 48.0687 473.026 49.0212 473.026 50.2471C473.026 51.4775 472.751 52.4346 472.199 53.1182C471.652 53.7972 470.891 54.1367 469.916 54.1367ZM469.752 47.335C468.986 47.335 468.433 47.5469 468.091 47.9707C467.749 48.3945 467.574 49.069 467.564 49.9941V50.2471C467.564 51.2998 467.74 52.054 468.091 52.5098C468.442 52.9609 469.005 53.1865 469.779 53.1865C470.426 53.1865 470.932 52.9245 471.297 52.4004C471.666 51.8763 471.851 51.154 471.851 50.2334C471.851 49.2992 471.666 48.5837 471.297 48.0869C470.932 47.5856 470.417 47.335 469.752 47.335ZM480.115 52.9951H480.054C479.53 53.7562 478.746 54.1367 477.702 54.1367C476.722 54.1367 475.959 53.8018 475.412 53.1318C474.87 52.4619 474.599 51.5094 474.599 50.2744C474.599 49.0394 474.872 48.0801 475.419 47.3965C475.966 46.7129 476.727 46.3711 477.702 46.3711C478.718 46.3711 479.498 46.7402 480.04 47.4785H480.129L480.081 46.9385L480.054 46.4121V43.3633H481.188V54H480.266L480.115 52.9951ZM477.846 53.1865C478.62 53.1865 479.181 52.9769 479.527 52.5576C479.878 52.1338 480.054 51.4525 480.054 50.5137V50.2744C480.054 49.2126 479.876 48.4561 479.521 48.0049C479.17 47.5492 478.607 47.3213 477.832 47.3213C477.167 47.3213 476.656 47.5811 476.301 48.1006C475.95 48.6156 475.774 49.3447 475.774 50.2881C475.774 51.2451 475.95 51.9674 476.301 52.4551C476.652 52.9427 477.167 53.1865 477.846 53.1865ZM486.979 47.3896H485.071V54H483.937V47.3896H482.597V46.877L483.937 46.4668V46.0498C483.937 44.2087 484.741 43.2881 486.35 43.2881C486.746 43.2881 487.211 43.3678 487.744 43.5273L487.45 44.4365C487.013 44.2952 486.639 44.2246 486.329 44.2246C485.901 44.2246 485.584 44.3682 485.379 44.6553C485.174 44.9378 485.071 45.3936 485.071 46.0225V46.5078H486.979V47.3896Z" fill="#222222"/>
<mask id="path-5-inside-1" fill="white">
<path fill-rule="evenodd" clip-rule="evenodd" d="M91 52H90.5134H86.2C84.5431 52 83.2 50.6569 83.2 49V45.3515V45H71C69.8954 45 69 45.8954 69 47V66.2H91V52ZM92 52V51.1536L83.6379 44H83.2H71C69.3431 44 68 45.3431 68 47V66.2V67.2H69H91H92V66.2V52ZM84.2 49V46.2606L89.4134 51H86.2C85.0954 51 84.2 50.1046 84.2 49Z"/>
</mask>
<path fill-rule="evenodd" clip-rule="evenodd" d="M91 52H90.5134H86.2C84.5431 52 83.2 50.6569 83.2 49V45.3515V45H71C69.8954 45 69 45.8954 69 47V66.2H91V52ZM92 52V51.1536L83.6379 44H83.2H71C69.3431 44 68 45.3431 68 47V66.2V67.2H69H91H92V66.2V52ZM84.2 49V46.2606L89.4134 51H86.2C85.0954 51 84.2 50.1046 84.2 49Z" fill="white"/>
<path d="M91 52H92V51H91V52ZM83.2 45H84.2V44H83.2V45ZM69 66.2H68V67.2H69V66.2ZM91 66.2V67.2H92V66.2H91ZM92 51.1536H93V50.6931L92.6501 50.3937L92 51.1536ZM83.6379 44L84.288 43.2401L84.0073 43H83.6379V44ZM68 67.2H67V68.2H68V67.2ZM92 67.2V68.2H93V67.2H92ZM84.2 46.2606L84.8727 45.5206L83.2 44V46.2606H84.2ZM89.4134 51V52H92L90.0861 50.2601L89.4134 51ZM90.5134 53H91V51H90.5134V53ZM86.2 53H90.5134V51H86.2V53ZM82.2 49C82.2 51.2091 83.9909 53 86.2 53V51C85.0954 51 84.2 50.1046 84.2 49H82.2ZM82.2 45.3515V49H84.2V45.3515H82.2ZM82.2 45V45.3515H84.2V45H82.2ZM83.2 44H71V46H83.2V44ZM71 44C69.3431 44 68 45.3431 68 47H70C70 46.4477 70.4477 46 71 46V44ZM68 47V66.2H70V47H68ZM69 67.2H91V65.2H69V67.2ZM92 66.2V52H90V66.2H92ZM93 52V51.1536H91V52H93ZM92.6501 50.3937L84.288 43.2401L82.9878 44.7599L91.3499 51.9135L92.6501 50.3937ZM83.6379 43H83.2V45H83.6379V43ZM83.2 43H71V45H83.2V43ZM71 43C68.7909 43 67 44.7909 67 47H69C69 45.8954 69.8954 45 71 45V43ZM67 47V66.2H69V47H67ZM67 66.2V67.2H69V66.2H67ZM68 68.2H69V66.2H68V68.2ZM69 68.2H91V66.2H69V68.2ZM91 68.2H92V66.2H91V68.2ZM93 67.2V66.2H91V67.2H93ZM93 66.2V52H91V66.2H93ZM83.2 46.2606V49H85.2V46.2606H83.2ZM90.0861 50.2601L84.8727 45.5206L83.5273 47.0005L88.7407 51.7399L90.0861 50.2601ZM86.2 52H89.4134V50H86.2V52ZM83.2 49C83.2 50.6569 84.5431 52 86.2 52V50C85.6477 50 85.2 49.5523 85.2 49H83.2Z" fill="#222222" mask="url(#path-5-inside-1)"/>
<path d="M83.2 44V48.5475C83.2 50.2043 84.5431 51.5475 86.2 51.5475H91.96" stroke="#222222"/>
<path fill-rule="evenodd" clip-rule="evenodd" d="M68 66.4H92V76H68V66.4Z" fill="#222222"/>
<path fill-rule="evenodd" clip-rule="evenodd" d="M77.3716 69.8615C77.3716 70.3993 77.2035 70.8106 76.8674 71.0954C76.5313 71.3802 76.0534 71.5227 75.4336 71.5227H74.979V73.3H73.9194V68.3029H75.5156C76.1217 68.3029 76.5826 68.4334 76.8982 68.6943C77.2138 68.9552 77.3716 69.3443 77.3716 69.8615ZM74.979 70.6545H75.3276C75.6535 70.6545 75.8973 70.5901 76.0591 70.4614C76.2209 70.3326 76.3018 70.1452 76.3018 69.8991C76.3018 69.6508 76.234 69.4673 76.0984 69.3488C75.9628 69.2303 75.7503 69.1711 75.4609 69.1711H74.979V70.6545ZM81.7585 72.6438C82.2268 72.2063 82.4609 71.5762 82.4609 70.7536C82.4609 69.9812 82.2354 69.3796 81.7842 68.9489C81.333 68.5183 80.6995 68.3029 79.8838 68.3029H78.3149V73.3H79.73C80.6141 73.3 81.2903 73.0813 81.7585 72.6438ZM81.3604 70.781C81.3604 69.7077 80.8864 69.1711 79.9385 69.1711H79.3745V72.425H79.8291C80.8499 72.425 81.3604 71.877 81.3604 70.781ZM83.4966 73.3H84.5391V71.3244H86.2344V70.4597H84.5391V69.1711H86.3608V68.3029H83.4966V73.3Z" fill="white"/>
<path fill-rule="evenodd" clip-rule="evenodd" d="M77.902 57.7178C75.5986 63.976 73.6477 64.756 72.9275 63.484C72.1675 62.1414 74.8814 60.5884 79.0498 59.4385C82.3889 58.5174 87.5994 58.6706 87.1757 60.3992C86.7082 62.3071 82.924 60.0985 80.4118 57.5087C77.8274 54.8443 75.7476 50.624 78.115 50.4052C80.0207 50.229 79.0498 54.5992 77.902 57.7178Z" stroke="#222222"/>
<path d="M47.5 67C47.5 67.8284 46.8284 68.5 46 68.5H32C31.1716 68.5 30.5 67.8284 30.5 67V53C30.5 52.1716 31.1716 51.5 32 51.5H46C46.8284 51.5 47.5 52.1716 47.5 53V67Z" fill="white" stroke="#858585"/>
<mask id="mask0" mask-type="alpha" maskUnits="userSpaceOnUse" x="30" y="51" width="18" height="18">
<path d="M47.5 67C47.5 67.8284 46.8284 68.5 46 68.5H32C31.1716 68.5 30.5 67.8284 30.5 67V53C30.5 52.1716 31.1716 51.5 32 51.5H46C46.8284 51.5 47.5 52.1716 47.5 53V67Z" fill="white" stroke="white"/>
</mask>
<g mask="url(#mask0)">
</g>
<defs>
<filter id="filter0_d" x="0" y="0" width="582" height="120" filterUnits="userSpaceOnUse" color-interpolation-filters="sRGB">
<feFlood flood-opacity="0" result="BackgroundImageFix"/>
<feColorMatrix in="SourceAlpha" type="matrix" values="0 0 0 0 0 0 0 0 0 0 0 0 0 0 0 0 0 0 127 0"/>
<feOffset/>
<feGaussianBlur stdDeviation="5"/>
<feColorMatrix type="matrix" values="0 0 0 0 0 0 0 0 0 0 0 0 0 0 0 0 0 0 0.1 0"/>
<feBlend mode="normal" in2="BackgroundImageFix" result="effect1_dropShadow"/>
<feBlend mode="normal" in="SourceGraphic" in2="effect1_dropShadow" result="shape"/>
</filter>
</defs>
</svg>
