<svg width="390" height="220" viewBox="0 0 390 220" fill="none" xmlns="http://www.w3.org/2000/svg">
<g filter="url(#filter0_d)">
<path fill-rule="evenodd" clip-rule="evenodd" d="M10 14C10 11.7909 11.7909 10 14 10H376C378.209 10 380 11.7909 380 14V206C380 208.209 378.209 210 376 210H14C11.7909 210 10 208.209 10 206V14Z" fill="white"/>
<path d="M10.5 14C10.5 12.067 12.067 10.5 14 10.5H376C377.933 10.5 379.5 12.067 379.5 14V206C379.5 207.933 377.933 209.5 376 209.5H14C12.067 209.5 10.5 207.933 10.5 206V14Z" stroke="#C5C5C5"/>
</g>
<path fill-rule="evenodd" clip-rule="evenodd" d="M351 34L352.385 35.3846L360 27.7478L367.615 35.3846L369 34L360 25L351 34Z" fill="#C2CED7"/>
<path d="M35.4844 190.273C35.4844 192.102 35.0208 193.539 34.0938 194.586C33.1719 195.633 31.888 196.156 30.2422 196.156C28.5599 196.156 27.2604 195.643 26.3438 194.617C25.4323 193.586 24.9766 192.133 24.9766 190.258C24.9766 188.398 25.4349 186.958 26.3516 185.938C27.2682 184.911 28.5703 184.398 30.2578 184.398C31.8984 184.398 33.1797 184.919 34.1016 185.961C35.0234 187.003 35.4844 188.44 35.4844 190.273ZM26.3828 190.273C26.3828 191.82 26.7109 192.995 27.3672 193.797C28.0286 194.594 28.987 194.992 30.2422 194.992C31.5078 194.992 32.4635 194.594 33.1094 193.797C33.7552 193 34.0781 191.826 34.0781 190.273C34.0781 188.737 33.7552 187.573 33.1094 186.781C32.4688 185.984 31.5182 185.586 30.2578 185.586C28.9922 185.586 28.0286 185.987 27.3672 186.789C26.7109 187.586 26.3828 188.747 26.3828 190.273ZM41.8281 196.156C41.2708 196.156 40.7604 196.055 40.2969 195.852C39.8385 195.643 39.4531 195.326 39.1406 194.898H39.0469C39.1094 195.398 39.1406 195.872 39.1406 196.32V199.844H37.8438V187.438H38.8984L39.0781 188.609H39.1406C39.474 188.141 39.862 187.802 40.3047 187.594C40.7474 187.385 41.2552 187.281 41.8281 187.281C42.9635 187.281 43.8385 187.669 44.4531 188.445C45.0729 189.221 45.3828 190.31 45.3828 191.711C45.3828 193.117 45.0677 194.211 44.4375 194.992C43.8125 195.768 42.9427 196.156 41.8281 196.156ZM41.6406 188.383C40.7656 188.383 40.1328 188.625 39.7422 189.109C39.3516 189.594 39.151 190.365 39.1406 191.422V191.711C39.1406 192.914 39.3411 193.776 39.7422 194.297C40.1432 194.812 40.7865 195.07 41.6719 195.07C42.4115 195.07 42.9896 194.771 43.4062 194.172C43.8281 193.573 44.0391 192.747 44.0391 191.695C44.0391 190.628 43.8281 189.81 43.4062 189.242C42.9896 188.669 42.401 188.383 41.6406 188.383ZM50.4219 195.086C50.651 195.086 50.8724 195.07 51.0859 195.039C51.2995 195.003 51.4688 194.966 51.5938 194.93V195.922C51.4531 195.99 51.2448 196.044 50.9688 196.086C50.6979 196.133 50.4531 196.156 50.2344 196.156C48.5781 196.156 47.75 195.284 47.75 193.539V188.445H46.5234V187.82L47.75 187.281L48.2969 185.453H49.0469V187.438H51.5312V188.445H49.0469V193.484C49.0469 194 49.1693 194.396 49.4141 194.672C49.6589 194.948 49.9948 195.086 50.4219 195.086ZM54.6094 196H53.3125V187.438H54.6094V196ZM53.2031 185.117C53.2031 184.82 53.276 184.604 53.4219 184.469C53.5677 184.328 53.75 184.258 53.9688 184.258C54.1771 184.258 54.3568 184.328 54.5078 184.469C54.6589 184.609 54.7344 184.826 54.7344 185.117C54.7344 185.409 54.6589 185.628 54.5078 185.773C54.3568 185.914 54.1771 185.984 53.9688 185.984C53.75 185.984 53.5677 185.914 53.4219 185.773C53.276 185.628 53.2031 185.409 53.2031 185.117ZM64.75 191.711C64.75 193.107 64.3984 194.198 63.6953 194.984C62.9922 195.766 62.0208 196.156 60.7812 196.156C60.0156 196.156 59.3359 195.977 58.7422 195.617C58.1484 195.258 57.6901 194.742 57.3672 194.07C57.0443 193.398 56.8828 192.612 56.8828 191.711C56.8828 190.315 57.2318 189.229 57.9297 188.453C58.6276 187.672 59.5964 187.281 60.8359 187.281C62.0339 187.281 62.9844 187.68 63.6875 188.477C64.3958 189.273 64.75 190.352 64.75 191.711ZM58.2266 191.711C58.2266 192.805 58.4453 193.638 58.8828 194.211C59.3203 194.784 59.9635 195.07 60.8125 195.07C61.6615 195.07 62.3047 194.786 62.7422 194.219C63.1849 193.646 63.4062 192.81 63.4062 191.711C63.4062 190.622 63.1849 189.797 62.7422 189.234C62.3047 188.667 61.6562 188.383 60.7969 188.383C59.9479 188.383 59.3073 188.661 58.875 189.219C58.4427 189.776 58.2266 190.607 58.2266 191.711ZM72.8906 196V190.461C72.8906 189.763 72.7318 189.242 72.4141 188.898C72.0964 188.555 71.599 188.383 70.9219 188.383C70.026 188.383 69.3698 188.625 68.9531 189.109C68.5365 189.594 68.3281 190.393 68.3281 191.508V196H67.0312V187.438H68.0859L68.2969 188.609H68.3594C68.625 188.188 68.9974 187.862 69.4766 187.633C69.9557 187.398 70.4896 187.281 71.0781 187.281C72.1094 187.281 72.8854 187.531 73.4062 188.031C73.9271 188.526 74.1875 189.32 74.1875 190.414V196H72.8906ZM82.5391 196H81.2109V184.578H87.5781V185.758H82.5391V189.938H87.2734V191.117H82.5391V196ZM96.6719 191.711C96.6719 193.107 96.3203 194.198 95.6172 194.984C94.9141 195.766 93.9427 196.156 92.7031 196.156C91.9375 196.156 91.2578 195.977 90.6641 195.617C90.0703 195.258 89.612 194.742 89.2891 194.07C88.9661 193.398 88.8047 192.612 88.8047 191.711C88.8047 190.315 89.1536 189.229 89.8516 188.453C90.5495 187.672 91.5182 187.281 92.7578 187.281C93.9557 187.281 94.9062 187.68 95.6094 188.477C96.3177 189.273 96.6719 190.352 96.6719 191.711ZM90.1484 191.711C90.1484 192.805 90.3672 193.638 90.8047 194.211C91.2422 194.784 91.8854 195.07 92.7344 195.07C93.5833 195.07 94.2266 194.786 94.6641 194.219C95.1068 193.646 95.3281 192.81 95.3281 191.711C95.3281 190.622 95.1068 189.797 94.6641 189.234C94.2266 188.667 93.5781 188.383 92.7188 188.383C91.8698 188.383 91.2292 188.661 90.7969 189.219C90.3646 189.776 90.1484 190.607 90.1484 191.711ZM100.172 187.438V192.992C100.172 193.69 100.331 194.211 100.648 194.555C100.966 194.898 101.464 195.07 102.141 195.07C103.036 195.07 103.69 194.826 104.102 194.336C104.518 193.846 104.727 193.047 104.727 191.938V187.438H106.023V196H104.953L104.766 194.852H104.695C104.43 195.273 104.06 195.596 103.586 195.82C103.117 196.044 102.581 196.156 101.977 196.156C100.935 196.156 100.154 195.909 99.6328 195.414C99.1172 194.919 98.8594 194.128 98.8594 193.039V187.438H100.172ZM112.688 187.281C113.068 187.281 113.409 187.312 113.711 187.375L113.531 188.578C113.177 188.5 112.865 188.461 112.594 188.461C111.901 188.461 111.307 188.742 110.812 189.305C110.323 189.867 110.078 190.568 110.078 191.406V196H108.781V187.438H109.852L110 189.023H110.062C110.38 188.466 110.763 188.036 111.211 187.734C111.659 187.432 112.151 187.281 112.688 187.281Z" fill="#222222"/>
<path d="M35.4844 150.273C35.4844 152.102 35.0208 153.539 34.0938 154.586C33.1719 155.633 31.888 156.156 30.2422 156.156C28.5599 156.156 27.2604 155.643 26.3438 154.617C25.4323 153.586 24.9766 152.133 24.9766 150.258C24.9766 148.398 25.4349 146.958 26.3516 145.938C27.2682 144.911 28.5703 144.398 30.2578 144.398C31.8984 144.398 33.1797 144.919 34.1016 145.961C35.0234 147.003 35.4844 148.44 35.4844 150.273ZM26.3828 150.273C26.3828 151.82 26.7109 152.995 27.3672 153.797C28.0286 154.594 28.987 154.992 30.2422 154.992C31.5078 154.992 32.4635 154.594 33.1094 153.797C33.7552 153 34.0781 151.826 34.0781 150.273C34.0781 148.737 33.7552 147.573 33.1094 146.781C32.4688 145.984 31.5182 145.586 30.2578 145.586C28.9922 145.586 28.0286 145.987 27.3672 146.789C26.7109 147.586 26.3828 148.747 26.3828 150.273ZM41.8281 156.156C41.2708 156.156 40.7604 156.055 40.2969 155.852C39.8385 155.643 39.4531 155.326 39.1406 154.898H39.0469C39.1094 155.398 39.1406 155.872 39.1406 156.32V159.844H37.8438V147.438H38.8984L39.0781 148.609H39.1406C39.474 148.141 39.862 147.802 40.3047 147.594C40.7474 147.385 41.2552 147.281 41.8281 147.281C42.9635 147.281 43.8385 147.669 44.4531 148.445C45.0729 149.221 45.3828 150.31 45.3828 151.711C45.3828 153.117 45.0677 154.211 44.4375 154.992C43.8125 155.768 42.9427 156.156 41.8281 156.156ZM41.6406 148.383C40.7656 148.383 40.1328 148.625 39.7422 149.109C39.3516 149.594 39.151 150.365 39.1406 151.422V151.711C39.1406 152.914 39.3411 153.776 39.7422 154.297C40.1432 154.812 40.7865 155.07 41.6719 155.07C42.4115 155.07 42.9896 154.771 43.4062 154.172C43.8281 153.573 44.0391 152.747 44.0391 151.695C44.0391 150.628 43.8281 149.81 43.4062 149.242C42.9896 148.669 42.401 148.383 41.6406 148.383ZM50.4219 155.086C50.651 155.086 50.8724 155.07 51.0859 155.039C51.2995 155.003 51.4688 154.966 51.5938 154.93V155.922C51.4531 155.99 51.2448 156.044 50.9688 156.086C50.6979 156.133 50.4531 156.156 50.2344 156.156C48.5781 156.156 47.75 155.284 47.75 153.539V148.445H46.5234V147.82L47.75 147.281L48.2969 145.453H49.0469V147.438H51.5312V148.445H49.0469V153.484C49.0469 154 49.1693 154.396 49.4141 154.672C49.6589 154.948 49.9948 155.086 50.4219 155.086ZM54.6094 156H53.3125V147.438H54.6094V156ZM53.2031 145.117C53.2031 144.82 53.276 144.604 53.4219 144.469C53.5677 144.328 53.75 144.258 53.9688 144.258C54.1771 144.258 54.3568 144.328 54.5078 144.469C54.6589 144.609 54.7344 144.826 54.7344 145.117C54.7344 145.409 54.6589 145.628 54.5078 145.773C54.3568 145.914 54.1771 145.984 53.9688 145.984C53.75 145.984 53.5677 145.914 53.4219 145.773C53.276 145.628 53.2031 145.409 53.2031 145.117ZM64.75 151.711C64.75 153.107 64.3984 154.198 63.6953 154.984C62.9922 155.766 62.0208 156.156 60.7812 156.156C60.0156 156.156 59.3359 155.977 58.7422 155.617C58.1484 155.258 57.6901 154.742 57.3672 154.07C57.0443 153.398 56.8828 152.612 56.8828 151.711C56.8828 150.315 57.2318 149.229 57.9297 148.453C58.6276 147.672 59.5964 147.281 60.8359 147.281C62.0339 147.281 62.9844 147.68 63.6875 148.477C64.3958 149.273 64.75 150.352 64.75 151.711ZM58.2266 151.711C58.2266 152.805 58.4453 153.638 58.8828 154.211C59.3203 154.784 59.9635 155.07 60.8125 155.07C61.6615 155.07 62.3047 154.786 62.7422 154.219C63.1849 153.646 63.4062 152.81 63.4062 151.711C63.4062 150.622 63.1849 149.797 62.7422 149.234C62.3047 148.667 61.6562 148.383 60.7969 148.383C59.9479 148.383 59.3073 148.661 58.875 149.219C58.4427 149.776 58.2266 150.607 58.2266 151.711ZM72.8906 156V150.461C72.8906 149.763 72.7318 149.242 72.4141 148.898C72.0964 148.555 71.599 148.383 70.9219 148.383C70.026 148.383 69.3698 148.625 68.9531 149.109C68.5365 149.594 68.3281 150.393 68.3281 151.508V156H67.0312V147.438H68.0859L68.2969 148.609H68.3594C68.625 148.188 68.9974 147.862 69.4766 147.633C69.9557 147.398 70.4896 147.281 71.0781 147.281C72.1094 147.281 72.8854 147.531 73.4062 148.031C73.9271 148.526 74.1875 149.32 74.1875 150.414V156H72.8906ZM84.7266 156H83.3984V145.758H79.7812V144.578H88.3438V145.758H84.7266V156ZM95.7344 156V150.461C95.7344 149.763 95.5755 149.242 95.2578 148.898C94.9401 148.555 94.4427 148.383 93.7656 148.383C92.8646 148.383 92.2057 148.628 91.7891 149.117C91.3776 149.607 91.1719 150.409 91.1719 151.523V156H89.875V143.844H91.1719V147.523C91.1719 147.966 91.151 148.333 91.1094 148.625H91.1875C91.4427 148.214 91.8047 147.891 92.2734 147.656C92.7474 147.417 93.2865 147.297 93.8906 147.297C94.9375 147.297 95.7214 147.547 96.2422 148.047C96.7682 148.542 97.0312 149.331 97.0312 150.414V156H95.7344ZM103.609 147.281C103.99 147.281 104.331 147.312 104.633 147.375L104.453 148.578C104.099 148.5 103.786 148.461 103.516 148.461C102.823 148.461 102.229 148.742 101.734 149.305C101.245 149.867 101 150.568 101 151.406V156H99.7031V147.438H100.773L100.922 149.023H100.984C101.302 148.466 101.685 148.036 102.133 147.734C102.581 147.432 103.073 147.281 103.609 147.281ZM109.852 156.156C108.586 156.156 107.586 155.771 106.852 155C106.122 154.229 105.758 153.159 105.758 151.789C105.758 150.409 106.096 149.312 106.773 148.5C107.456 147.688 108.37 147.281 109.516 147.281C110.589 147.281 111.438 147.635 112.062 148.344C112.688 149.047 113 149.977 113 151.133V151.953H107.102C107.128 152.958 107.38 153.721 107.859 154.242C108.344 154.763 109.023 155.023 109.898 155.023C110.82 155.023 111.732 154.831 112.633 154.445V155.602C112.174 155.799 111.74 155.94 111.328 156.023C110.922 156.112 110.43 156.156 109.852 156.156ZM109.5 148.367C108.812 148.367 108.263 148.591 107.852 149.039C107.445 149.487 107.206 150.107 107.133 150.898H111.609C111.609 150.081 111.427 149.456 111.062 149.023C110.698 148.586 110.177 148.367 109.5 148.367ZM118.836 156.156C117.57 156.156 116.57 155.771 115.836 155C115.107 154.229 114.742 153.159 114.742 151.789C114.742 150.409 115.081 149.312 115.758 148.5C116.44 147.688 117.354 147.281 118.5 147.281C119.573 147.281 120.422 147.635 121.047 148.344C121.672 149.047 121.984 149.977 121.984 151.133V151.953H116.086C116.112 152.958 116.365 153.721 116.844 154.242C117.328 154.763 118.008 155.023 118.883 155.023C119.805 155.023 120.716 154.831 121.617 154.445V155.602C121.159 155.799 120.724 155.94 120.312 156.023C119.906 156.112 119.414 156.156 118.836 156.156ZM118.484 148.367C117.797 148.367 117.247 148.591 116.836 149.039C116.43 149.487 116.19 150.107 116.117 150.898H120.594C120.594 150.081 120.411 149.456 120.047 149.023C119.682 148.586 119.161 148.367 118.484 148.367Z" fill="#222222"/>
<path d="M35.4844 110.273C35.4844 112.102 35.0208 113.539 34.0938 114.586C33.1719 115.633 31.888 116.156 30.2422 116.156C28.5599 116.156 27.2604 115.643 26.3438 114.617C25.4323 113.586 24.9766 112.133 24.9766 110.258C24.9766 108.398 25.4349 106.958 26.3516 105.938C27.2682 104.911 28.5703 104.398 30.2578 104.398C31.8984 104.398 33.1797 104.919 34.1016 105.961C35.0234 107.003 35.4844 108.44 35.4844 110.273ZM26.3828 110.273C26.3828 111.82 26.7109 112.995 27.3672 113.797C28.0286 114.594 28.987 114.992 30.2422 114.992C31.5078 114.992 32.4635 114.594 33.1094 113.797C33.7552 113 34.0781 111.826 34.0781 110.273C34.0781 108.737 33.7552 107.573 33.1094 106.781C32.4688 105.984 31.5182 105.586 30.2578 105.586C28.9922 105.586 28.0286 105.987 27.3672 106.789C26.7109 107.586 26.3828 108.747 26.3828 110.273ZM41.8281 116.156C41.2708 116.156 40.7604 116.055 40.2969 115.852C39.8385 115.643 39.4531 115.326 39.1406 114.898H39.0469C39.1094 115.398 39.1406 115.872 39.1406 116.32V119.844H37.8438V107.438H38.8984L39.0781 108.609H39.1406C39.474 108.141 39.862 107.802 40.3047 107.594C40.7474 107.385 41.2552 107.281 41.8281 107.281C42.9635 107.281 43.8385 107.669 44.4531 108.445C45.0729 109.221 45.3828 110.31 45.3828 111.711C45.3828 113.117 45.0677 114.211 44.4375 114.992C43.8125 115.768 42.9427 116.156 41.8281 116.156ZM41.6406 108.383C40.7656 108.383 40.1328 108.625 39.7422 109.109C39.3516 109.594 39.151 110.365 39.1406 111.422V111.711C39.1406 112.914 39.3411 113.776 39.7422 114.297C40.1432 114.812 40.7865 115.07 41.6719 115.07C42.4115 115.07 42.9896 114.771 43.4062 114.172C43.8281 113.573 44.0391 112.747 44.0391 111.695C44.0391 110.628 43.8281 109.81 43.4062 109.242C42.9896 108.669 42.401 108.383 41.6406 108.383ZM50.4219 115.086C50.651 115.086 50.8724 115.07 51.0859 115.039C51.2995 115.003 51.4688 114.966 51.5938 114.93V115.922C51.4531 115.99 51.2448 116.044 50.9688 116.086C50.6979 116.133 50.4531 116.156 50.2344 116.156C48.5781 116.156 47.75 115.284 47.75 113.539V108.445H46.5234V107.82L47.75 107.281L48.2969 105.453H49.0469V107.438H51.5312V108.445H49.0469V113.484C49.0469 114 49.1693 114.396 49.4141 114.672C49.6589 114.948 49.9948 115.086 50.4219 115.086ZM54.6094 116H53.3125V107.438H54.6094V116ZM53.2031 105.117C53.2031 104.82 53.276 104.604 53.4219 104.469C53.5677 104.328 53.75 104.258 53.9688 104.258C54.1771 104.258 54.3568 104.328 54.5078 104.469C54.6589 104.609 54.7344 104.826 54.7344 105.117C54.7344 105.409 54.6589 105.628 54.5078 105.773C54.3568 105.914 54.1771 105.984 53.9688 105.984C53.75 105.984 53.5677 105.914 53.4219 105.773C53.276 105.628 53.2031 105.409 53.2031 105.117ZM64.75 111.711C64.75 113.107 64.3984 114.198 63.6953 114.984C62.9922 115.766 62.0208 116.156 60.7812 116.156C60.0156 116.156 59.3359 115.977 58.7422 115.617C58.1484 115.258 57.6901 114.742 57.3672 114.07C57.0443 113.398 56.8828 112.612 56.8828 111.711C56.8828 110.315 57.2318 109.229 57.9297 108.453C58.6276 107.672 59.5964 107.281 60.8359 107.281C62.0339 107.281 62.9844 107.68 63.6875 108.477C64.3958 109.273 64.75 110.352 64.75 111.711ZM58.2266 111.711C58.2266 112.805 58.4453 113.638 58.8828 114.211C59.3203 114.784 59.9635 115.07 60.8125 115.07C61.6615 115.07 62.3047 114.786 62.7422 114.219C63.1849 113.646 63.4062 112.81 63.4062 111.711C63.4062 110.622 63.1849 109.797 62.7422 109.234C62.3047 108.667 61.6562 108.383 60.7969 108.383C59.9479 108.383 59.3073 108.661 58.875 109.219C58.4427 109.776 58.2266 110.607 58.2266 111.711ZM72.8906 116V110.461C72.8906 109.763 72.7318 109.242 72.4141 108.898C72.0964 108.555 71.599 108.383 70.9219 108.383C70.026 108.383 69.3698 108.625 68.9531 109.109C68.5365 109.594 68.3281 110.393 68.3281 111.508V116H67.0312V107.438H68.0859L68.2969 108.609H68.3594C68.625 108.188 68.9974 107.862 69.4766 107.633C69.9557 107.398 70.4896 107.281 71.0781 107.281C72.1094 107.281 72.8854 107.531 73.4062 108.031C73.9271 108.526 74.1875 109.32 74.1875 110.414V116H72.8906ZM84.7266 116H83.3984V105.758H79.7812V104.578H88.3438V105.758H84.7266V116ZM96.8672 116L95.2969 110.977C95.1979 110.669 95.013 109.971 94.7422 108.883H94.6797C94.4714 109.794 94.2891 110.497 94.1328 110.992L92.5156 116H91.0156L88.6797 107.438H90.0391C90.5911 109.589 91.0104 111.227 91.2969 112.352C91.5885 113.477 91.7552 114.234 91.7969 114.625H91.8594C91.9167 114.328 92.0078 113.945 92.1328 113.477C92.263 113.003 92.375 112.628 92.4688 112.352L94.0391 107.438H95.4453L96.9766 112.352C97.2682 113.247 97.4661 114 97.5703 114.609H97.6328C97.6536 114.422 97.7083 114.133 97.7969 113.742C97.8906 113.352 98.4349 111.25 99.4297 107.438H100.773L98.4062 116H96.8672ZM109.719 111.711C109.719 113.107 109.367 114.198 108.664 114.984C107.961 115.766 106.99 116.156 105.75 116.156C104.984 116.156 104.305 115.977 103.711 115.617C103.117 115.258 102.659 114.742 102.336 114.07C102.013 113.398 101.852 112.612 101.852 111.711C101.852 110.315 102.201 109.229 102.898 108.453C103.596 107.672 104.565 107.281 105.805 107.281C107.003 107.281 107.953 107.68 108.656 108.477C109.365 109.273 109.719 110.352 109.719 111.711ZM103.195 111.711C103.195 112.805 103.414 113.638 103.852 114.211C104.289 114.784 104.932 115.07 105.781 115.07C106.63 115.07 107.273 114.786 107.711 114.219C108.154 113.646 108.375 112.81 108.375 111.711C108.375 110.622 108.154 109.797 107.711 109.234C107.273 108.667 106.625 108.383 105.766 108.383C104.917 108.383 104.276 108.661 103.844 109.219C103.411 109.776 103.195 110.607 103.195 111.711Z" fill="#222222"/>
<path d="M35.4844 70.2734C35.4844 72.1016 35.0208 73.5391 34.0938 74.5859C33.1719 75.6328 31.888 76.1562 30.2422 76.1562C28.5599 76.1562 27.2604 75.6432 26.3438 74.6172C25.4323 73.5859 24.9766 72.1328 24.9766 70.2578C24.9766 68.3984 25.4349 66.9583 26.3516 65.9375C27.2682 64.9115 28.5703 64.3984 30.2578 64.3984C31.8984 64.3984 33.1797 64.9193 34.1016 65.9609C35.0234 67.0026 35.4844 68.4401 35.4844 70.2734ZM26.3828 70.2734C26.3828 71.8203 26.7109 72.9948 27.3672 73.7969C28.0286 74.5938 28.987 74.9922 30.2422 74.9922C31.5078 74.9922 32.4635 74.5938 33.1094 73.7969C33.7552 73 34.0781 71.8255 34.0781 70.2734C34.0781 68.737 33.7552 67.5729 33.1094 66.7812C32.4688 65.9844 31.5182 65.5859 30.2578 65.5859C28.9922 65.5859 28.0286 65.987 27.3672 66.7891C26.7109 67.5859 26.3828 68.7474 26.3828 70.2734ZM41.8281 76.1562C41.2708 76.1562 40.7604 76.0547 40.2969 75.8516C39.8385 75.6432 39.4531 75.3255 39.1406 74.8984H39.0469C39.1094 75.3984 39.1406 75.8724 39.1406 76.3203V79.8438H37.8438V67.4375H38.8984L39.0781 68.6094H39.1406C39.474 68.1406 39.862 67.8021 40.3047 67.5938C40.7474 67.3854 41.2552 67.2812 41.8281 67.2812C42.9635 67.2812 43.8385 67.6693 44.4531 68.4453C45.0729 69.2214 45.3828 70.3099 45.3828 71.7109C45.3828 73.1172 45.0677 74.2109 44.4375 74.9922C43.8125 75.7682 42.9427 76.1562 41.8281 76.1562ZM41.6406 68.3828C40.7656 68.3828 40.1328 68.625 39.7422 69.1094C39.3516 69.5938 39.151 70.3646 39.1406 71.4219V71.7109C39.1406 72.9141 39.3411 73.776 39.7422 74.2969C40.1432 74.8125 40.7865 75.0703 41.6719 75.0703C42.4115 75.0703 42.9896 74.7708 43.4062 74.1719C43.8281 73.5729 44.0391 72.7474 44.0391 71.6953C44.0391 70.6276 43.8281 69.8099 43.4062 69.2422C42.9896 68.6693 42.401 68.3828 41.6406 68.3828ZM50.4219 75.0859C50.651 75.0859 50.8724 75.0703 51.0859 75.0391C51.2995 75.0026 51.4688 74.9661 51.5938 74.9297V75.9219C51.4531 75.9896 51.2448 76.0443 50.9688 76.0859C50.6979 76.1328 50.4531 76.1562 50.2344 76.1562C48.5781 76.1562 47.75 75.2839 47.75 73.5391V68.4453H46.5234V67.8203L47.75 67.2812L48.2969 65.4531H49.0469V67.4375H51.5312V68.4453H49.0469V73.4844C49.0469 74 49.1693 74.3958 49.4141 74.6719C49.6589 74.9479 49.9948 75.0859 50.4219 75.0859ZM54.6094 76H53.3125V67.4375H54.6094V76ZM53.2031 65.1172C53.2031 64.8203 53.276 64.6042 53.4219 64.4688C53.5677 64.3281 53.75 64.2578 53.9688 64.2578C54.1771 64.2578 54.3568 64.3281 54.5078 64.4688C54.6589 64.6094 54.7344 64.8255 54.7344 65.1172C54.7344 65.4089 54.6589 65.6276 54.5078 65.7734C54.3568 65.9141 54.1771 65.9844 53.9688 65.9844C53.75 65.9844 53.5677 65.9141 53.4219 65.7734C53.276 65.6276 53.2031 65.4089 53.2031 65.1172ZM64.75 71.7109C64.75 73.1068 64.3984 74.1979 63.6953 74.9844C62.9922 75.7656 62.0208 76.1562 60.7812 76.1562C60.0156 76.1562 59.3359 75.9766 58.7422 75.6172C58.1484 75.2578 57.6901 74.7422 57.3672 74.0703C57.0443 73.3984 56.8828 72.612 56.8828 71.7109C56.8828 70.3151 57.2318 69.2292 57.9297 68.4531C58.6276 67.6719 59.5964 67.2812 60.8359 67.2812C62.0339 67.2812 62.9844 67.6797 63.6875 68.4766C64.3958 69.2734 64.75 70.3516 64.75 71.7109ZM58.2266 71.7109C58.2266 72.8047 58.4453 73.638 58.8828 74.2109C59.3203 74.7839 59.9635 75.0703 60.8125 75.0703C61.6615 75.0703 62.3047 74.7865 62.7422 74.2188C63.1849 73.6458 63.4062 72.8099 63.4062 71.7109C63.4062 70.6224 63.1849 69.7969 62.7422 69.2344C62.3047 68.6667 61.6562 68.3828 60.7969 68.3828C59.9479 68.3828 59.3073 68.6615 58.875 69.2188C58.4427 69.776 58.2266 70.6068 58.2266 71.7109ZM72.8906 76V70.4609C72.8906 69.763 72.7318 69.2422 72.4141 68.8984C72.0964 68.5547 71.599 68.3828 70.9219 68.3828C70.026 68.3828 69.3698 68.625 68.9531 69.1094C68.5365 69.5938 68.3281 70.3932 68.3281 71.5078V76H67.0312V67.4375H68.0859L68.2969 68.6094H68.3594C68.625 68.1875 68.9974 67.862 69.4766 67.6328C69.9557 67.3984 70.4896 67.2812 71.0781 67.2812C72.1094 67.2812 72.8854 67.5312 73.4062 68.0312C73.9271 68.526 74.1875 69.3203 74.1875 70.4141V76H72.8906ZM91.125 70.2734C91.125 72.1016 90.6615 73.5391 89.7344 74.5859C88.8125 75.6328 87.5286 76.1562 85.8828 76.1562C84.2005 76.1562 82.901 75.6432 81.9844 74.6172C81.0729 73.5859 80.6172 72.1328 80.6172 70.2578C80.6172 68.3984 81.0755 66.9583 81.9922 65.9375C82.9089 64.9115 84.2109 64.3984 85.8984 64.3984C87.5391 64.3984 88.8203 64.9193 89.7422 65.9609C90.6641 67.0026 91.125 68.4401 91.125 70.2734ZM82.0234 70.2734C82.0234 71.8203 82.3516 72.9948 83.0078 73.7969C83.6693 74.5938 84.6276 74.9922 85.8828 74.9922C87.1484 74.9922 88.1042 74.5938 88.75 73.7969C89.3958 73 89.7188 71.8255 89.7188 70.2734C89.7188 68.737 89.3958 67.5729 88.75 66.7812C88.1094 65.9844 87.1589 65.5859 85.8984 65.5859C84.6328 65.5859 83.6693 65.987 83.0078 66.7891C82.3516 67.5859 82.0234 68.7474 82.0234 70.2734ZM99.3438 76V70.4609C99.3438 69.763 99.1849 69.2422 98.8672 68.8984C98.5495 68.5547 98.0521 68.3828 97.375 68.3828C96.4792 68.3828 95.8229 68.625 95.4062 69.1094C94.9896 69.5938 94.7812 70.3932 94.7812 71.5078V76H93.4844V67.4375H94.5391L94.75 68.6094H94.8125C95.0781 68.1875 95.4505 67.862 95.9297 67.6328C96.4089 67.3984 96.9427 67.2812 97.5312 67.2812C98.5625 67.2812 99.3385 67.5312 99.8594 68.0312C100.38 68.526 100.641 69.3203 100.641 70.4141V76H99.3438ZM106.93 76.1562C105.664 76.1562 104.664 75.7708 103.93 75C103.201 74.2292 102.836 73.1589 102.836 71.7891C102.836 70.4089 103.174 69.3125 103.852 68.5C104.534 67.6875 105.448 67.2812 106.594 67.2812C107.667 67.2812 108.516 67.6354 109.141 68.3438C109.766 69.0469 110.078 69.9766 110.078 71.1328V71.9531H104.18C104.206 72.9583 104.458 73.7214 104.938 74.2422C105.422 74.763 106.102 75.0234 106.977 75.0234C107.898 75.0234 108.81 74.8307 109.711 74.4453V75.6016C109.253 75.7995 108.818 75.9401 108.406 76.0234C108 76.112 107.508 76.1562 106.93 76.1562ZM106.578 68.3672C105.891 68.3672 105.341 68.5911 104.93 69.0391C104.523 69.487 104.284 70.1068 104.211 70.8984H108.688C108.688 70.0807 108.505 69.4557 108.141 69.0234C107.776 68.5859 107.255 68.3672 106.578 68.3672Z" fill="#222222"/>
<path d="M34.6875 30.1797C34.6875 32.0651 34.1745 33.5078 33.1484 34.5078C32.1276 35.5026 30.6562 36 28.7344 36H25.5703V24.5781H29.0703C30.8464 24.5781 32.2266 25.0703 33.2109 26.0547C34.1953 27.0391 34.6875 28.4141 34.6875 30.1797ZM33.2812 30.2266C33.2812 28.737 32.9062 27.6146 32.1562 26.8594C31.4115 26.1042 30.3021 25.7266 28.8281 25.7266H26.8984V34.8516H28.5156C30.099 34.8516 31.2891 34.4635 32.0859 33.6875C32.8828 32.9062 33.2812 31.7526 33.2812 30.2266ZM40.9531 27.2812C41.3333 27.2812 41.6745 27.3125 41.9766 27.375L41.7969 28.5781C41.4427 28.5 41.1302 28.4609 40.8594 28.4609C40.1667 28.4609 39.5729 28.7422 39.0781 29.3047C38.5885 29.8672 38.3438 30.5677 38.3438 31.4062V36H37.0469V27.4375H38.1172L38.2656 29.0234H38.3281C38.6458 28.4661 39.0286 28.0365 39.4766 27.7344C39.9245 27.4323 40.4167 27.2812 40.9531 27.2812ZM50.9688 31.7109C50.9688 33.1068 50.6172 34.1979 49.9141 34.9844C49.2109 35.7656 48.2396 36.1562 47 36.1562C46.2344 36.1562 45.5547 35.9766 44.9609 35.6172C44.3672 35.2578 43.9089 34.7422 43.5859 34.0703C43.263 33.3984 43.1016 32.612 43.1016 31.7109C43.1016 30.3151 43.4505 29.2292 44.1484 28.4531C44.8464 27.6719 45.8151 27.2812 47.0547 27.2812C48.2526 27.2812 49.2031 27.6797 49.9062 28.4766C50.6146 29.2734 50.9688 30.3516 50.9688 31.7109ZM44.4453 31.7109C44.4453 32.8047 44.6641 33.638 45.1016 34.2109C45.5391 34.7839 46.1823 35.0703 47.0312 35.0703C47.8802 35.0703 48.5234 34.7865 48.9609 34.2188C49.4036 33.6458 49.625 32.8099 49.625 31.7109C49.625 30.6224 49.4036 29.7969 48.9609 29.2344C48.5234 28.6667 47.875 28.3828 47.0156 28.3828C46.1667 28.3828 45.526 28.6615 45.0938 29.2188C44.6615 29.776 44.4453 30.6068 44.4453 31.7109ZM57.2344 36.1562C56.6771 36.1562 56.1667 36.0547 55.7031 35.8516C55.2448 35.6432 54.8594 35.3255 54.5469 34.8984H54.4531C54.5156 35.3984 54.5469 35.8724 54.5469 36.3203V39.8438H53.25V27.4375H54.3047L54.4844 28.6094H54.5469C54.8802 28.1406 55.2682 27.8021 55.7109 27.5938C56.1536 27.3854 56.6615 27.2812 57.2344 27.2812C58.3698 27.2812 59.2448 27.6693 59.8594 28.4453C60.4792 29.2214 60.7891 30.3099 60.7891 31.7109C60.7891 33.1172 60.474 34.2109 59.8438 34.9922C59.2188 35.7682 58.349 36.1562 57.2344 36.1562ZM57.0469 28.3828C56.1719 28.3828 55.5391 28.625 55.1484 29.1094C54.7578 29.5938 54.5573 30.3646 54.5469 31.4219V31.7109C54.5469 32.9141 54.7474 33.776 55.1484 34.2969C55.5495 34.8125 56.1927 35.0703 57.0781 35.0703C57.8177 35.0703 58.3958 34.7708 58.8125 34.1719C59.2344 33.5729 59.4453 32.7474 59.4453 31.6953C59.4453 30.6276 59.2344 29.8099 58.8125 29.2422C58.3958 28.6693 57.8073 28.3828 57.0469 28.3828ZM68.8906 34.8516H68.8203C68.2214 35.7214 67.3255 36.1562 66.1328 36.1562C65.013 36.1562 64.1406 35.7734 63.5156 35.0078C62.8958 34.2422 62.5859 33.1536 62.5859 31.7422C62.5859 30.3307 62.8984 29.2344 63.5234 28.4531C64.1484 27.6719 65.0182 27.2812 66.1328 27.2812C67.2943 27.2812 68.1849 27.7031 68.8047 28.5469H68.9062L68.8516 27.9297L68.8203 27.3281V23.8438H70.1172V36H69.0625L68.8906 34.8516ZM66.2969 35.0703C67.1823 35.0703 67.8229 34.8307 68.2188 34.3516C68.6198 33.8672 68.8203 33.0885 68.8203 32.0156V31.7422C68.8203 30.5286 68.6172 29.6641 68.2109 29.1484C67.8099 28.6276 67.1667 28.3672 66.2812 28.3672C65.5208 28.3672 64.9375 28.6641 64.5312 29.2578C64.1302 29.8464 63.9297 30.6797 63.9297 31.7578C63.9297 32.8516 64.1302 33.6771 64.5312 34.2344C64.9323 34.7917 65.5208 35.0703 66.2969 35.0703ZM80.2656 31.7109C80.2656 33.1068 79.9141 34.1979 79.2109 34.9844C78.5078 35.7656 77.5365 36.1562 76.2969 36.1562C75.5312 36.1562 74.8516 35.9766 74.2578 35.6172C73.6641 35.2578 73.2057 34.7422 72.8828 34.0703C72.5599 33.3984 72.3984 32.612 72.3984 31.7109C72.3984 30.3151 72.7474 29.2292 73.4453 28.4531C74.1432 27.6719 75.112 27.2812 76.3516 27.2812C77.5495 27.2812 78.5 27.6797 79.2031 28.4766C79.9115 29.2734 80.2656 30.3516 80.2656 31.7109ZM73.7422 31.7109C73.7422 32.8047 73.9609 33.638 74.3984 34.2109C74.8359 34.7839 75.4792 35.0703 76.3281 35.0703C77.1771 35.0703 77.8203 34.7865 78.2578 34.2188C78.7005 33.6458 78.9219 32.8099 78.9219 31.7109C78.9219 30.6224 78.7005 29.7969 78.2578 29.2344C77.8203 28.6667 77.1719 28.3828 76.3125 28.3828C75.4635 28.3828 74.8229 28.6615 74.3906 29.2188C73.9583 29.776 73.7422 30.6068 73.7422 31.7109ZM89.5391 36L87.9688 30.9766C87.8698 30.6693 87.6849 29.9714 87.4141 28.8828H87.3516C87.1432 29.7943 86.9609 30.4974 86.8047 30.9922L85.1875 36H83.6875L81.3516 27.4375H82.7109C83.263 29.5885 83.6823 31.2266 83.9688 32.3516C84.2604 33.4766 84.4271 34.2344 84.4688 34.625H84.5312C84.5885 34.3281 84.6797 33.9453 84.8047 33.4766C84.9349 33.0026 85.0469 32.6276 85.1406 32.3516L86.7109 27.4375H88.1172L89.6484 32.3516C89.9401 33.2474 90.138 34 90.2422 34.6094H90.3047C90.3255 34.4219 90.3802 34.1328 90.4688 33.7422C90.5625 33.3516 91.1068 31.25 92.1016 27.4375H93.4453L91.0781 36H89.5391ZM100.859 36V30.4609C100.859 29.763 100.701 29.2422 100.383 28.8984C100.065 28.5547 99.5677 28.3828 98.8906 28.3828C97.9948 28.3828 97.3385 28.625 96.9219 29.1094C96.5052 29.5938 96.2969 30.3932 96.2969 31.5078V36H95V27.4375H96.0547L96.2656 28.6094H96.3281C96.5938 28.1875 96.9661 27.862 97.4453 27.6328C97.9245 27.3984 98.4583 27.2812 99.0469 27.2812C100.078 27.2812 100.854 27.5312 101.375 28.0312C101.896 28.526 102.156 29.3203 102.156 30.4141V36H100.859ZM115.547 36H109.18V24.5781H115.547V25.7578H110.508V29.4375H115.242V30.6094H110.508V34.8125H115.547V36ZM119.953 31.6172L116.977 27.4375H118.453L120.711 30.7188L122.961 27.4375H124.422L121.445 31.6172L124.578 36H123.109L120.711 32.5312L118.289 36H116.82L119.953 31.6172ZM130.266 36.1562C129.708 36.1562 129.198 36.0547 128.734 35.8516C128.276 35.6432 127.891 35.3255 127.578 34.8984H127.484C127.547 35.3984 127.578 35.8724 127.578 36.3203V39.8438H126.281V27.4375H127.336L127.516 28.6094H127.578C127.911 28.1406 128.299 27.8021 128.742 27.5938C129.185 27.3854 129.693 27.2812 130.266 27.2812C131.401 27.2812 132.276 27.6693 132.891 28.4453C133.51 29.2214 133.82 30.3099 133.82 31.7109C133.82 33.1172 133.505 34.2109 132.875 34.9922C132.25 35.7682 131.38 36.1562 130.266 36.1562ZM130.078 28.3828C129.203 28.3828 128.57 28.625 128.18 29.1094C127.789 29.5938 127.589 30.3646 127.578 31.4219V31.7109C127.578 32.9141 127.779 33.776 128.18 34.2969C128.581 34.8125 129.224 35.0703 130.109 35.0703C130.849 35.0703 131.427 34.7708 131.844 34.1719C132.266 33.5729 132.477 32.7474 132.477 31.6953C132.477 30.6276 132.266 29.8099 131.844 29.2422C131.427 28.6693 130.839 28.3828 130.078 28.3828ZM141.359 36L141.102 34.7812H141.039C140.612 35.3177 140.185 35.6823 139.758 35.875C139.336 36.0625 138.807 36.1562 138.172 36.1562C137.323 36.1562 136.656 35.9375 136.172 35.5C135.693 35.0625 135.453 34.4401 135.453 33.6328C135.453 31.9036 136.836 30.9974 139.602 30.9141L141.055 30.8672V30.3359C141.055 29.6641 140.909 29.1693 140.617 28.8516C140.331 28.5286 139.87 28.3672 139.234 28.3672C138.521 28.3672 137.714 28.5859 136.812 29.0234L136.414 28.0312C136.836 27.8021 137.297 27.6224 137.797 27.4922C138.302 27.362 138.807 27.2969 139.312 27.2969C140.333 27.2969 141.089 27.5234 141.578 27.9766C142.073 28.4297 142.32 29.1562 142.32 30.1562V36H141.359ZM138.43 35.0859C139.237 35.0859 139.87 34.8646 140.328 34.4219C140.792 33.9792 141.023 33.3594 141.023 32.5625V31.7891L139.727 31.8438C138.695 31.8802 137.951 32.0417 137.492 32.3281C137.039 32.6094 136.812 33.0495 136.812 33.6484C136.812 34.1172 136.953 34.474 137.234 34.7188C137.521 34.9635 137.919 35.0859 138.43 35.0859ZM150.859 36V30.4609C150.859 29.763 150.701 29.2422 150.383 28.8984C150.065 28.5547 149.568 28.3828 148.891 28.3828C147.995 28.3828 147.339 28.625 146.922 29.1094C146.505 29.5938 146.297 30.3932 146.297 31.5078V36H145V27.4375H146.055L146.266 28.6094H146.328C146.594 28.1875 146.966 27.862 147.445 27.6328C147.924 27.3984 148.458 27.2812 149.047 27.2812C150.078 27.2812 150.854 27.5312 151.375 28.0312C151.896 28.526 152.156 29.3203 152.156 30.4141V36H150.859ZM160.656 34.8516H160.586C159.987 35.7214 159.091 36.1562 157.898 36.1562C156.779 36.1562 155.906 35.7734 155.281 35.0078C154.661 34.2422 154.352 33.1536 154.352 31.7422C154.352 30.3307 154.664 29.2344 155.289 28.4531C155.914 27.6719 156.784 27.2812 157.898 27.2812C159.06 27.2812 159.951 27.7031 160.57 28.5469H160.672L160.617 27.9297L160.586 27.3281V23.8438H161.883V36H160.828L160.656 34.8516ZM158.062 35.0703C158.948 35.0703 159.589 34.8307 159.984 34.3516C160.385 33.8672 160.586 33.0885 160.586 32.0156V31.7422C160.586 30.5286 160.383 29.6641 159.977 29.1484C159.576 28.6276 158.932 28.3672 158.047 28.3672C157.286 28.3672 156.703 28.6641 156.297 29.2578C155.896 29.8464 155.695 30.6797 155.695 31.7578C155.695 32.8516 155.896 33.6771 156.297 34.2344C156.698 34.7917 157.286 35.0703 158.062 35.0703ZM168.258 36.1562C166.992 36.1562 165.992 35.7708 165.258 35C164.529 34.2292 164.164 33.1589 164.164 31.7891C164.164 30.4089 164.503 29.3125 165.18 28.5C165.862 27.6875 166.776 27.2812 167.922 27.2812C168.995 27.2812 169.844 27.6354 170.469 28.3438C171.094 29.0469 171.406 29.9766 171.406 31.1328V31.9531H165.508C165.534 32.9583 165.786 33.7214 166.266 34.2422C166.75 34.763 167.43 35.0234 168.305 35.0234C169.227 35.0234 170.138 34.8307 171.039 34.4453V35.6016C170.581 35.7995 170.146 35.9401 169.734 36.0234C169.328 36.112 168.836 36.1562 168.258 36.1562ZM167.906 28.3672C167.219 28.3672 166.669 28.5911 166.258 29.0391C165.852 29.487 165.612 30.1068 165.539 30.8984H170.016C170.016 30.0807 169.833 29.4557 169.469 29.0234C169.104 28.5859 168.583 28.3672 167.906 28.3672ZM179.453 34.8516H179.383C178.784 35.7214 177.888 36.1562 176.695 36.1562C175.576 36.1562 174.703 35.7734 174.078 35.0078C173.458 34.2422 173.148 33.1536 173.148 31.7422C173.148 30.3307 173.461 29.2344 174.086 28.4531C174.711 27.6719 175.581 27.2812 176.695 27.2812C177.857 27.2812 178.747 27.7031 179.367 28.5469H179.469L179.414 27.9297L179.383 27.3281V23.8438H180.68V36H179.625L179.453 34.8516ZM176.859 35.0703C177.745 35.0703 178.385 34.8307 178.781 34.3516C179.182 33.8672 179.383 33.0885 179.383 32.0156V31.7422C179.383 30.5286 179.18 29.6641 178.773 29.1484C178.372 28.6276 177.729 28.3672 176.844 28.3672C176.083 28.3672 175.5 28.6641 175.094 29.2578C174.693 29.8464 174.492 30.6797 174.492 31.7578C174.492 32.8516 174.693 33.6771 175.094 34.2344C175.495 34.7917 176.083 35.0703 176.859 35.0703Z" fill="#858585"/>
<defs>
<filter id="filter0_d" x="0" y="0" width="390" height="220" filterUnits="userSpaceOnUse" color-interpolation-filters="sRGB">
<feFlood flood-opacity="0" result="BackgroundImageFix"/>
<feColorMatrix in="SourceAlpha" type="matrix" values="0 0 0 0 0 0 0 0 0 0 0 0 0 0 0 0 0 0 127 0"/>
<feOffset/>
<feGaussianBlur stdDeviation="5"/>
<feColorMatrix type="matrix" values="0 0 0 0 0 0 0 0 0 0 0 0 0 0 0 0 0 0 0.1 0"/>
<feBlend mode="normal" in2="BackgroundImageFix" result="effect1_dropShadow"/>
<feBlend mode="normal" in="SourceGraphic" in2="effect1_dropShadow" result="shape"/>
</filter>
</defs>
</svg>
