<svg width="370" height="40" viewBox="0 0 370 40" fill="none" xmlns="http://www.w3.org/2000/svg">
<rect x="0.5" y="0.5" width="369" height="39" rx="3.5" fill="white" stroke="#C5C5C5"/>
<path d="M19.0859 26H17.7578V15.7578H14.1406V14.5781H22.7031V15.7578H19.0859V26ZM27.8516 26.1562C26.5859 26.1562 25.5859 25.7708 24.8516 25C24.1224 24.2292 23.7578 23.1589 23.7578 21.7891C23.7578 20.4089 24.0964 19.3125 24.7734 18.5C25.4557 17.6875 26.3698 17.2812 27.5156 17.2812C28.5885 17.2812 29.4375 17.6354 30.0625 18.3438C30.6875 19.0469 31 19.9766 31 21.1328V21.9531H25.1016C25.1276 22.9583 25.3802 23.7214 25.8594 24.2422C26.3438 24.763 27.0234 25.0234 27.8984 25.0234C28.8203 25.0234 29.7318 24.8307 30.6328 24.4453V25.6016C30.1745 25.7995 29.7396 25.9401 29.3281 26.0234C28.9219 26.112 28.4297 26.1562 27.8516 26.1562ZM27.5 18.3672C26.8125 18.3672 26.263 18.5911 25.8516 19.0391C25.4453 19.487 25.2057 20.1068 25.1328 20.8984H29.6094C29.6094 20.0807 29.4271 19.4557 29.0625 19.0234C28.6979 18.5859 28.1771 18.3672 27.5 18.3672ZM35.2812 21.6172L32.3047 17.4375H33.7812L36.0391 20.7188L38.2891 17.4375H39.75L36.7734 21.6172L39.9062 26H38.4375L36.0391 22.5312L33.6172 26H32.1484L35.2812 21.6172ZM44.375 25.0859C44.6042 25.0859 44.8255 25.0703 45.0391 25.0391C45.2526 25.0026 45.4219 24.9661 45.5469 24.9297V25.9219C45.4062 25.9896 45.1979 26.0443 44.9219 26.0859C44.651 26.1328 44.4062 26.1562 44.1875 26.1562C42.5312 26.1562 41.7031 25.2839 41.7031 23.5391V18.4453H40.4766V17.8203L41.7031 17.2812L42.25 15.4531H43V17.4375H45.4844V18.4453H43V23.4844C43 24 43.1224 24.3958 43.3672 24.6719C43.612 24.9479 43.9479 25.0859 44.375 25.0859Z" fill="#C5C5C5"/>
</svg>
