<svg width="369" height="64" viewBox="0 0 369 64" fill="none" xmlns="http://www.w3.org/2000/svg">
<rect x="0.5" y="24.5" width="368" height="39" rx="3.5" fill="white" stroke="#C5C5C5"/>
<path fill-rule="evenodd" clip-rule="evenodd" d="M339 43.5C340.415 46.7193 343.909 49 348 49C352.091 49 355.585 46.7193 357 43.5C355.585 40.2807 352.091 38 348 38C343.909 38 340.415 40.2807 339 43.5ZM343.805 43.5C343.805 41.3987 345.599 39.6933 347.81 39.6933C350.02 39.6933 351.814 41.3987 351.814 43.5C351.814 45.6013 350.02 47.3067 347.81 47.3067C345.599 47.3067 343.805 45.6013 343.805 43.5ZM345.407 43.5C345.407 44.7638 346.48 45.784 347.81 45.784C349.139 45.784 350.212 44.7638 350.212 43.5C350.212 42.2362 349.139 41.216 347.81 41.216C346.48 41.216 345.407 42.2362 345.407 43.5Z" fill="black" fill-opacity="0.7"/>
<mask id="mask0" mask-type="alpha" maskUnits="userSpaceOnUse" x="339" y="38" width="18" height="11">
<path fill-rule="evenodd" clip-rule="evenodd" d="M339 43.5C340.415 46.7193 343.909 49 348 49C352.091 49 355.585 46.7193 357 43.5C355.585 40.2807 352.091 38 348 38C343.909 38 340.415 40.2807 339 43.5ZM343.805 43.5C343.805 41.3987 345.599 39.6933 347.81 39.6933C350.02 39.6933 351.814 41.3987 351.814 43.5C351.814 45.6013 350.02 47.3067 347.81 47.3067C345.599 47.3067 343.805 45.6013 343.805 43.5ZM345.407 43.5C345.407 44.7638 346.48 45.784 347.81 45.784C349.139 45.784 350.212 44.7638 350.212 43.5C350.212 42.2362 349.139 41.216 347.81 41.216C346.48 41.216 345.407 42.2362 345.407 43.5Z" fill="white"/>
</mask>
<g mask="url(#mask0)">
<rect x="336" y="31" width="24" height="24" fill="#CCCCCC"/>
</g>
<path d="M340.646 49.3744L340.293 49.7279L340.646 50.0815L341.308 50.7432L341.662 51.0968L342.015 50.7432L354.743 38.0153L355.097 37.6617L354.743 37.3082L354.081 36.6464L353.728 36.2929L353.374 36.6464L340.646 49.3744Z" fill="#CCCCCC" stroke="white"/>
<path d="M17.84 38.856V49H19.36V38.856H23.168V37.576H14.032V38.856H17.84ZM28.1743 44.072H23.4223C23.4436 43.752 23.5129 43.4533 23.6303 43.176C23.7476 42.888 23.9076 42.6373 24.1103 42.424C24.3129 42.2107 24.5529 42.0453 24.8303 41.928C25.1183 41.8 25.4383 41.736 25.7903 41.736C26.1316 41.736 26.4409 41.8 26.7183 41.928C27.0063 42.0453 27.2516 42.2107 27.4543 42.424C27.6676 42.6267 27.8329 42.872 27.9503 43.16C28.0783 43.448 28.1529 43.752 28.1743 44.072ZM29.4862 46.376H28.1423C28.0249 46.92 27.7796 47.3253 27.4063 47.592C27.0436 47.8587 26.5743 47.992 25.9983 47.992C25.5503 47.992 25.1609 47.9173 24.8303 47.768C24.4996 47.6187 24.2276 47.4213 24.0143 47.176C23.8009 46.92 23.6463 46.632 23.5503 46.312C23.4543 45.9813 23.4116 45.6347 23.4223 45.272H29.6143C29.6356 44.7707 29.5876 44.2427 29.4703 43.688C29.3636 43.1333 29.1609 42.6213 28.8623 42.152C28.5743 41.6827 28.1849 41.2987 27.6943 41C27.2143 40.6907 26.6063 40.536 25.8703 40.536C25.3049 40.536 24.7823 40.6427 24.3023 40.856C23.8329 41.0693 23.4223 41.368 23.0703 41.752C22.7289 42.136 22.4623 42.5893 22.2703 43.112C22.0783 43.6347 21.9823 44.2107 21.9823 44.84C22.0036 45.4693 22.0943 46.0507 22.2543 46.584C22.4249 47.1173 22.6756 47.576 23.0063 47.96C23.3369 48.344 23.7423 48.6427 24.2223 48.856C24.7129 49.0693 25.2889 49.176 25.9503 49.176C26.8889 49.176 27.6676 48.9413 28.2863 48.472C28.9049 48.0027 29.3049 47.304 29.4862 46.376ZM33.248 44.648L30.144 49H31.792L34.096 45.576L36.4 49H38.144L34.944 44.536L37.792 40.728H36.16L34.096 43.624L32.112 40.728H30.368L33.248 44.648ZM41.1933 40.728V38.248H39.8333V40.728H38.4253V41.928H39.8333V47.192C39.8333 47.576 39.8706 47.8853 39.9453 48.12C40.0199 48.3547 40.1319 48.536 40.2812 48.664C40.4413 48.792 40.6439 48.8827 40.8893 48.936C41.1453 48.9787 41.4493 49 41.8013 49H42.8413V47.8H42.2173C42.0039 47.8 41.8279 47.7947 41.6893 47.784C41.5613 47.7627 41.4599 47.7253 41.3853 47.672C41.3106 47.6187 41.2573 47.544 41.2253 47.448C41.2039 47.352 41.1933 47.224 41.1933 47.064V41.928H42.8413V40.728H41.1933Z" fill="#C2CED7"/>
<path d="M3.36 5.124V14H4.69V5.124H8.022V4.004H0.028V5.124H3.36ZM10.1951 5.46V4.004H9.00506V5.46H10.1951ZM9.00506 6.762V14H10.1951V6.762H9.00506ZM13.6906 6.762V4.592H12.5006V6.762H11.2686V7.812H12.5006V12.418C12.5006 12.754 12.5332 13.0247 12.5986 13.23C12.6639 13.4353 12.7619 13.594 12.8926 13.706C13.0326 13.818 13.2099 13.8973 13.4246 13.944C13.6486 13.9813 13.9146 14 14.2226 14H15.1326V12.95H14.5866C14.3999 12.95 14.2459 12.9453 14.1246 12.936C14.0126 12.9173 13.9239 12.8847 13.8586 12.838C13.7932 12.7913 13.7466 12.726 13.7186 12.642C13.6999 12.558 13.6906 12.446 13.6906 12.306V7.812H15.1326V6.762H13.6906ZM16.5246 4.004V14H17.7146V4.004H16.5246ZM24.5841 9.688H20.4261C20.4448 9.408 20.5054 9.14667 20.6081 8.904C20.7108 8.652 20.8508 8.43267 21.0281 8.246C21.2054 8.05933 21.4154 7.91467 21.6581 7.812C21.9101 7.7 22.1901 7.644 22.4981 7.644C22.7968 7.644 23.0674 7.7 23.3101 7.812C23.5621 7.91467 23.7768 8.05933 23.9541 8.246C24.1408 8.42333 24.2854 8.638 24.3881 8.89C24.5001 9.142 24.5654 9.408 24.5841 9.688ZM25.7321 11.704H24.5561C24.4534 12.18 24.2388 12.5347 23.9121 12.768C23.5948 13.0013 23.1841 13.118 22.6801 13.118C22.2881 13.118 21.9474 13.0527 21.6581 12.922C21.3688 12.7913 21.1308 12.6187 20.9441 12.404C20.7574 12.18 20.6221 11.928 20.5381 11.648C20.4541 11.3587 20.4168 11.0553 20.4261 10.738H25.8441C25.8628 10.2993 25.8208 9.83733 25.7181 9.352C25.6248 8.86667 25.4474 8.41867 25.1861 8.008C24.9341 7.59733 24.5934 7.26133 24.1641 7C23.7441 6.72933 23.2121 6.594 22.5681 6.594C22.0734 6.594 21.6161 6.68733 21.1961 6.874C20.7854 7.06067 20.4261 7.322 20.1181 7.658C19.8194 7.994 19.5861 8.39067 19.4181 8.848C19.2501 9.30533 19.1661 9.80933 19.1661 10.36C19.1848 10.9107 19.2641 11.4193 19.4041 11.886C19.5534 12.3527 19.7728 12.754 20.0621 13.09C20.3514 13.426 20.7061 13.6873 21.1261 13.874C21.5554 14.0607 22.0594 14.154 22.6381 14.154C23.4594 14.154 24.1408 13.9487 24.6821 13.538C25.2234 13.1273 25.5734 12.516 25.7321 11.704Z" fill="#858585"/>
</svg>
