<svg width="271" height="20" viewBox="0 0 271 20" fill="none" xmlns="http://www.w3.org/2000/svg">
<path fill-rule="evenodd" clip-rule="evenodd" d="M89 0H163V20H89V0Z" fill="#F46600"/>
<path d="M105.15 14H103.642V9.86914L103.656 9.19043L103.681 8.44824C103.43 8.69889 103.256 8.86328 103.158 8.94141L102.338 9.60059L101.61 8.69238L103.91 6.86133H105.15V14ZM112.123 14H107.133V12.9502L108.925 11.1387C109.455 10.5951 109.802 10.2191 109.965 10.0107C110.128 9.79915 110.245 9.60384 110.316 9.4248C110.388 9.24577 110.424 9.06022 110.424 8.86816C110.424 8.58171 110.344 8.36849 110.185 8.22852C110.028 8.08854 109.818 8.01855 109.555 8.01855C109.278 8.01855 109.009 8.08203 108.749 8.20898C108.489 8.33594 108.217 8.5166 107.934 8.75098L107.113 7.7793C107.465 7.47982 107.756 7.26823 107.987 7.14453C108.218 7.02083 108.471 6.92643 108.744 6.86133C109.018 6.79297 109.324 6.75879 109.662 6.75879C110.108 6.75879 110.502 6.84017 110.844 7.00293C111.186 7.16569 111.451 7.39355 111.64 7.68652C111.828 7.97949 111.923 8.31478 111.923 8.69238C111.923 9.02116 111.864 9.3304 111.747 9.62012C111.633 9.90658 111.454 10.2012 111.21 10.5039C110.969 10.8066 110.543 11.238 109.931 11.7979L109.013 12.6621V12.7305H112.123V14ZM118.695 14H117.182V8.12109H115.243V6.86133H120.634V8.12109H118.695V14ZM122.802 11.2607C122.802 11.8011 122.89 12.2096 123.065 12.4863C123.244 12.763 123.534 12.9014 123.935 12.9014C124.332 12.9014 124.617 12.7646 124.789 12.4912C124.965 12.2145 125.053 11.8044 125.053 11.2607C125.053 10.7204 124.965 10.3151 124.789 10.0449C124.613 9.77474 124.325 9.63965 123.925 9.63965C123.528 9.63965 123.241 9.77474 123.065 10.0449C122.89 10.3118 122.802 10.7171 122.802 11.2607ZM126.576 11.2607C126.576 12.1494 126.342 12.8444 125.873 13.3457C125.404 13.847 124.752 14.0977 123.915 14.0977C123.391 14.0977 122.929 13.9837 122.528 13.7559C122.128 13.5247 121.82 13.1943 121.605 12.7646C121.391 12.335 121.283 11.8337 121.283 11.2607C121.283 10.3688 121.516 9.67546 121.981 9.18066C122.447 8.68587 123.101 8.43848 123.944 8.43848C124.468 8.43848 124.931 8.55241 125.331 8.78027C125.731 9.00814 126.039 9.33529 126.254 9.76172C126.469 10.1882 126.576 10.6878 126.576 11.2607ZM127.323 11.9297V10.709H129.945V11.9297H127.323ZM137.069 10.3623C137.069 11.5374 136.734 12.4375 136.063 13.0625C135.396 13.6875 134.431 14 133.168 14H131.146V6.86133H133.388C134.553 6.86133 135.458 7.16895 136.103 7.78418C136.747 8.39941 137.069 9.25879 137.069 10.3623ZM135.497 10.4014C135.497 8.86816 134.82 8.10156 133.466 8.10156H132.66V12.75H133.31C134.768 12.75 135.497 11.9671 135.497 10.4014ZM139.618 11.2607C139.618 11.8011 139.706 12.2096 139.882 12.4863C140.061 12.763 140.351 12.9014 140.751 12.9014C141.148 12.9014 141.433 12.7646 141.605 12.4912C141.781 12.2145 141.869 11.8044 141.869 11.2607C141.869 10.7204 141.781 10.3151 141.605 10.0449C141.43 9.77474 141.142 9.63965 140.741 9.63965C140.344 9.63965 140.058 9.77474 139.882 10.0449C139.706 10.3118 139.618 10.7171 139.618 11.2607ZM143.393 11.2607C143.393 12.1494 143.158 12.8444 142.689 13.3457C142.221 13.847 141.568 14.0977 140.731 14.0977C140.207 14.0977 139.745 13.9837 139.345 13.7559C138.944 13.5247 138.637 13.1943 138.422 12.7646C138.207 12.335 138.1 11.8337 138.1 11.2607C138.1 10.3688 138.332 9.67546 138.798 9.18066C139.263 8.68587 139.918 8.43848 140.761 8.43848C141.285 8.43848 141.747 8.55241 142.147 8.78027C142.548 9.00814 142.855 9.33529 143.07 9.76172C143.285 10.1882 143.393 10.6878 143.393 11.2607ZM145.824 6.86133L145.893 6.96875C145.73 7.61003 145.443 8.38965 145.033 9.30762H143.964C144.188 8.34408 144.351 7.52865 144.452 6.86133H145.824ZM150.6 12.3789C150.6 12.9388 150.404 13.3652 150.014 13.6582C149.626 13.9512 149.045 14.0977 148.271 14.0977C147.873 14.0977 147.535 14.07 147.255 14.0146C146.975 13.9626 146.713 13.8844 146.469 13.7803V12.5498C146.745 12.68 147.056 12.7891 147.401 12.877C147.75 12.9648 148.056 13.0088 148.319 13.0088C148.86 13.0088 149.13 12.8525 149.13 12.54C149.13 12.4229 149.094 12.3285 149.022 12.2568C148.951 12.182 148.827 12.099 148.651 12.0078C148.476 11.9134 148.241 11.8044 147.948 11.6807C147.528 11.5049 147.219 11.3421 147.021 11.1924C146.825 11.0426 146.682 10.8717 146.591 10.6797C146.503 10.4844 146.459 10.2451 146.459 9.96191C146.459 9.47689 146.646 9.10254 147.021 8.83887C147.398 8.57194 147.932 8.43848 148.622 8.43848C149.28 8.43848 149.919 8.58171 150.541 8.86816L150.092 9.94238C149.818 9.8252 149.563 9.72917 149.325 9.6543C149.088 9.57943 148.845 9.54199 148.598 9.54199C148.158 9.54199 147.938 9.66081 147.938 9.89844C147.938 10.0319 148.008 10.1475 148.148 10.2451C148.292 10.3428 148.603 10.4876 149.081 10.6797C149.507 10.8522 149.82 11.0133 150.019 11.1631C150.217 11.3128 150.364 11.4854 150.458 11.6807C150.552 11.876 150.6 12.1087 150.6 12.3789Z" fill="white"/>
<rect width="74" height="20" fill="#ED9E00"/>
<path d="M16.1504 14H14.6416V9.86914L14.6562 9.19043L14.6807 8.44824C14.43 8.69889 14.2559 8.86328 14.1582 8.94141L13.3379 9.60059L12.6104 8.69238L14.9102 6.86133H16.1504V14ZM23.123 14H18.1328V12.9502L19.9248 11.1387C20.4554 10.5951 20.8021 10.2191 20.9648 10.0107C21.1276 9.79915 21.2448 9.60384 21.3164 9.4248C21.388 9.24577 21.4238 9.06022 21.4238 8.86816C21.4238 8.58171 21.3441 8.36849 21.1846 8.22852C21.0283 8.08854 20.8184 8.01855 20.5547 8.01855C20.278 8.01855 20.0094 8.08203 19.749 8.20898C19.4886 8.33594 19.2168 8.5166 18.9336 8.75098L18.1133 7.7793C18.4648 7.47982 18.7562 7.26823 18.9873 7.14453C19.2184 7.02083 19.4707 6.92643 19.7441 6.86133C20.0176 6.79297 20.3236 6.75879 20.6621 6.75879C21.1081 6.75879 21.502 6.84017 21.8438 7.00293C22.1855 7.16569 22.4508 7.39355 22.6396 7.68652C22.8285 7.97949 22.9229 8.31478 22.9229 8.69238C22.9229 9.02116 22.8643 9.3304 22.7471 9.62012C22.6331 9.90658 22.4541 10.2012 22.21 10.5039C21.9691 10.8066 21.5426 11.238 20.9307 11.7979L20.0127 12.6621V12.7305H23.123V14ZM29.6953 14H28.1816V8.12109H26.2432V6.86133H31.6338V8.12109H29.6953V14ZM33.8018 11.2607C33.8018 11.8011 33.8896 12.2096 34.0654 12.4863C34.2445 12.763 34.5342 12.9014 34.9346 12.9014C35.3317 12.9014 35.6165 12.7646 35.7891 12.4912C35.9648 12.2145 36.0527 11.8044 36.0527 11.2607C36.0527 10.7204 35.9648 10.3151 35.7891 10.0449C35.6133 9.77474 35.3252 9.63965 34.9248 9.63965C34.5277 9.63965 34.2412 9.77474 34.0654 10.0449C33.8896 10.3118 33.8018 10.7171 33.8018 11.2607ZM37.5762 11.2607C37.5762 12.1494 37.3418 12.8444 36.873 13.3457C36.4043 13.847 35.7516 14.0977 34.915 14.0977C34.391 14.0977 33.9287 13.9837 33.5283 13.7559C33.1279 13.5247 32.8203 13.1943 32.6055 12.7646C32.3906 12.335 32.2832 11.8337 32.2832 11.2607C32.2832 10.3688 32.516 9.67546 32.9814 9.18066C33.4469 8.68587 34.1012 8.43848 34.9443 8.43848C35.4684 8.43848 35.9307 8.55241 36.3311 8.78027C36.7314 9.00814 37.0391 9.33529 37.2539 9.76172C37.4688 10.1882 37.5762 10.6878 37.5762 11.2607ZM38.3232 11.9297V10.709H40.9453V11.9297H38.3232ZM48.0693 10.3623C48.0693 11.5374 47.734 12.4375 47.0635 13.0625C46.3962 13.6875 45.431 14 44.168 14H42.1465V6.86133H44.3877C45.5531 6.86133 46.458 7.16895 47.1025 7.78418C47.7471 8.39941 48.0693 9.25879 48.0693 10.3623ZM46.4971 10.4014C46.4971 8.86816 45.82 8.10156 44.4658 8.10156H43.6602V12.75H44.3096C45.7679 12.75 46.4971 11.9671 46.4971 10.4014ZM50.6182 11.2607C50.6182 11.8011 50.7061 12.2096 50.8818 12.4863C51.0609 12.763 51.3506 12.9014 51.751 12.9014C52.1481 12.9014 52.4329 12.7646 52.6055 12.4912C52.7812 12.2145 52.8691 11.8044 52.8691 11.2607C52.8691 10.7204 52.7812 10.3151 52.6055 10.0449C52.4297 9.77474 52.1416 9.63965 51.7412 9.63965C51.3441 9.63965 51.0576 9.77474 50.8818 10.0449C50.7061 10.3118 50.6182 10.7171 50.6182 11.2607ZM54.3926 11.2607C54.3926 12.1494 54.1582 12.8444 53.6895 13.3457C53.2207 13.847 52.568 14.0977 51.7314 14.0977C51.2074 14.0977 50.7451 13.9837 50.3447 13.7559C49.9443 13.5247 49.6367 13.1943 49.4219 12.7646C49.207 12.335 49.0996 11.8337 49.0996 11.2607C49.0996 10.3688 49.3324 9.67546 49.7979 9.18066C50.2633 8.68587 50.9176 8.43848 51.7607 8.43848C52.2848 8.43848 52.7471 8.55241 53.1475 8.78027C53.5479 9.00814 53.8555 9.33529 54.0703 9.76172C54.2852 10.1882 54.3926 10.6878 54.3926 11.2607ZM56.8242 6.86133L56.8926 6.96875C56.7298 7.61003 56.4434 8.38965 56.0332 9.30762H54.9639C55.1885 8.34408 55.3512 7.52865 55.4521 6.86133H56.8242ZM61.5996 12.3789C61.5996 12.9388 61.4043 13.3652 61.0137 13.6582C60.6263 13.9512 60.0452 14.0977 59.2705 14.0977C58.8734 14.0977 58.5348 14.07 58.2549 14.0146C57.9749 13.9626 57.7129 13.8844 57.4688 13.7803V12.5498C57.7454 12.68 58.0563 12.7891 58.4014 12.877C58.7497 12.9648 59.0557 13.0088 59.3193 13.0088C59.8597 13.0088 60.1299 12.8525 60.1299 12.54C60.1299 12.4229 60.0941 12.3285 60.0225 12.2568C59.9508 12.182 59.8271 12.099 59.6514 12.0078C59.4756 11.9134 59.2412 11.8044 58.9482 11.6807C58.5283 11.5049 58.2191 11.3421 58.0205 11.1924C57.8252 11.0426 57.682 10.8717 57.5908 10.6797C57.5029 10.4844 57.459 10.2451 57.459 9.96191C57.459 9.47689 57.6462 9.10254 58.0205 8.83887C58.3981 8.57194 58.932 8.43848 59.6221 8.43848C60.2796 8.43848 60.9193 8.58171 61.541 8.86816L61.0918 9.94238C60.8184 9.8252 60.5628 9.72917 60.3252 9.6543C60.0876 9.57943 59.8451 9.54199 59.5977 9.54199C59.1582 9.54199 58.9385 9.66081 58.9385 9.89844C58.9385 10.0319 59.0085 10.1475 59.1484 10.2451C59.2917 10.3428 59.6025 10.4876 60.0811 10.6797C60.5075 10.8522 60.82 11.0133 61.0186 11.1631C61.2171 11.3128 61.3636 11.4854 61.458 11.6807C61.5524 11.876 61.5996 12.1087 61.5996 12.3789Z" fill="white"/>
<rect x="174" width="97" height="20" fill="#00A7B4"/>
<path d="M191.255 12.0176C191.255 12.6621 191.022 13.1699 190.557 13.541C190.094 13.9121 189.45 14.0977 188.623 14.0977C187.861 14.0977 187.188 13.9544 186.602 13.668V12.2617C187.083 12.4766 187.49 12.6279 187.822 12.7158C188.158 12.8037 188.464 12.8477 188.74 12.8477C189.072 12.8477 189.326 12.7842 189.502 12.6572C189.681 12.5303 189.771 12.3415 189.771 12.0908C189.771 11.9508 189.731 11.8271 189.653 11.7197C189.575 11.609 189.46 11.5033 189.307 11.4023C189.157 11.3014 188.849 11.1403 188.384 10.9189C187.948 10.7139 187.62 10.5169 187.402 10.3281C187.184 10.1393 187.01 9.9196 186.88 9.66895C186.75 9.41829 186.685 9.12533 186.685 8.79004C186.685 8.15853 186.898 7.66211 187.324 7.30078C187.754 6.93945 188.346 6.75879 189.102 6.75879C189.473 6.75879 189.826 6.80273 190.161 6.89062C190.5 6.97852 190.853 7.10221 191.221 7.26172L190.732 8.43848C190.352 8.28223 190.036 8.17318 189.785 8.11133C189.538 8.04948 189.294 8.01855 189.053 8.01855C188.766 8.01855 188.547 8.08529 188.394 8.21875C188.241 8.35221 188.164 8.52637 188.164 8.74121C188.164 8.87467 188.195 8.99186 188.257 9.09277C188.319 9.19043 188.416 9.28646 188.55 9.38086C188.687 9.47201 189.007 9.63802 189.512 9.87891C190.179 10.1979 190.636 10.5186 190.884 10.8408C191.131 11.1598 191.255 11.5521 191.255 12.0176ZM192.368 7.12988C192.368 6.64486 192.638 6.40234 193.179 6.40234C193.719 6.40234 193.989 6.64486 193.989 7.12988C193.989 7.361 193.921 7.54167 193.784 7.67188C193.651 7.79883 193.449 7.8623 193.179 7.8623C192.638 7.8623 192.368 7.61816 192.368 7.12988ZM193.921 14H192.432V8.54102H193.921V14ZM200.239 8.54102V9.29785L199.385 9.51758C199.541 9.76172 199.619 10.0352 199.619 10.3379C199.619 10.9238 199.414 11.3812 199.004 11.71C198.597 12.0355 198.031 12.1982 197.305 12.1982L197.036 12.1836L196.816 12.1592C196.663 12.2764 196.587 12.4066 196.587 12.5498C196.587 12.7646 196.86 12.8721 197.407 12.8721H198.335C198.934 12.8721 199.39 13.0007 199.702 13.2578C200.018 13.515 200.176 13.8926 200.176 14.3906C200.176 15.0286 199.909 15.5234 199.375 15.875C198.844 16.2266 198.081 16.4023 197.085 16.4023C196.323 16.4023 195.741 16.2689 195.337 16.002C194.937 15.7383 194.736 15.3672 194.736 14.8887C194.736 14.5599 194.839 14.2848 195.044 14.0635C195.249 13.8421 195.55 13.6842 195.947 13.5898C195.794 13.5247 195.661 13.4189 195.547 13.2725C195.433 13.1227 195.376 12.9648 195.376 12.7988C195.376 12.5905 195.436 12.418 195.557 12.2812C195.677 12.1413 195.851 12.0046 196.079 11.8711C195.793 11.7474 195.565 11.5488 195.396 11.2754C195.229 11.002 195.146 10.6797 195.146 10.3086C195.146 9.71289 195.34 9.25228 195.728 8.92676C196.115 8.60124 196.668 8.43848 197.388 8.43848C197.541 8.43848 197.721 8.45312 197.93 8.48242C198.141 8.50846 198.276 8.52799 198.335 8.54102H200.239ZM196.025 14.7715C196.025 14.9766 196.123 15.1377 196.318 15.2549C196.517 15.3721 196.794 15.4307 197.148 15.4307C197.682 15.4307 198.101 15.3574 198.403 15.2109C198.706 15.0645 198.857 14.8643 198.857 14.6104C198.857 14.4053 198.768 14.2637 198.589 14.1855C198.41 14.1074 198.133 14.0684 197.759 14.0684H196.987C196.714 14.0684 196.484 14.1318 196.299 14.2588C196.117 14.389 196.025 14.5599 196.025 14.7715ZM196.567 10.3281C196.567 10.6243 196.634 10.8587 196.768 11.0312C196.904 11.2038 197.111 11.29 197.388 11.29C197.668 11.29 197.873 11.2038 198.003 11.0312C198.133 10.8587 198.198 10.6243 198.198 10.3281C198.198 9.67057 197.928 9.3418 197.388 9.3418C196.841 9.3418 196.567 9.67057 196.567 10.3281ZM206.182 14H204.692V10.8115C204.692 10.4176 204.622 10.123 204.482 9.92773C204.342 9.72917 204.119 9.62988 203.813 9.62988C203.397 9.62988 203.096 9.76986 202.91 10.0498C202.725 10.3265 202.632 10.7871 202.632 11.4316V14H201.143V8.54102H202.28L202.48 9.23926H202.563C202.729 8.97559 202.957 8.77702 203.247 8.64355C203.54 8.50684 203.872 8.43848 204.243 8.43848C204.878 8.43848 205.36 8.611 205.688 8.95605C206.017 9.29785 206.182 9.79264 206.182 10.4404V14ZM207.651 7.12988C207.651 6.64486 207.922 6.40234 208.462 6.40234C209.002 6.40234 209.272 6.64486 209.272 7.12988C209.272 7.361 209.204 7.54167 209.067 7.67188C208.934 7.79883 208.732 7.8623 208.462 7.8623C207.922 7.8623 207.651 7.61816 207.651 7.12988ZM209.204 14H207.715V8.54102H209.204V14ZM215.811 14H214.321V10.8115C214.321 10.4176 214.251 10.123 214.111 9.92773C213.971 9.72917 213.748 9.62988 213.442 9.62988C213.026 9.62988 212.725 9.76986 212.539 10.0498C212.354 10.3265 212.261 10.7871 212.261 11.4316V14H210.771V8.54102H211.909L212.109 9.23926H212.192C212.358 8.97559 212.586 8.77702 212.876 8.64355C213.169 8.50684 213.501 8.43848 213.872 8.43848C214.507 8.43848 214.989 8.611 215.317 8.95605C215.646 9.29785 215.811 9.79264 215.811 10.4404V14ZM222.095 8.54102V9.29785L221.24 9.51758C221.396 9.76172 221.475 10.0352 221.475 10.3379C221.475 10.9238 221.27 11.3812 220.859 11.71C220.452 12.0355 219.886 12.1982 219.16 12.1982L218.892 12.1836L218.672 12.1592C218.519 12.2764 218.442 12.4066 218.442 12.5498C218.442 12.7646 218.716 12.8721 219.263 12.8721H220.19C220.789 12.8721 221.245 13.0007 221.558 13.2578C221.873 13.515 222.031 13.8926 222.031 14.3906C222.031 15.0286 221.764 15.5234 221.23 15.875C220.7 16.2266 219.937 16.4023 218.94 16.4023C218.179 16.4023 217.596 16.2689 217.192 16.002C216.792 15.7383 216.592 15.3672 216.592 14.8887C216.592 14.5599 216.694 14.2848 216.899 14.0635C217.104 13.8421 217.406 13.6842 217.803 13.5898C217.65 13.5247 217.516 13.4189 217.402 13.2725C217.288 13.1227 217.231 12.9648 217.231 12.7988C217.231 12.5905 217.292 12.418 217.412 12.2812C217.533 12.1413 217.707 12.0046 217.935 11.8711C217.648 11.7474 217.42 11.5488 217.251 11.2754C217.085 11.002 217.002 10.6797 217.002 10.3086C217.002 9.71289 217.196 9.25228 217.583 8.92676C217.97 8.60124 218.524 8.43848 219.243 8.43848C219.396 8.43848 219.577 8.45312 219.785 8.48242C219.997 8.50846 220.132 8.52799 220.19 8.54102H222.095ZM217.881 14.7715C217.881 14.9766 217.979 15.1377 218.174 15.2549C218.372 15.3721 218.649 15.4307 219.004 15.4307C219.538 15.4307 219.956 15.3574 220.259 15.2109C220.562 15.0645 220.713 14.8643 220.713 14.6104C220.713 14.4053 220.623 14.2637 220.444 14.1855C220.265 14.1074 219.989 14.0684 219.614 14.0684H218.843C218.569 14.0684 218.34 14.1318 218.154 14.2588C217.972 14.389 217.881 14.5599 217.881 14.7715ZM218.423 10.3281C218.423 10.6243 218.49 10.8587 218.623 11.0312C218.76 11.2038 218.966 11.29 219.243 11.29C219.523 11.29 219.728 11.2038 219.858 11.0312C219.989 10.8587 220.054 10.6243 220.054 10.3281C220.054 9.67057 219.784 9.3418 219.243 9.3418C218.696 9.3418 218.423 9.67057 218.423 10.3281ZM228.735 14L227.017 8.39941H226.973C227.035 9.53874 227.065 10.2988 227.065 10.6797V14H225.713V6.86133H227.773L229.463 12.3203H229.492L231.284 6.86133H233.345V14H231.934V10.6211C231.934 10.4616 231.935 10.2777 231.938 10.0693C231.945 9.861 231.968 9.30762 232.007 8.40918H231.963L230.122 14H228.735ZM238.496 14L238.208 13.2578H238.169C237.918 13.5736 237.66 13.7933 237.393 13.917C237.129 14.0374 236.784 14.0977 236.357 14.0977C235.833 14.0977 235.42 13.9479 235.117 13.6484C234.818 13.349 234.668 12.9225 234.668 12.3691C234.668 11.7897 234.87 11.3633 235.273 11.0898C235.68 10.8132 236.292 10.6602 237.109 10.6309L238.057 10.6016V10.3623C238.057 9.80892 237.773 9.53223 237.207 9.53223C236.771 9.53223 236.258 9.66406 235.669 9.92773L235.176 8.92188C235.804 8.5931 236.501 8.42871 237.266 8.42871C237.998 8.42871 238.56 8.58822 238.95 8.90723C239.341 9.22624 239.536 9.71126 239.536 10.3623V14H238.496ZM238.057 11.4707L237.48 11.4902C237.048 11.5033 236.725 11.5814 236.514 11.7246C236.302 11.8678 236.196 12.0859 236.196 12.3789C236.196 12.7988 236.437 13.0088 236.919 13.0088C237.264 13.0088 237.539 12.9095 237.744 12.7109C237.952 12.5124 238.057 12.2487 238.057 11.9199V11.4707ZM244.121 8.43848C244.323 8.43848 244.491 8.45312 244.624 8.48242L244.512 9.87891C244.391 9.84635 244.245 9.83008 244.072 9.83008C243.597 9.83008 243.226 9.95215 242.959 10.1963C242.695 10.4404 242.563 10.7822 242.563 11.2217V14H241.074V8.54102H242.202L242.422 9.45898H242.495C242.664 9.15299 242.892 8.90723 243.179 8.72168C243.468 8.53288 243.783 8.43848 244.121 8.43848ZM252.544 8.45801C252.544 8.90397 252.409 9.2832 252.139 9.5957C251.868 9.9082 251.489 10.123 251.001 10.2402V10.2695C251.577 10.3411 252.013 10.5169 252.31 10.7969C252.606 11.0736 252.754 11.4479 252.754 11.9199C252.754 12.6068 252.505 13.1423 252.007 13.5264C251.509 13.9072 250.798 14.0977 249.873 14.0977C249.098 14.0977 248.411 13.9691 247.812 13.7119V12.4277C248.089 12.5677 248.394 12.6816 248.726 12.7695C249.058 12.8574 249.386 12.9014 249.712 12.9014C250.21 12.9014 250.578 12.8167 250.815 12.6475C251.053 12.4782 251.172 12.2064 251.172 11.832C251.172 11.4967 251.035 11.2591 250.762 11.1191C250.488 10.9792 250.052 10.9092 249.453 10.9092H248.911V9.75195H249.463C250.016 9.75195 250.42 9.68034 250.674 9.53711C250.931 9.39062 251.06 9.1416 251.06 8.79004C251.06 8.24967 250.721 7.97949 250.044 7.97949C249.81 7.97949 249.57 8.01855 249.326 8.09668C249.085 8.1748 248.817 8.3099 248.521 8.50195L247.822 7.46191C248.473 6.99316 249.25 6.75879 250.151 6.75879C250.89 6.75879 251.473 6.90853 251.899 7.20801C252.329 7.50749 252.544 7.92415 252.544 8.45801ZM258.496 10.4307C258.496 11.6774 258.291 12.6003 257.881 13.1992C257.474 13.7982 256.846 14.0977 255.996 14.0977C255.173 14.0977 254.551 13.7884 254.131 13.1699C253.714 12.5514 253.506 11.6383 253.506 10.4307C253.506 9.1709 253.709 8.24316 254.116 7.64746C254.523 7.0485 255.15 6.74902 255.996 6.74902C256.82 6.74902 257.441 7.06152 257.861 7.68652C258.285 8.31152 258.496 9.22624 258.496 10.4307ZM255.005 10.4307C255.005 11.3063 255.08 11.9346 255.229 12.3154C255.382 12.693 255.638 12.8818 255.996 12.8818C256.348 12.8818 256.602 12.6898 256.758 12.3057C256.914 11.9215 256.992 11.2965 256.992 10.4307C256.992 9.55501 256.912 8.92676 256.753 8.5459C256.597 8.16178 256.344 7.96973 255.996 7.96973C255.641 7.96973 255.387 8.16178 255.234 8.5459C255.081 8.92676 255.005 9.55501 255.005 10.4307Z" fill="white"/>
</svg>
