<svg width="580" height="520" viewBox="0 0 580 520" fill="none" xmlns="http://www.w3.org/2000/svg">
<g filter="url(#filter0_d)">
<rect x="10" y="10" width="560" height="500" rx="6" fill="white"/>
<rect x="10.5" y="10.5" width="559" height="499" rx="5.5" stroke="#C5C5C5"/>
</g>
<rect x="10" y="58" width="560" height="0.5" fill="#C2CED7"/>
<path d="M30.6465 41H28.5459V29.9521H24.7666V28.1504H34.4258V29.9521H30.6465V41ZM38.249 41H36.1836V31.2793H38.249V41ZM36.0605 28.7041C36.0605 28.335 36.1602 28.0508 36.3594 27.8516C36.5645 27.6523 36.8545 27.5527 37.2295 27.5527C37.5928 27.5527 37.874 27.6523 38.0732 27.8516C38.2783 28.0508 38.3809 28.335 38.3809 28.7041C38.3809 29.0557 38.2783 29.334 38.0732 29.5391C37.874 29.7383 37.5928 29.8379 37.2295 29.8379C36.8545 29.8379 36.5645 29.7383 36.3594 29.5391C36.1602 29.334 36.0605 29.0557 36.0605 28.7041ZM44.832 39.5059C45.3359 39.5059 45.8398 39.4268 46.3438 39.2686V40.8242C46.1152 40.9238 45.8193 41.0059 45.4561 41.0703C45.0986 41.1406 44.7266 41.1758 44.3398 41.1758C42.3828 41.1758 41.4043 40.1445 41.4043 38.082V32.8438H40.0771V31.9297L41.501 31.1738L42.2041 29.1172H43.4785V31.2793H46.2471V32.8438H43.4785V38.0469C43.4785 38.5449 43.6016 38.9141 43.8477 39.1543C44.0996 39.3887 44.4277 39.5059 44.832 39.5059ZM50.3604 41H48.2949V27.3242H50.3604V41ZM57.5674 41.1758C56.0557 41.1758 54.8721 40.7363 54.0166 39.8574C53.167 38.9727 52.7422 37.7568 52.7422 36.21C52.7422 34.6221 53.1377 33.374 53.9287 32.4658C54.7197 31.5576 55.8066 31.1035 57.1895 31.1035C58.4727 31.1035 59.4863 31.4932 60.2305 32.2725C60.9746 33.0518 61.3467 34.124 61.3467 35.4893V36.6055H54.8691C54.8984 37.5488 55.1533 38.2754 55.6338 38.7852C56.1143 39.2891 56.791 39.541 57.6641 39.541C58.2383 39.541 58.7715 39.4883 59.2637 39.3828C59.7617 39.2715 60.2949 39.0898 60.8633 38.8379V40.5166C60.3594 40.7568 59.8496 40.9268 59.334 41.0264C58.8184 41.126 58.2295 41.1758 57.5674 41.1758ZM57.1895 32.668C56.5332 32.668 56.0059 32.876 55.6074 33.292C55.2148 33.708 54.9805 34.3145 54.9043 35.1113H59.3164C59.3047 34.3086 59.1113 33.7021 58.7363 33.292C58.3613 32.876 57.8457 32.668 57.1895 32.668Z" fill="#222222"/>
<path fill-rule="evenodd" clip-rule="evenodd" d="M554.707 26.707L553.292 25.293L546 32.586L538.707 25.293L537.292 26.707L544.585 34L537.292 41.293L538.707 42.707L546 35.414L553.292 42.707L554.707 41.293L547.414 34L554.707 26.707Z" fill="#C2CED7"/>
<defs>
<filter id="filter0_d" x="0" y="0" width="580" height="520" filterUnits="userSpaceOnUse" color-interpolation-filters="sRGB">
<feFlood flood-opacity="0" result="BackgroundImageFix"/>
<feColorMatrix in="SourceAlpha" type="matrix" values="0 0 0 0 0 0 0 0 0 0 0 0 0 0 0 0 0 0 127 0"/>
<feOffset/>
<feGaussianBlur stdDeviation="5"/>
<feColorMatrix type="matrix" values="0 0 0 0 0 0 0 0 0 0 0 0 0 0 0 0 0 0 0.1 0"/>
<feBlend mode="normal" in2="BackgroundImageFix" result="effect1_dropShadow"/>
<feBlend mode="normal" in="SourceGraphic" in2="effect1_dropShadow" result="shape"/>
</filter>
</defs>
</svg>
