<svg width="960" height="671" viewBox="0 0 960 671" fill="none" xmlns="http://www.w3.org/2000/svg">
<g filter="url(#filter0_d)">
<rect x="10" y="10" width="940" height="651" rx="6" fill="white"/>
<rect x="10.5" y="10.5" width="939" height="650" rx="5.5" stroke="#C5C5C5"/>
</g>
<rect x="10" y="58" width="940" height="0.5" fill="#C2CED7"/>
<path d="M33.0649 41H30.9644V29.9521H27.1851V28.1504H36.8442V29.9521H33.0649V41ZM40.6675 41H38.6021V31.2793H40.6675V41ZM38.479 28.7041C38.479 28.335 38.5786 28.0508 38.7778 27.8516C38.9829 27.6523 39.2729 27.5527 39.6479 27.5527C40.0112 27.5527 40.2925 27.6523 40.4917 27.8516C40.6968 28.0508 40.7993 28.335 40.7993 28.7041C40.7993 29.0557 40.6968 29.334 40.4917 29.5391C40.2925 29.7383 40.0112 29.8379 39.6479 29.8379C39.2729 29.8379 38.9829 29.7383 38.7778 29.5391C38.5786 29.334 38.479 29.0557 38.479 28.7041ZM47.2505 39.5059C47.7544 39.5059 48.2583 39.4268 48.7622 39.2686V40.8242C48.5337 40.9238 48.2378 41.0059 47.8745 41.0703C47.5171 41.1406 47.145 41.1758 46.7583 41.1758C44.8013 41.1758 43.8228 40.1445 43.8228 38.082V32.8438H42.4956V31.9297L43.9194 31.1738L44.6226 29.1172H45.897V31.2793H48.6655V32.8438H45.897V38.0469C45.897 38.5449 46.02 38.9141 46.2661 39.1543C46.5181 39.3887 46.8462 39.5059 47.2505 39.5059ZM52.7788 41H50.7134V27.3242H52.7788V41ZM59.9858 41.1758C58.4741 41.1758 57.2905 40.7363 56.4351 39.8574C55.5854 38.9727 55.1606 37.7568 55.1606 36.21C55.1606 34.6221 55.5562 33.374 56.3472 32.4658C57.1382 31.5576 58.2251 31.1035 59.6079 31.1035C60.8911 31.1035 61.9048 31.4932 62.6489 32.2725C63.3931 33.0518 63.7651 34.124 63.7651 35.4893V36.6055H57.2876C57.3169 37.5488 57.5718 38.2754 58.0522 38.7852C58.5327 39.2891 59.2095 39.541 60.0825 39.541C60.6567 39.541 61.1899 39.4883 61.6821 39.3828C62.1802 39.2715 62.7134 39.0898 63.2817 38.8379V40.5166C62.7778 40.7568 62.2681 40.9268 61.7524 41.0264C61.2368 41.126 60.6479 41.1758 59.9858 41.1758ZM59.6079 32.668C58.9517 32.668 58.4243 32.876 58.0259 33.292C57.6333 33.708 57.3989 34.3145 57.3228 35.1113H61.7349C61.7231 34.3086 61.5298 33.7021 61.1548 33.292C60.7798 32.876 60.2642 32.668 59.6079 32.668Z" fill="#222222"/>
<path fill-rule="evenodd" clip-rule="evenodd" d="M932.821 26.707L931.406 25.293L924.114 32.586L916.821 25.293L915.406 26.707L922.699 34L915.406 41.293L916.821 42.707L924.114 35.414L931.406 42.707L932.821 41.293L925.528 34L932.821 26.707Z" fill="#C2CED7"/>
<path fill-rule="evenodd" clip-rule="evenodd" d="M681 606C681 603.791 682.791 602 685 602H927C929.209 602 931 603.791 931 606V638C931 640.209 929.209 642 927 642H685C682.791 642 681 640.209 681 638V606Z" fill="#0084B4"/>
<path d="M783.731 618.006H786.698C788.074 618.006 789.067 618.206 789.678 618.607C790.293 619.008 790.601 619.642 790.601 620.508C790.601 621.091 790.451 621.576 790.15 621.964C789.849 622.351 789.416 622.595 788.851 622.695V622.764C789.553 622.896 790.068 623.158 790.396 623.55C790.729 623.937 790.895 624.464 790.895 625.129C790.895 626.027 790.58 626.731 789.951 627.241C789.327 627.747 788.457 628 787.34 628H783.731V618.006ZM785.365 622.135H786.937C787.62 622.135 788.119 622.028 788.434 621.813C788.748 621.595 788.906 621.226 788.906 620.706C788.906 620.237 788.735 619.897 788.393 619.688C788.056 619.478 787.518 619.373 786.78 619.373H785.365V622.135ZM785.365 623.461V626.626H787.101C787.785 626.626 788.299 626.496 788.646 626.236C788.997 625.972 789.172 625.557 789.172 624.992C789.172 624.473 788.994 624.088 788.639 623.837C788.284 623.586 787.743 623.461 787.019 623.461H785.365ZM798.251 628L798.025 627.009H797.943C797.72 627.36 797.401 627.635 796.986 627.836C796.576 628.036 796.107 628.137 795.578 628.137C794.662 628.137 793.978 627.909 793.527 627.453C793.076 626.997 792.85 626.307 792.85 625.382V620.439H794.471V625.102C794.471 625.68 794.589 626.116 794.826 626.407C795.063 626.694 795.434 626.838 795.94 626.838C796.615 626.838 797.109 626.637 797.424 626.236C797.743 625.831 797.902 625.154 797.902 624.206V620.439H799.515V628H798.251ZM804.739 626.838C805.13 626.838 805.522 626.776 805.914 626.653V627.863C805.737 627.941 805.506 628.005 805.224 628.055C804.946 628.109 804.657 628.137 804.356 628.137C802.834 628.137 802.073 627.335 802.073 625.73V621.656H801.04V620.945L802.148 620.357L802.695 618.758H803.686V620.439H805.839V621.656H803.686V625.703C803.686 626.09 803.782 626.378 803.973 626.564C804.169 626.747 804.424 626.838 804.739 626.838ZM810.365 626.838C810.757 626.838 811.149 626.776 811.541 626.653V627.863C811.363 627.941 811.133 628.005 810.85 628.055C810.572 628.109 810.283 628.137 809.982 628.137C808.46 628.137 807.699 627.335 807.699 625.73V621.656H806.667V620.945L807.774 620.357L808.321 618.758H809.312V620.439H811.466V621.656H809.312V625.703C809.312 626.09 809.408 626.378 809.599 626.564C809.795 626.747 810.051 626.838 810.365 626.838ZM819.881 624.206C819.881 625.441 819.564 626.405 818.931 627.098C818.297 627.79 817.416 628.137 816.285 628.137C815.579 628.137 814.955 627.977 814.412 627.658C813.87 627.339 813.453 626.881 813.161 626.284C812.87 625.687 812.724 624.994 812.724 624.206C812.724 622.98 813.038 622.023 813.667 621.335C814.296 620.647 815.182 620.303 816.326 620.303C817.42 620.303 818.286 620.656 818.924 621.362C819.562 622.064 819.881 623.012 819.881 624.206ZM814.378 624.206C814.378 625.951 815.023 626.824 816.313 626.824C817.589 626.824 818.227 625.951 818.227 624.206C818.227 622.479 817.584 621.615 816.299 621.615C815.625 621.615 815.135 621.839 814.829 622.285C814.529 622.732 814.378 623.372 814.378 624.206ZM828.502 628H826.888V623.352C826.888 622.768 826.77 622.333 826.533 622.046C826.3 621.759 825.929 621.615 825.419 621.615C824.74 621.615 824.243 621.816 823.928 622.217C823.614 622.618 823.457 623.29 823.457 624.233V628H821.85V620.439H823.108L823.334 621.431H823.416C823.644 621.071 823.967 620.793 824.386 620.597C824.806 620.401 825.271 620.303 825.781 620.303C827.595 620.303 828.502 621.226 828.502 623.071V628Z" fill="white"/>
<rect x="10" y="587" width="940" height="0.5" fill="#C2CED7"/>
<defs>
<filter id="filter0_d" x="0" y="0" width="960" height="671" filterUnits="userSpaceOnUse" color-interpolation-filters="sRGB">
<feFlood flood-opacity="0" result="BackgroundImageFix"/>
<feColorMatrix in="SourceAlpha" type="matrix" values="0 0 0 0 0 0 0 0 0 0 0 0 0 0 0 0 0 0 127 0"/>
<feOffset/>
<feGaussianBlur stdDeviation="5"/>
<feColorMatrix type="matrix" values="0 0 0 0 0 0 0 0 0 0 0 0 0 0 0 0 0 0 0.1 0"/>
<feBlend mode="normal" in2="BackgroundImageFix" result="effect1_dropShadow"/>
<feBlend mode="normal" in="SourceGraphic" in2="effect1_dropShadow" result="shape"/>
</filter>
</defs>
</svg>
