<svg width="480" height="216" viewBox="0 0 480 216" fill="none" xmlns="http://www.w3.org/2000/svg">
<g filter="url(#filter0_d)">
<rect x="10" y="10" width="460" height="196" rx="6" fill="white"/>
<rect x="10.5" y="10.5" width="459" height="195" rx="5.5" stroke="#C5C5C5"/>
</g>
<rect x="10" y="58" width="460" height="0.5" fill="#C2CED7"/>
<path d="M29.1265 41H27.0259V29.9521H23.2466V28.1504H32.9058V29.9521H29.1265V41ZM36.729 41H34.6636V31.2793H36.729V41ZM34.5405 28.7041C34.5405 28.335 34.6401 28.0508 34.8394 27.8516C35.0444 27.6523 35.3345 27.5527 35.7095 27.5527C36.0728 27.5527 36.354 27.6523 36.5532 27.8516C36.7583 28.0508 36.8608 28.335 36.8608 28.7041C36.8608 29.0557 36.7583 29.334 36.5532 29.5391C36.354 29.7383 36.0728 29.8379 35.7095 29.8379C35.3345 29.8379 35.0444 29.7383 34.8394 29.5391C34.6401 29.334 34.5405 29.0557 34.5405 28.7041ZM43.312 39.5059C43.8159 39.5059 44.3198 39.4268 44.8237 39.2686V40.8242C44.5952 40.9238 44.2993 41.0059 43.936 41.0703C43.5786 41.1406 43.2065 41.1758 42.8198 41.1758C40.8628 41.1758 39.8843 40.1445 39.8843 38.082V32.8438H38.5571V31.9297L39.981 31.1738L40.6841 29.1172H41.9585V31.2793H44.7271V32.8438H41.9585V38.0469C41.9585 38.5449 42.0815 38.9141 42.3276 39.1543C42.5796 39.3887 42.9077 39.5059 43.312 39.5059ZM48.8403 41H46.7749V27.3242H48.8403V41ZM56.0474 41.1758C54.5356 41.1758 53.3521 40.7363 52.4966 39.8574C51.647 38.9727 51.2222 37.7568 51.2222 36.21C51.2222 34.6221 51.6177 33.374 52.4087 32.4658C53.1997 31.5576 54.2866 31.1035 55.6694 31.1035C56.9526 31.1035 57.9663 31.4932 58.7104 32.2725C59.4546 33.0518 59.8267 34.124 59.8267 35.4893V36.6055H53.3491C53.3784 37.5488 53.6333 38.2754 54.1138 38.7852C54.5942 39.2891 55.271 39.541 56.144 39.541C56.7183 39.541 57.2515 39.4883 57.7437 39.3828C58.2417 39.2715 58.7749 39.0898 59.3433 38.8379V40.5166C58.8394 40.7568 58.3296 40.9268 57.814 41.0264C57.2983 41.126 56.7095 41.1758 56.0474 41.1758ZM55.6694 32.668C55.0132 32.668 54.4858 32.876 54.0874 33.292C53.6948 33.708 53.4604 34.3145 53.3843 35.1113H57.7964C57.7847 34.3086 57.5913 33.7021 57.2163 33.292C56.8413 32.876 56.3257 32.668 55.6694 32.668Z" fill="#222222"/>
<path fill-rule="evenodd" clip-rule="evenodd" d="M456.286 26.707L454.871 25.293L447.579 32.586L440.286 25.293L438.871 26.707L446.164 34L438.871 41.293L440.286 42.707L447.579 35.414L454.871 42.707L456.286 41.293L448.993 34L456.286 26.707Z" fill="#C2CED7"/>
<defs>
<filter id="filter0_d" x="0" y="0" width="480" height="216" filterUnits="userSpaceOnUse" color-interpolation-filters="sRGB">
<feFlood flood-opacity="0" result="BackgroundImageFix"/>
<feColorMatrix in="SourceAlpha" type="matrix" values="0 0 0 0 0 0 0 0 0 0 0 0 0 0 0 0 0 0 127 0"/>
<feOffset/>
<feGaussianBlur stdDeviation="5"/>
<feColorMatrix type="matrix" values="0 0 0 0 0 0 0 0 0 0 0 0 0 0 0 0 0 0 0.1 0"/>
<feBlend mode="normal" in2="BackgroundImageFix" result="effect1_dropShadow"/>
<feBlend mode="normal" in="SourceGraphic" in2="effect1_dropShadow" result="shape"/>
</filter>
</defs>
</svg>
