<svg width="1386" height="68" viewBox="0 0 1386 68" fill="none" xmlns="http://www.w3.org/2000/svg">
<g filter="url(#filter0_d)">
<rect x="10" y="10" width="1366" height="48" fill="white"/>
</g>
<path d="M995.766 42V32.0059H996.928V40.9473H1001.34V42H995.766ZM1003.04 42V32.0059H1004.2V42H1003.04ZM1012.59 39.3408C1012.59 40.2204 1012.27 40.9062 1011.63 41.3984C1010.99 41.8906 1010.13 42.1367 1009.03 42.1367C1007.85 42.1367 1006.94 41.984 1006.3 41.6787V40.5576C1006.71 40.7308 1007.16 40.8675 1007.64 40.9678C1008.12 41.068 1008.6 41.1182 1009.08 41.1182C1009.85 41.1182 1010.43 40.9723 1010.83 40.6807C1011.22 40.3844 1011.41 39.9743 1011.41 39.4502C1011.41 39.1038 1011.34 38.8213 1011.2 38.6025C1011.06 38.3792 1010.83 38.1742 1010.5 37.9873C1010.18 37.8005 1009.69 37.5885 1009.02 37.3516C1008.09 37.0189 1007.43 36.6247 1007.02 36.1689C1006.63 35.7132 1006.43 35.1185 1006.43 34.3848C1006.43 33.6146 1006.72 33.0016 1007.3 32.5459C1007.88 32.0902 1008.64 31.8623 1009.59 31.8623C1010.59 31.8623 1011.5 32.0446 1012.34 32.4092L1011.97 33.4209C1011.15 33.0745 1010.35 32.9014 1009.57 32.9014C1008.95 32.9014 1008.47 33.0335 1008.12 33.2979C1007.78 33.5622 1007.61 33.929 1007.61 34.3984C1007.61 34.7448 1007.67 35.0296 1007.8 35.2529C1007.92 35.4717 1008.14 35.6745 1008.44 35.8613C1008.74 36.0436 1009.21 36.2464 1009.83 36.4697C1010.88 36.8434 1011.6 37.2445 1011.99 37.6729C1012.39 38.1012 1012.59 38.6572 1012.59 39.3408ZM1017.71 42H1016.55V33.0381H1013.38V32.0059H1020.87V33.0381H1017.71V42ZM1022.38 42V32.0059H1023.55V42H1022.38ZM1034.1 42H1032.78L1027.31 33.6123H1027.26C1027.33 34.5967 1027.37 35.499 1027.37 36.3193V42H1026.29V32.0059H1027.61L1033.06 40.3594H1033.11C1033.1 40.2363 1033.08 39.8421 1033.05 39.1768C1033.02 38.5068 1033.01 38.0283 1033.01 37.7412V32.0059H1034.1V42ZM1041.25 36.7637H1044.64V41.624C1044.11 41.7926 1043.58 41.9202 1043.03 42.0068C1042.48 42.0934 1041.85 42.1367 1041.13 42.1367C1039.62 42.1367 1038.44 41.6878 1037.59 40.79C1036.75 39.8877 1036.33 38.6253 1036.33 37.0029C1036.33 35.9639 1036.54 35.0547 1036.95 34.2754C1037.37 33.4915 1037.97 32.8945 1038.76 32.4844C1039.54 32.0697 1040.46 31.8623 1041.51 31.8623C1042.58 31.8623 1043.57 32.0583 1044.49 32.4502L1044.04 33.4756C1043.14 33.0928 1042.27 32.9014 1041.44 32.9014C1040.22 32.9014 1039.27 33.2637 1038.59 33.9883C1037.9 34.7129 1037.56 35.7178 1037.56 37.0029C1037.56 38.3519 1037.89 39.375 1038.54 40.0723C1039.21 40.7695 1040.17 41.1182 1041.45 41.1182C1042.14 41.1182 1042.82 41.0384 1043.48 40.8789V37.8027H1041.25V36.7637ZM1049.87 38.165C1049.87 36.9574 1050.05 35.8271 1050.4 34.7744C1050.75 33.7217 1051.26 32.7988 1051.93 32.0059H1053.04C1052.38 32.8854 1051.89 33.8516 1051.55 34.9043C1051.23 35.957 1051.06 37.0394 1051.06 38.1514C1051.06 39.2451 1051.23 40.3138 1051.57 41.3574C1051.9 42.401 1052.39 43.3535 1053.02 44.2148H1051.93C1051.26 43.4401 1050.75 42.5355 1050.4 41.501C1050.05 40.4665 1049.87 39.3545 1049.87 38.165ZM1060.71 42H1054.14V41.0225L1056.77 38.377C1057.57 37.5658 1058.1 36.987 1058.36 36.6406C1058.61 36.2943 1058.8 35.957 1058.93 35.6289C1059.06 35.3008 1059.12 34.9476 1059.12 34.5693C1059.12 34.0361 1058.96 33.6146 1058.64 33.3047C1058.31 32.9902 1057.86 32.833 1057.29 32.833C1056.87 32.833 1056.48 32.9014 1056.11 33.0381C1055.74 33.1748 1055.32 33.4232 1054.87 33.7832L1054.27 33.0107C1055.19 32.2451 1056.19 31.8623 1057.28 31.8623C1058.21 31.8623 1058.95 32.1038 1059.48 32.5869C1060.02 33.0654 1060.28 33.7103 1060.28 34.5215C1060.28 35.1549 1060.11 35.7816 1059.75 36.4014C1059.39 37.0212 1058.73 37.805 1057.75 38.7529L1055.57 40.8926V40.9473H1060.71V42ZM1065.05 38.165C1065.05 39.3636 1064.87 40.4801 1064.51 41.5146C1064.16 42.5492 1063.66 43.4492 1062.99 44.2148H1061.9C1062.53 43.3581 1063.02 42.4079 1063.35 41.3643C1063.69 40.3161 1063.86 39.2451 1063.86 38.1514C1063.86 37.0394 1063.69 35.957 1063.36 34.9043C1063.03 33.8516 1062.54 32.8854 1061.88 32.0059H1062.99C1063.66 32.8034 1064.17 33.7308 1064.52 34.7881C1064.87 35.8408 1065.05 36.9665 1065.05 38.165Z" fill="#222222"/>
<path d="M663.334 32.9014C662.236 32.9014 661.368 33.2682 660.729 34.002C660.096 34.7311 659.779 35.7314 659.779 37.0029C659.779 38.3109 660.085 39.3226 660.695 40.0381C661.311 40.749 662.186 41.1045 663.32 41.1045C664.018 41.1045 664.813 40.9792 665.706 40.7285V41.7471C665.013 42.0068 664.159 42.1367 663.143 42.1367C661.671 42.1367 660.534 41.6901 659.731 40.7969C658.934 39.9036 658.535 38.6344 658.535 36.9893C658.535 35.9593 658.727 35.057 659.109 34.2822C659.497 33.5075 660.053 32.9105 660.777 32.4912C661.507 32.0719 662.363 31.8623 663.348 31.8623C664.396 31.8623 665.312 32.0537 666.096 32.4365L665.604 33.4346C664.847 33.0791 664.09 32.9014 663.334 32.9014ZM667.887 42V32.0059H669.049V40.9473H673.458V42H667.887ZM683.835 36.9893C683.835 38.5889 683.429 39.8467 682.618 40.7627C681.812 41.6787 680.688 42.1367 679.248 42.1367C677.776 42.1367 676.639 41.6878 675.837 40.79C675.039 39.8877 674.641 38.6162 674.641 36.9756C674.641 35.3486 675.042 34.0885 675.844 33.1953C676.646 32.2975 677.785 31.8486 679.262 31.8486C680.697 31.8486 681.818 32.3044 682.625 33.2158C683.432 34.1273 683.835 35.3851 683.835 36.9893ZM675.871 36.9893C675.871 38.3428 676.158 39.3704 676.732 40.0723C677.311 40.7695 678.15 41.1182 679.248 41.1182C680.355 41.1182 681.192 40.7695 681.757 40.0723C682.322 39.375 682.604 38.3473 682.604 36.9893C682.604 35.6449 682.322 34.6263 681.757 33.9336C681.196 33.2363 680.365 32.8877 679.262 32.8877C678.154 32.8877 677.311 33.2386 676.732 33.9404C676.158 34.6377 675.871 35.654 675.871 36.9893ZM691.71 39.3408C691.71 40.2204 691.391 40.9062 690.753 41.3984C690.115 41.8906 689.249 42.1367 688.155 42.1367C686.97 42.1367 686.059 41.984 685.421 41.6787V40.5576C685.831 40.7308 686.278 40.8675 686.761 40.9678C687.244 41.068 687.722 41.1182 688.196 41.1182C688.971 41.1182 689.554 40.9723 689.946 40.6807C690.338 40.3844 690.534 39.9743 690.534 39.4502C690.534 39.1038 690.464 38.8213 690.322 38.6025C690.186 38.3792 689.953 38.1742 689.625 37.9873C689.301 37.8005 688.807 37.5885 688.142 37.3516C687.212 37.0189 686.547 36.6247 686.146 36.1689C685.749 35.7132 685.551 35.1185 685.551 34.3848C685.551 33.6146 685.84 33.0016 686.419 32.5459C686.998 32.0902 687.763 31.8623 688.716 31.8623C689.709 31.8623 690.623 32.0446 691.457 32.4092L691.095 33.4209C690.27 33.0745 689.468 32.9014 688.688 32.9014C688.073 32.9014 687.592 33.0335 687.246 33.2979C686.9 33.5622 686.727 33.929 686.727 34.3984C686.727 34.7448 686.79 35.0296 686.918 35.2529C687.046 35.4717 687.26 35.6745 687.561 35.8613C687.866 36.0436 688.331 36.2464 688.955 36.4697C690.003 36.8434 690.723 37.2445 691.115 37.6729C691.512 38.1012 691.71 38.6572 691.71 39.3408ZM699.325 42H693.754V32.0059H699.325V33.0381H694.916V36.2578H699.059V37.2832H694.916V40.9609H699.325V42ZM709.524 36.9072C709.524 38.557 709.076 39.8193 708.178 40.6943C707.285 41.5648 705.997 42 704.315 42H701.547V32.0059H704.609C706.163 32.0059 707.371 32.4365 708.232 33.2979C709.094 34.1592 709.524 35.3623 709.524 36.9072ZM708.294 36.9482C708.294 35.6449 707.966 34.6628 707.31 34.002C706.658 33.3411 705.687 33.0107 704.397 33.0107H702.709V40.9951H704.124C705.509 40.9951 706.551 40.6556 707.248 39.9766C707.945 39.293 708.294 38.2835 708.294 36.9482ZM714.583 38.165C714.583 36.9574 714.758 35.8271 715.109 34.7744C715.465 33.7217 715.975 32.7988 716.641 32.0059H717.748C717.092 32.8854 716.597 33.8516 716.265 34.9043C715.937 35.957 715.772 37.0394 715.772 38.1514C715.772 39.2451 715.941 40.3138 716.278 41.3574C716.616 42.401 717.101 43.3535 717.734 44.2148H716.641C715.971 43.4401 715.46 42.5355 715.109 41.501C714.758 40.4665 714.583 39.3545 714.583 38.165ZM725.473 36.9893C725.473 38.7165 725.199 40.0062 724.652 40.8584C724.11 41.7106 723.278 42.1367 722.157 42.1367C721.082 42.1367 720.264 41.7015 719.703 40.8311C719.143 39.9561 718.862 38.6755 718.862 36.9893C718.862 35.2484 719.133 33.9564 719.676 33.1133C720.218 32.2702 721.045 31.8486 722.157 31.8486C723.242 31.8486 724.064 32.2884 724.625 33.168C725.19 34.0475 725.473 35.3213 725.473 36.9893ZM720.011 36.9893C720.011 38.443 720.182 39.5026 720.523 40.168C720.865 40.8288 721.41 41.1592 722.157 41.1592C722.914 41.1592 723.461 40.8242 723.798 40.1543C724.14 39.4798 724.311 38.4248 724.311 36.9893C724.311 35.5537 724.14 34.5033 723.798 33.8379C723.461 33.168 722.914 32.833 722.157 32.833C721.41 32.833 720.865 33.1634 720.523 33.8242C720.182 34.4805 720.011 35.5355 720.011 36.9893ZM729.759 38.165C729.759 39.3636 729.581 40.4801 729.226 41.5146C728.875 42.5492 728.367 43.4492 727.701 44.2148H726.607C727.241 43.3581 727.726 42.4079 728.063 41.3643C728.401 40.3161 728.569 39.2451 728.569 38.1514C728.569 37.0394 728.403 35.957 728.07 34.9043C727.742 33.8516 727.25 32.8854 726.594 32.0059H727.701C728.371 32.8034 728.882 33.7308 729.232 34.7881C729.583 35.8408 729.759 36.9665 729.759 38.165Z" fill="#222222"/>
<path d="M306.963 41V31.0059H309.082V41H306.963ZM320.581 41H317.887L313.54 33.4395H313.478C313.565 34.7747 313.608 35.7272 313.608 36.2969V41H311.715V31.0059H314.387L318.728 38.4912H318.776C318.708 37.1924 318.674 36.2741 318.674 35.7363V31.0059H320.581V41ZM332.729 41H326.973V31.0059H332.729V32.7422H329.092V34.9365H332.476V36.6729H329.092V39.25H332.729V41ZM340.837 38.2246C340.837 39.127 340.511 39.8379 339.859 40.3574C339.212 40.877 338.31 41.1367 337.152 41.1367C336.086 41.1367 335.143 40.9362 334.322 40.5352V38.5664C334.997 38.8672 335.566 39.0791 336.031 39.2021C336.501 39.3252 336.929 39.3867 337.316 39.3867C337.781 39.3867 338.137 39.2979 338.383 39.1201C338.634 38.9424 338.759 38.6781 338.759 38.3271C338.759 38.1312 338.704 37.958 338.595 37.8076C338.485 37.6527 338.324 37.5046 338.109 37.3633C337.9 37.222 337.469 36.9964 336.817 36.6865C336.207 36.3994 335.749 36.1237 335.443 35.8594C335.138 35.5951 334.894 35.2874 334.712 34.9365C334.53 34.5856 334.439 34.1755 334.439 33.7061C334.439 32.8219 334.737 32.127 335.334 31.6211C335.936 31.1152 336.765 30.8623 337.822 30.8623C338.342 30.8623 338.836 30.9238 339.306 31.0469C339.78 31.1699 340.274 31.3431 340.789 31.5664L340.106 33.2139C339.572 32.9951 339.13 32.8424 338.779 32.7559C338.433 32.6693 338.091 32.626 337.754 32.626C337.353 32.626 337.045 32.7194 336.831 32.9062C336.617 33.0931 336.51 33.3369 336.51 33.6377C336.51 33.8245 336.553 33.9886 336.64 34.1299C336.726 34.2666 336.863 34.401 337.05 34.5332C337.241 34.6608 337.69 34.8932 338.397 35.2305C339.331 35.6771 339.971 36.126 340.317 36.5771C340.664 37.0238 340.837 37.5729 340.837 38.2246ZM347.01 32.626C346.213 32.626 345.595 32.9268 345.158 33.5283C344.72 34.1253 344.501 34.9593 344.501 36.0303C344.501 38.2588 345.338 39.373 347.01 39.373C347.712 39.373 348.562 39.1976 349.56 38.8467V40.624C348.74 40.9658 347.824 41.1367 346.812 41.1367C345.358 41.1367 344.246 40.6969 343.476 39.8174C342.706 38.9333 342.321 37.6663 342.321 36.0166C342.321 34.9775 342.51 34.0684 342.888 33.2891C343.266 32.5052 343.809 31.9059 344.515 31.4912C345.226 31.0719 346.058 30.8623 347.01 30.8623C347.981 30.8623 348.956 31.097 349.936 31.5664L349.252 33.2891C348.879 33.1113 348.503 32.9564 348.125 32.8242C347.746 32.6921 347.375 32.626 347.01 32.626ZM353.929 35.4424H354.612C355.282 35.4424 355.777 35.3307 356.096 35.1074C356.415 34.8841 356.574 34.5332 356.574 34.0547C356.574 33.5807 356.41 33.2435 356.082 33.043C355.758 32.8424 355.255 32.7422 354.571 32.7422H353.929V35.4424ZM353.929 37.165V41H351.81V31.0059H354.722C356.08 31.0059 357.085 31.2542 357.736 31.751C358.388 32.2432 358.714 32.9928 358.714 34C358.714 34.5879 358.552 35.112 358.229 35.5723C357.905 36.028 357.447 36.3857 356.854 36.6455C358.358 38.8923 359.338 40.3438 359.794 41H357.442L355.057 37.165H353.929ZM370.24 35.9893C370.24 37.6436 369.83 38.915 369.009 39.8037C368.189 40.6924 367.013 41.1367 365.482 41.1367C363.951 41.1367 362.775 40.6924 361.955 39.8037C361.134 38.915 360.724 37.639 360.724 35.9756C360.724 34.3122 361.134 33.043 361.955 32.168C362.779 31.2884 363.96 30.8486 365.496 30.8486C367.031 30.8486 368.205 31.2907 369.016 32.1748C369.832 33.0589 370.24 34.3304 370.24 35.9893ZM362.946 35.9893C362.946 37.1058 363.158 37.9466 363.582 38.5117C364.005 39.0768 364.639 39.3594 365.482 39.3594C367.173 39.3594 368.018 38.236 368.018 35.9893C368.018 33.738 367.177 32.6123 365.496 32.6123C364.652 32.6123 364.017 32.8971 363.588 33.4668C363.16 34.0319 362.946 34.8727 362.946 35.9893ZM382.162 41H379.749L378.395 35.75C378.345 35.5632 378.259 35.1781 378.136 34.5947C378.017 34.0068 377.949 33.6126 377.931 33.4121C377.903 33.6582 377.835 34.0547 377.726 34.6016C377.616 35.1439 377.532 35.5312 377.473 35.7637L376.126 41H373.72L371.17 31.0059H373.255L374.533 36.4609C374.756 37.4681 374.918 38.3408 375.018 39.0791C375.046 38.8193 375.107 38.4183 375.203 37.876C375.303 37.3291 375.397 36.9053 375.483 36.6045L376.939 31.0059H378.942L380.398 36.6045C380.462 36.8551 380.542 37.238 380.638 37.7529C380.733 38.2679 380.806 38.71 380.856 39.0791C380.902 38.7236 380.975 38.2816 381.075 37.7529C381.175 37.2197 381.267 36.7891 381.349 36.4609L382.62 31.0059H384.705L382.162 41ZM389.136 37.165C389.136 35.9574 389.311 34.8271 389.662 33.7744C390.017 32.7217 390.528 31.7988 391.193 31.0059H392.902C392.26 31.8854 391.774 32.8516 391.446 33.9043C391.118 34.957 390.954 36.0394 390.954 37.1514C390.954 38.2679 391.12 39.348 391.453 40.3916C391.79 41.4307 392.269 42.3717 392.889 43.2148H391.193C390.523 42.4401 390.013 41.5355 389.662 40.501C389.311 39.4665 389.136 38.3545 389.136 37.165ZM400.928 36.0029C400.928 37.7484 400.641 39.0404 400.067 39.8789C399.497 40.7174 398.618 41.1367 397.428 41.1367C396.275 41.1367 395.405 40.7038 394.817 39.8379C394.233 38.972 393.942 37.6937 393.942 36.0029C393.942 34.2393 394.227 32.9404 394.796 32.1064C395.366 31.2679 396.243 30.8486 397.428 30.8486C398.581 30.8486 399.451 31.2861 400.039 32.1611C400.632 33.0361 400.928 34.3167 400.928 36.0029ZM396.04 36.0029C396.04 37.2288 396.145 38.1084 396.355 38.6416C396.569 39.1702 396.927 39.4346 397.428 39.4346C397.92 39.4346 398.276 39.1657 398.494 38.6279C398.713 38.0902 398.823 37.2152 398.823 36.0029C398.823 34.777 398.711 33.8975 398.488 33.3643C398.269 32.8265 397.916 32.5576 397.428 32.5576C396.931 32.5576 396.576 32.8265 396.362 33.3643C396.147 33.8975 396.04 34.777 396.04 36.0029ZM405.734 37.165C405.734 38.3636 405.556 39.4801 405.201 40.5146C404.85 41.5492 404.342 42.4492 403.677 43.2148H401.981C402.596 42.3763 403.073 41.4375 403.41 40.3984C403.747 39.3548 403.916 38.2725 403.916 37.1514C403.916 36.0394 403.752 34.957 403.424 33.9043C403.096 32.8516 402.61 31.8854 401.968 31.0059H403.677C404.346 31.8034 404.857 32.7308 405.208 33.7881C405.559 34.8408 405.734 35.9665 405.734 37.165Z" fill="#0084B4"/>
<path fill-rule="evenodd" clip-rule="evenodd" d="M219 55V58H492V55H219Z" fill="#0084B4"/>
<defs>
<filter id="filter0_d" x="0" y="0" width="1386" height="68" filterUnits="userSpaceOnUse" color-interpolation-filters="sRGB">
<feFlood flood-opacity="0" result="BackgroundImageFix"/>
<feColorMatrix in="SourceAlpha" type="matrix" values="0 0 0 0 0 0 0 0 0 0 0 0 0 0 0 0 0 0 127 0"/>
<feOffset/>
<feGaussianBlur stdDeviation="5"/>
<feColorMatrix type="matrix" values="0 0 0 0 0 0 0 0 0 0 0 0 0 0 0 0 0 0 0.1 0"/>
<feBlend mode="normal" in2="BackgroundImageFix" result="effect1_dropShadow"/>
<feBlend mode="normal" in="SourceGraphic" in2="effect1_dropShadow" result="shape"/>
</filter>
</defs>
</svg>
